<svg xmlns="http://www.w3.org/2000/svg" width="305.441" height="71.87" viewBox="0 0 305.441 71.87">
  <g id="Group_2" data-name="Group 2" transform="translate(-242.5 -60)">
    <g id="Group_1" data-name="Group 1" transform="translate(242.5 60)">
      <g id="nsia-logo" transform="translate(156.363)">
        <path id="Path_1" data-name="Path 1" d="M512.01,166.236a10.314,10.314,0,0,1-5.006-.181,7.594,7.594,0,0,1-5.225-4.974c-.712-1.744-1.455-3.475-2.184-5.21-.038-.09-.088-.173-.136-.271a50.251,50.251,0,0,1-5.762,2.971c-1.457.629-2.929,1.221-4.435,1.715a.893.893,0,0,0-.587.544c-.76,1.722-1.544,3.435-2.309,5.158a.4.4,0,0,1-.442.294c-.607-.02-1.214-.007-1.878-.007.112-.281.213-.544.326-.795.78-1.744,1.57-3.478,2.339-5.225a.807.807,0,0,1,.571-.5,55.151,55.151,0,0,0,10.687-4.338,35.057,35.057,0,0,0,5.471-3.583c.261-.213.328-.146.442.125q1.926,4.634,3.876,9.259a10.435,10.435,0,0,0,.81,1.547,4.82,4.82,0,0,0,3.438,2.425Z" transform="translate(-362.931 -113.829)" fill="#2a2561"/>
        <path id="Path_2" data-name="Path 2" d="M358.817,197.544c-.579-.1-1.163-.183-1.737-.3a10.38,10.38,0,0,1-4.854-2.114,3.461,3.461,0,0,1-1.3-2.344c-.02-.21-.033-.334.278-.273.85.169,1.71.286,2.568.414a.645.645,0,0,1,.431.251,6.653,6.653,0,0,0,4.38,2.349,9.449,9.449,0,0,0,3.949-.138,4.264,4.264,0,0,0,2.334-1.437c.125-.16.268-.146.429-.148l4.47-.093c.043.115-.065.188-.125.273a8.138,8.138,0,0,1-4.47,2.969,13.729,13.729,0,0,1-2.773.519c-.06.005-.125-.007-.151.07Z" transform="translate(-263.179 -144.392)" fill="#2a2561"/>
        <path id="Path_3" data-name="Path 3" d="M252.623,118.715v-.406q0-9.168-.007-18.336c0-.331.08-.429.409-.406a11,11,0,0,0,1.379,0c.3-.017.356.1.344.358-.017.459-.005.92-.005,1.379q0,9.337.005,18.669c0,.337-.038.444-.421.344a63.618,63.618,0,0,1-10.566-3.748,1.426,1.426,0,0,1-.481-.4q-3.993-4.694-7.987-9.382c-.053-.062-.112-.123-.228-.248v.8q0,9.726.01,19.451c0,.351-.1.444-.436.421a11.4,11.4,0,0,0-1.341,0c-.273.015-.361-.053-.356-.344.02-1.006.007-2.011.007-3.019V104.621a4.176,4.176,0,0,0-.77-2.665,3.172,3.172,0,0,0-2.47-1.093c-.731-.056-.735-.035-.735-.755,0-.112.007-.225,0-.337-.01-.141.038-.2.188-.2a25.641,25.641,0,0,1,5.709.313,6.215,6.215,0,0,1,3.28,2.061c2.244,2.638,4.508,5.258,6.765,7.883q3.7,4.306,7.406,8.61A.675.675,0,0,0,252.623,118.715Z" transform="translate(-171.808 -74.76)" fill="#2b2662"/>
        <path id="Path_4" data-name="Path 4" d="M369.874,103.923c0,.757-.007,1.514.005,2.274,0,.225-.03.323-.3.323-.9-.005-.893.005-1.088-.935a11.709,11.709,0,0,0-1.62-4.2,6.377,6.377,0,0,0-4.8-2.833,7.4,7.4,0,0,0-3.7.368,3.935,3.935,0,0,0-1.309,6.366,19.372,19.372,0,0,0,3.257,2.339c2.362,1.437,4.814,2.73,7.087,4.31a8.156,8.156,0,0,1,2.981,3.209,7.317,7.317,0,0,1,.258,5.057.247.247,0,0,1-.263.2c-1.524.083-3.051.123-4.578.13-.175,0-.191-.056-.173-.218a4.387,4.387,0,0,0-1.587-4.006,28.748,28.748,0,0,0-4.2-2.881c-1.818-1.116-3.712-2.114-5.441-3.37a7.471,7.471,0,0,1-3.034-3.937,6.749,6.749,0,0,1,1.35-6.883,8.156,8.156,0,0,1,4.7-2.387,16.235,16.235,0,0,1,8.718.742,7.094,7.094,0,0,1,2.948,1.951,3.3,3.3,0,0,1,.787,2.267q0,1.05,0,2.116Z" transform="translate(-263.238 -72.512)" fill="#2a2461"/>
        <path id="Path_5" data-name="Path 5" d="M453.448,100.091c0,.088.01.173.01.261v20.933c0,.175.053.337-.241.389-1.344.228-2.685.464-4.039.634a2.156,2.156,0,0,1-.22.005,4.026,4.026,0,0,0-.521-.005c-.289.03-.351-.1-.351-.363q.007-10.817,0-21.633c0-.3.09-.376.381-.373q2.194.019,4.393,0a.945.945,0,0,1,.588.152Z" transform="translate(-335.984 -75.039)" fill="#292360"/>
        <path id="Path_6" data-name="Path 6" d="M505.5,106.839c-.413.925-.787,1.768-1.166,2.61q-2.038,4.543-4.074,9.086c-.05.112-.07.243-.21.289-.8.258-1.592.516-2.5.812.3-.687.549-1.271.807-1.853l6.175-13.808q.91-2.034,1.81-4.077a.443.443,0,0,1,.494-.334,10.164,10.164,0,0,0,1.266,0,.41.41,0,0,1,.446.3q2.441,5.85,4.893,11.692a.3.3,0,0,1-.112.431,40.809,40.809,0,0,1-4.147,2.748c-.261.153-.316.053-.409-.169q-1.512-3.614-3.041-7.224C505.668,107.2,505.6,107.058,505.5,106.839Z" transform="translate(-373.048 -74.756)" fill="#0ba79b"/>
        <path id="Path_7" data-name="Path 7" d="M294.02,174.913c.088-.056.15-.005.215.025a59.173,59.173,0,0,0,8.928,3.109.361.361,0,0,1,.321.429q-.015,2.475,0,4.95c0,.286-.086.358-.358.346-.446-.022-.893-.015-1.339,0a.469.469,0,0,1-.414-.183q-3.637-4.28-7.279-8.555A1.406,1.406,0,0,1,294.02,174.913Z" transform="translate(-220.549 -131.196)" fill="#2b2662"/>
        <path id="Path_8" data-name="Path 8" d="M299,55.158c.609.4,1.259.175,1.916.261a1.848,1.848,0,0,1-.112-1.906,1.809,1.809,0,0,1,2.1-.787,1.373,1.373,0,0,1,1,1.512c0,.506-.01,1.018.005,1.527.005.213-.065.273-.276.273-1.316-.007-2.633,0-3.949-.005a2.086,2.086,0,0,1-1.128-.328.458.458,0,0,0-.481-.043,5.784,5.784,0,0,1-2.37.381c-1.143-.007-2.284-.007-3.428-.007-.133,0-.278-.028-.286.188-.022.91-.724,1.479-1.848,1.55-.3.017-.6-.022-.89-.025-.381-.005-.45-.169-.409-.5.023-.2.093-.21.263-.175a3.659,3.659,0,0,0,1.331.04.9.9,0,0,0,.793-.815c.022-.191-.025-.268-.231-.266a6.181,6.181,0,0,1-.965-.045,1.4,1.4,0,0,1-1.254-1.539,1.612,1.612,0,0,1,1.276-1.722,4.006,4.006,0,0,1,1.663.093.328.328,0,0,1,.289.386c-.017.609.005,1.218-.012,1.825-.007.276.04.394.356.379.582-.03,1.168-.022,1.75,0,.273.01.356-.053.351-.341-.017-1.191.015-2.384-.02-3.578-.012-.421.218-.328.456-.354.281-.03.356.067.351.349-.015,1.2,0,2.41-.012,3.615,0,.248.067.308.308.308a6.771,6.771,0,0,0,1.921-.165c.1-.03.248-.023.278-.138.025-.1-.1-.155-.175-.218a5.762,5.762,0,0,0-1.051-.767.45.45,0,0,1-.09-.722,3.01,3.01,0,0,1,2.244-.7,1.125,1.125,0,0,1,.933,1.713,2.484,2.484,0,0,1-.6.747Zm4.15-.474c-.015-.22-.015-.446-.048-.664a.744.744,0,0,0-.6-.712.88.88,0,0,0-.983.429,1.058,1.058,0,0,0,.922,1.653C303.285,55.389,303.145,55.577,303.15,54.684ZM291.24,54.4v-.782c0-.1.005-.183-.118-.243a1.237,1.237,0,0,0-1.339.236,1.294,1.294,0,0,0,.012,1.459c.225.261,1.093.506,1.35.311.233-.178.048-.506.093-.762a1.255,1.255,0,0,0,0-.218Zm5.85-.7a11.6,11.6,0,0,1,1.214.927c.065.053.112.125.225.075a1.172,1.172,0,0,0,.446-.938.638.638,0,0,0-.7-.529,2.126,2.126,0,0,0-1.186.465Z" transform="translate(-216.623 -38.47)" fill="#2d2961"/>
        <path id="Path_9" data-name="Path 9" d="M408.838,6.167a1.873,1.873,0,0,1,.07-2.149,1.969,1.969,0,0,1,2.081-.5,1.3,1.3,0,0,1,.867,1.264c.022.594,0,1.191.012,1.787,0,.173-.056.248-.233.246-1.389-.01-2.781-.015-4.169-.025a1.663,1.663,0,0,1-.913-.281.6.6,0,0,0-.619-.04,5.561,5.561,0,0,1-2.154.349c-.87-.005-1.737,0-2.608-.015-.233,0-.346.048-.381.313a1.607,1.607,0,0,1-1.421,1.412,6.412,6.412,0,0,1-1.487.01c-.376-.025-.243-.3-.248-.5-.005-.268.169-.2.334-.173a3.019,3.019,0,0,0,1.364,0,1.007,1.007,0,0,0,.547-.361.646.646,0,0,0,.123-.6c-.07-.188-.281-.08-.431-.1a4.736,4.736,0,0,1-.956-.112,1.378,1.378,0,0,1-1.053-1.439,1.631,1.631,0,0,1,.965-1.687,3.327,3.327,0,0,1,2.081.028c.218.056.208.218.208.379,0,.609.02,1.218-.01,1.825-.017.328.1.406.394.376a4.87,4.87,0,0,1,.855-.01c.241.017.289-.073.286-.294-.01-1.228,0-2.457-.01-3.688,0-.246.043-.376.323-.341.225.028.5-.1.489.334-.023,1.2.005,2.41-.017,3.613-.005.328.1.386.394.379a6.981,6.981,0,0,0,1.737-.146c.13-.038.321-.028.358-.148.053-.16-.15-.228-.253-.321a5.5,5.5,0,0,0-.963-.695.461.461,0,0,1-.07-.731,3.322,3.322,0,0,1,1.951-.727,1.285,1.285,0,0,1,1.266.612,1.376,1.376,0,0,1-.253,1.522c-.1.138-.358.241-.291.384.086.183.354.218.562.225C407.98,6.179,408.386,6.167,408.838,6.167ZM411.1,5.5a3.646,3.646,0,0,0-.045-.775.726.726,0,0,0-.5-.629.893.893,0,0,0-.956.228,1.211,1.211,0,0,0-.2,1.254.926.926,0,0,0,.943.589C411.1,6.214,411.1,6.206,411.1,5.5Zm-11.065-.3c0-.261-.01-.519,0-.78a.263.263,0,0,0-.248-.306c-.416-.062-.848-.148-1.173.231a1.189,1.189,0,0,0-.163,1.289,1.181,1.181,0,0,0,1.414.526c.371-.112.085-.492.165-.74a.811.811,0,0,0,.005-.22Zm4.984-.731a11.586,11.586,0,0,1,1.191.92c.062.056.12.112.228.078a1.106,1.106,0,0,0,.45-.918.558.558,0,0,0-.557-.539,1.823,1.823,0,0,0-1.312.458Z" transform="translate(-298.125 -1.543)" fill="#14a89c"/>
        <path id="Path_10" data-name="Path 10" d="M274.753,39.784q-22.6,0-45.2-.007c-.165,0-.481.15-.484-.146-.005-.328.323-.169.494-.169q45.237-.011,90.47-.007h.261c.088,0,.169.038.173.148.005.128-.068.175-.183.175H274.754Z" transform="translate(-171.883 -29.696)" fill="#199f93"/>
        <path id="Path_11" data-name="Path 11" d="M299.675,6.146a1.887,1.887,0,0,1,.105-2.2,2.039,2.039,0,0,1,2.137-.418,1.249,1.249,0,0,1,.752,1.069,16.592,16.592,0,0,1,.048,1.933c0,.191-.065.266-.258.266q-3.407-.007-6.818,0c-.2,0-.256-.083-.253-.271.01-.506.015-1.018.005-1.527-.017-.973-.471-.988-1.221-.938-.218.015-.163.183-.163.306-.005.695-.012,1.392,0,2.086.005.258-.068.356-.334.344-.5-.022-.993,0-1.489-.033-1.647-.12-2.349-1.08-2-2.713.045-.208.033-.444.341-.5.574-.105.559-.123.447.436a2.894,2.894,0,0,0-.017,1.181,1.307,1.307,0,0,0,1.334.975c.225.017.45-.007.669.012s.268-.08.266-.281c-.012-.619.015-1.244-.015-1.863-.02-.386.083-.552.5-.566a7.57,7.57,0,0,1,1.261-.025,1.244,1.244,0,0,1,1.192,1.317c.012.384.007.77,0,1.154-.005.188.056.268.256.258a5.965,5.965,0,0,1,.82,0c.246.02.281-.083.281-.3-.007-1.228.012-2.46-.012-3.688-.007-.344.15-.341.4-.341s.439-.012.431.356c-.025,1.216,0,2.432-.012,3.65,0,.238.05.337.306.316C298.968,6.129,299.3,6.146,299.675,6.146Zm2.241-.742c0-.191.012-.366,0-.537-.045-.5-.289-.777-.7-.82a.879.879,0,0,0-1,.634,1.115,1.115,0,0,0,.4,1.316,1.562,1.562,0,0,0,1.226.108C302.041,6.043,301.878,5.632,301.916,5.4Z" transform="translate(-217.613 -1.521)" fill="#14a89c"/>
        <path id="Path_12" data-name="Path 12" d="M491.495,55.377a1.768,1.768,0,0,1,2.8-2.154,1.622,1.622,0,0,1,.233.922c.005.506-.015,1.018.007,1.527.012.291-.1.351-.361.349-1.414-.012-2.831-.007-4.245-.007-.9,0-1.813-.005-2.718.005-.231,0-.331-.045-.321-.308.023-.506.007-1.018,0-1.527a.88.88,0,0,0-1.231-.888c-.181.056-.125.193-.125.3-.005.707,0,1.417-.005,2.124,0,.125.056.3-.169.294a12.808,12.808,0,0,1-2.081-.07c-1.431-.258-1.758-1.191-1.587-2.552.073-.587.206-.652.968-.664a5.547,5.547,0,0,0-.218.895,1.386,1.386,0,0,0,1.417,1.75c.9.067.9.067.9-.82,0-.506.007-1.018,0-1.527,0-.181.043-.263.236-.291a5.393,5.393,0,0,1,1.667-.03,1.144,1.144,0,0,1,.975,1.069,13.246,13.246,0,0,1,.033,1.339c0,.213.073.278.281.268a11.092,11.092,0,0,1,1.118,0c.253.017.276-.09.273-.3-.007-1.216.015-2.434-.012-3.651-.01-.411.241-.291.45-.318.256-.033.341.053.337.318-.015,1.2,0,2.41-.015,3.613,0,.246.043.358.321.337C490.772,55.354,491.127,55.377,491.495,55.377Zm2.241-.745a4.273,4.273,0,0,0-.005-.594.763.763,0,0,0-.506-.714.877.877,0,0,0-.905.169,1.155,1.155,0,0,0-.261,1.241.911.911,0,0,0,.875.637c.83.088.83.083.8-.74Z" transform="translate(-361.136 -38.45)" fill="#2d2961"/>
        <path id="Path_13" data-name="Path 13" d="M528.991,4.563c.695-1.03,1.682-1.4,2.457-.988s.956,1.35.464,2.54c.043.088.128.056.2.056.968,0,1.938-.007,2.906.005.241,0,.316-.06.328-.306.075-1.389-.444-1.9-1.825-1.768-.16.015-.406.188-.421-.2-.012-.308.09-.431.394-.416.286.012.571-.01.857,0a1.7,1.7,0,0,1,1.785,1.744,9.5,9.5,0,0,1-.062,1.336c-.018.241-.173.233-.337.236-1.043,0-2.086.01-3.129.01-2.137,0-4.27-.005-6.406,0-.241,0-.394-.007-.389-.326.017-1.414.022-2.831,0-4.247-.005-.368.15-.379.436-.394.338-.017.379.118.374.406-.015,1.2,0,2.41-.01,3.613,0,.246.068.323.311.308a7.791,7.791,0,0,1,.968,0c.246.015.326-.062.321-.311-.012-.669.023-1.341-.012-2.011-.02-.376.176-.346.429-.363.286-.017.409.056.371.363a5.774,5.774,0,0,0-.005.708Zm.806,1.61c.2,0,.394.01.595,0a.99.99,0,0,0,.97-.767,1.15,1.15,0,0,0-.384-1.268,1.125,1.125,0,0,0-1.294.381,2.813,2.813,0,0,0-.619,1.168c-.133.489-.133.489.359.489C529.55,6.173,529.673,6.173,529.8,6.173Z" transform="translate(-394.222 -1.544)" fill="#0ba79b"/>
        <path id="Path_14" data-name="Path 14" d="M453.472,194.07c0,.645-.007,1.289.005,1.935.005.22-.028.331-.294.321-.717-.028-1.439.007-2.156-.035a2.712,2.712,0,0,1-2.763-2.375c-.075-.351-.105-.71-.16-1.063-.025-.158.033-.206.193-.225,1.658-.218,3.312-.454,4.95-.8.181-.038.236.012.231.2C453.464,192.706,453.472,193.387,453.472,194.07Z" transform="translate(-335.995 -143.879)" fill="#2a2461"/>
        <path id="Path_15" data-name="Path 15" d="M429.289,53.808c.735-1.08,1.692-1.442,2.522-.973.722.409.885,1.462.354,2.547h.594c.9,0,1.813-.01,2.718.007.261.005.361-.043.371-.334.05-1.359-.436-1.83-1.8-1.722-.141.01-.4.218-.426-.181-.02-.331.1-.446.406-.446a5.717,5.717,0,0,1,1.223.062,1.562,1.562,0,0,1,1.336,1.437,7.366,7.366,0,0,1-.012,1.449c-.015.266-.1.373-.4.373-2.58-.012-5.163-.007-7.743-.007-.657,0-1.314-.005-1.973,0-.208,0-.308-.025-.306-.278.012-1.452.015-2.906,0-4.358-.005-.384.251-.248.429-.261s.389-.07.384.271c-.02,1.216,0,2.432-.015,3.648,0,.278.07.368.346.344a5.584,5.584,0,0,1,.893,0c.258.02.344-.056.337-.321-.017-.669.012-1.341-.012-2.011-.012-.316.133-.337.379-.326.231.01.456-.033.409.331a5.609,5.609,0,0,0-.008.748Zm0,1.575h1.173a1.072,1.072,0,0,0,1.191-1.406.755.755,0,0,0-1.069-.634,1.293,1.293,0,0,0-.582.386,2.981,2.981,0,0,0-.712,1.654Z" transform="translate(-319.55 -38.456)" fill="#2d2961"/>
        <path id="Path_16" data-name="Path 16" d="M381.025,60.605c-1.665,0-3.327.03-4.99-.012a1.422,1.422,0,0,1-1.5-1.617,1.619,1.619,0,0,1,1.5-1.687,4.068,4.068,0,0,1,1.474.128.31.31,0,0,1,.265.363c-.012.634.01,1.266-.012,1.9-.01.276.088.321.337.318q1.4-.022,2.8,0c.253.005.341-.048.331-.318-.023-.682.01-1.366-.012-2.048-.015-.4.256-.266.45-.286.22-.025.373-.007.363.3-.023.695,0,1.392-.012,2.086,0,.208.053.271.266.268q1.4-.019,2.8,0c.21,0,.273-.056.271-.271-.012-.695.012-1.392-.012-2.086-.015-.394.241-.281.444-.3.22-.02.368-.007.361.3-.022.893-.015,1.787,0,2.683,0,.238-.05.316-.306.313-1.6-.012-3.206-.007-4.807-.007a.094.094,0,0,1,0-.025ZM377,58.993h0v-.745c0-.112.017-.22-.133-.268-.7-.218-1.384-.1-1.527.772A1,1,0,0,0,376.394,60c.6.025.6.025.6-.559v-.446Z" transform="translate(-280.879 -43.07)" fill="#2d2961"/>
        <path id="Path_17" data-name="Path 17" d="M488.475,8.2a3.821,3.821,0,0,0-.225,1.121,1.32,1.32,0,0,0,1.321,1.519c1,.128,1,.123,1-.86,0-.459.015-.92-.01-1.376-.017-.326.108-.429.424-.446a6.6,6.6,0,0,1,1.259-.05,1.284,1.284,0,0,1,1.278,1.437c.01.346.012.695,0,1.043-.01.215.065.278.276.266.394-.022.91.128,1.154-.067s.065-.742.078-1.133.017-.795,0-1.191c-.017-.358.225-.276.424-.281s.394-.043.386.281c-.01.9.005,1.811.025,2.718.005.238-.056.326-.311.323-.832-.015-1.662-.015-2.494,0-.243,0-.328-.073-.318-.318.017-.484.012-.968.005-1.452-.012-.777-.281-1.018-1.053-.985-.246.01-.346.078-.337.346.02.682-.005,1.366.015,2.048.007.276-.075.379-.356.366a11.073,11.073,0,0,1-2.038-.112,1.816,1.816,0,0,1-1.51-2.162c.01-.085.017-.173.028-.258C487.567,8.292,487.735,8.157,488.475,8.2Z" transform="translate(-365.472 -6.221)" fill="#14a89c"/>
        <path id="Path_18" data-name="Path 18" d="M352.916,9.88c0,.421-.022.844.007,1.266.025.346-.108.416-.429.4-.557-.028-1.116,0-1.675-.007-.2,0-.281.07-.316.268a1.631,1.631,0,0,1-1.6,1.472,8.5,8.5,0,0,1-1.264-.01c-.414-.022-.286-.306-.281-.532.005-.316.22-.148.344-.133a3.049,3.049,0,0,0,1.434-.037.881.881,0,0,0,.6-.77c.03-.191-.04-.271-.241-.266a8.069,8.069,0,0,1-.817-.028,1.4,1.4,0,0,1-1.406-1.4,1.65,1.65,0,0,1,1.214-1.88,3.757,3.757,0,0,1,1.765.09.289.289,0,0,1,.251.337c-.012.657.005,1.316-.01,1.973-.005.233.065.3.294.291.358-.02.719-.025,1.078-.01.215.01.268-.06.266-.268-.012-.695.017-1.392-.012-2.081-.017-.366.188-.318.416-.328s.406,0,.394.321c-.023.446-.005.893-.005,1.339C352.918,9.88,352.918,9.88,352.916,9.88Zm-3.159.06h0V9.158c0-.1.012-.188-.1-.256a1.087,1.087,0,0,0-1.51.489,1.374,1.374,0,0,0,0,.913,1.13,1.13,0,0,0,1.447.589c.381-.1.075-.489.16-.731a.737.737,0,0,0,0-.222Z" transform="translate(-260.444 -6.269)" fill="#14a89c"/>
        <path id="Path_19" data-name="Path 19" d="M376.029,6.144a1.888,1.888,0,0,1-.306-1.136,1.622,1.622,0,0,1,1.218-1.55,2.159,2.159,0,0,1,1.249.038,1.242,1.242,0,0,1,.85,1.235c.03.607.007,1.216.015,1.825,0,.186-.085.236-.251.236h-4.694c-.183,0-.231-.09-.231-.256V2.065c0-.406.321-.188.5-.231.213-.05.306.04.3.281-.01,1.228.005,2.46-.012,3.688-.005.278.06.373.346.349C375.329,6.123,375.64,6.144,376.029,6.144Zm2.246-.76a2.762,2.762,0,0,0-.07-.807.7.7,0,0,0-.637-.532.889.889,0,0,0-1.041.85,1,1,0,0,0,.848,1.246C378.24,6.259,378.271,6.236,378.275,5.384Z" transform="translate(-280.386 -1.517)" fill="#14a89c"/>
        <path id="Path_20" data-name="Path 20" d="M267.68,55.366a1.757,1.757,0,0,1,2.041-2.66,1.163,1.163,0,0,1,.922,1,14.917,14.917,0,0,1,.062,2.116c.007.258-.2.173-.321.173q-1.989.007-3.982,0c-.83,0-.83,0-.83-.817,0-1.254.007-2.5-.005-3.758,0-.258.056-.366.326-.323.215.033.489-.112.476.334-.033,1.2,0,2.407-.012,3.61,0,.261.065.344.328.326C267.006,55.348,267.33,55.366,267.68,55.366Zm2.222-.692c0-.253.017-.454,0-.652a.731.731,0,0,0-.722-.75.849.849,0,0,0-.933.579,1.175,1.175,0,0,0,.261,1.271,1.482,1.482,0,0,0,1.316.2c.21-.047.047-.462.078-.652Z" transform="translate(-199.231 -38.439)" fill="#2d2961"/>
        <path id="Path_21" data-name="Path 21" d="M464.436,10.2c0,.421-.015.844,0,1.266a1.648,1.648,0,0,1-1.542,1.805,6.293,6.293,0,0,1-1.374,0c-.384-.02-.276-.289-.273-.511.005-.3.2-.165.341-.15a3.115,3.115,0,0,0,1.434-.03.869.869,0,0,0,.612-.765c.022-.191-.03-.276-.233-.276a8.1,8.1,0,0,1-.855-.038,1.423,1.423,0,0,1-1.371-1.512,1.631,1.631,0,0,1,1.259-1.773,3.859,3.859,0,0,1,1.765.112.269.269,0,0,1,.236.311C464.428,9.158,464.436,9.68,464.436,10.2Zm-.782-.3h-.007a5.306,5.306,0,0,1,.005-.632c.04-.323-.141-.424-.4-.444-.4-.033-.8-.056-1.069.337a1.242,1.242,0,0,0-.1,1.206,1.156,1.156,0,0,0,1.412.532c.373-.105.088-.492.163-.737A.922.922,0,0,0,463.653,9.9Z" transform="translate(-345.791 -6.273)" fill="#14a89c"/>
        <path id="Path_22" data-name="Path 22" d="M358.538,59.356V60.62a1.556,1.556,0,0,1-1.35,1.682,4.218,4.218,0,0,1-1.625,0c-.346-.062-.128-.337-.148-.511-.023-.208.15-.138.263-.118a3.74,3.74,0,0,0,1.294.038.909.909,0,0,0,.807-.8c.03-.2-.012-.294-.243-.286a5.737,5.737,0,0,1-.927-.043,1.428,1.428,0,0,1-1.286-1.474,1.631,1.631,0,0,1,1.281-1.787,3.725,3.725,0,0,1,1.692.105.281.281,0,0,1,.246.331C358.528,58.29,358.538,58.824,358.538,59.356ZM357.791,59v-.782c0-.083.007-.163-.088-.225a1.12,1.12,0,0,0-1.534.521A1.051,1.051,0,0,0,357.192,60c.6.025.6.025.6-.557,0-.148,0-.3,0-.447Z" transform="translate(-266.478 -43.068)" fill="#2d2961"/>
        <path id="Path_23" data-name="Path 23" d="M232.185,57.42a2.834,2.834,0,0,0-.243,1.437,1.163,1.163,0,0,0,1.028,1.181,2.947,2.947,0,0,0,.664.07c1.166,0,2.332-.01,3.5.005.278,0,.384-.05.373-.356-.025-.669.007-1.341-.015-2.011-.012-.358.21-.281.414-.289s.386-.045.379.281c-.022.9-.012,1.81-.005,2.718,0,.2-.04.291-.263.289-1.65-.025-3.3.045-4.95-.04a1.817,1.817,0,0,1-1.85-1.326,3.245,3.245,0,0,1,.02-1.512c.056-.243.165-.366.421-.371A3.568,3.568,0,0,0,232.185,57.42Z" transform="translate(-173.434 -43.181)" fill="#2d2961"/>
        <path id="Path_24" data-name="Path 24" d="M542.2,59.55c-.04.311.158.765-.078.99-.215.21-.662.05-1.006.056a6.811,6.811,0,0,1-.815-.03,1.421,1.421,0,0,1-1.424-1.537,1.658,1.658,0,0,1,1.249-1.744,2.354,2.354,0,0,1,1.106.022,1.192,1.192,0,0,1,.905.978A7.365,7.365,0,0,1,542.2,59.55Zm-.765-.3c-.015-.233-.012-.471-.048-.7a.722.722,0,0,0-.675-.675.9.9,0,0,0-1.037.855,1,1,0,0,0,.96,1.231c.775.065.775.065.8-.709Z" transform="translate(-404.011 -43.039)" fill="#2d2961"/>
        <path id="Path_25" data-name="Path 25" d="M233.715,10.336c0,.286-.012.571.005.858.012.228-.04.341-.3.326-.521-.028-1.043-.005-1.562-.043a1.438,1.438,0,0,1-1.457-1.65,1.637,1.637,0,0,1,1.492-1.695,2.622,2.622,0,0,1,.74.04A1.229,1.229,0,0,1,233.7,9.4c.017.308,0,.622,0,.93l.01,0Zm-.755-.208a3.58,3.58,0,0,0-.05-.724c-.088-.321-.233-.569-.594-.624a.891.891,0,0,0-.97.394,1.174,1.174,0,0,0-.02,1.237.964.964,0,0,0,.91.464C232.96,10.888,232.96,10.89,232.96,10.128Z" transform="translate(-172.875 -6.244)" fill="#14a89c"/>
        <path id="Path_26" data-name="Path 26" d="M354.048,176.881c-.662-.112-1.319-.228-1.976-.334-.16-.025-.236-.07-.233-.253q.011-1.527,0-3.054c0-.186.07-.22.239-.231.935-.048.927-.053,1.1.86a14.413,14.413,0,0,0,.767,2.635A.731.731,0,0,1,354.048,176.881Z" transform="translate(-263.871 -129.777)" fill="#2d2961"/>
        <path id="Path_27" data-name="Path 27" d="M246.231,10.32c0-.571.01-1.143-.005-1.713-.007-.3.2-.238.354-.225s.45-.141.444.21a33.3,33.3,0,0,1-.065,3.643,1.3,1.3,0,0,1-1.4,1.211c-.16.005-.323-.012-.484,0-.3.022-.418-.083-.373-.406.033-.225.065-.281.316-.233.807.16,1.168-.136,1.2-.963.017-.506,0-1.018,0-1.527Z" transform="translate(-183.59 -6.423)" fill="#14a89c"/>
        <path id="Path_28" data-name="Path 28" d="M581.029,11.375c-.409,0-.817-.012-1.226.005-.263.01-.263-.138-.263-.328s.02-.328.273-.321c.531.015,1.069-.01,1.6.01.263.01.316-.085.286-.323a1.972,1.972,0,0,0-1.409-1.74c-.414-.138-.173-.354-.15-.544.035-.3.236-.178.386-.123,1.5.532,1.988,1.514,1.986,3.15,0,.193-.093.22-.253.218-.409-.007-.817,0-1.226-.005Z" transform="translate(-434.48 -6.107)" fill="#14a89c"/>
        <path id="Path_29" data-name="Path 29" d="M265.891,11.37c-.394,0-.795-.007-1.191,0-.21.007-.294-.067-.271-.278.017-.181-.04-.381.266-.371.534.015,1.069-.01,1.6.007.281.01.328-.1.3-.349a1.956,1.956,0,0,0-1.4-1.71c-.45-.148-.178-.373-.148-.566.045-.306.243-.136.389-.088,1.579.519,1.991,1.68,1.969,3.154,0,.183-.108.2-.243.2H265.89Z" transform="translate(-198.375 -6.097)" fill="#14a89c"/>
        <path id="Path_30" data-name="Path 30" d="M574.557,60.511c-.394,0-.795-.017-1.188.005-.281.015-.256-.148-.253-.328s-.017-.334.258-.321c.519.022,1.043-.017,1.56.015.321.02.337-.118.3-.363a1.906,1.906,0,0,0-1.384-1.672c-.386-.123-.218-.326-.173-.537.062-.306.256-.188.424-.128,1.539.559,1.963,1.595,1.926,3.144-.005.186-.112.188-.243.186C575.374,60.508,574.966,60.511,574.557,60.511Z" transform="translate(-429.666 -42.947)" fill="#2d2961"/>
        <path id="Path_31" data-name="Path 31" d="M555.626,59.453c0,.534.012,1.069,0,1.6a1.588,1.588,0,0,1-2.164,1.462c-.291-.1-.1-.306-.105-.466-.007-.178.093-.2.243-.158a1.823,1.823,0,0,0,.4.056.707.707,0,0,0,.8-.654,4.132,4.132,0,0,0,.06-.7q.007-1.3,0-2.608c0-.268-.05-.484.374-.489.441,0,.394.228.394.506C555.621,58.485,555.626,58.97,555.626,59.453Z" transform="translate(-414.82 -43.239)" fill="#2d2961"/>
        <path id="Path_32" data-name="Path 32" d="M570.249,4.279c0-.707.01-1.414-.005-2.121-.005-.248.08-.349.318-.306.2.035.494-.13.492.294-.012,1.452-.015,2.9,0,4.355.005.376-.228.294-.442.311-.251.02-.384-.03-.373-.337C570.263,5.743,570.249,5.011,570.249,4.279Z" transform="translate(-427.511 -1.538)" fill="#14a89c"/>
        <path id="Path_33" data-name="Path 33" d="M588.966,53.576c0,.719-.017,1.439.008,2.159.01.311-.146.323-.361.294-.188-.025-.456.128-.45-.281.017-1.439.02-2.879,0-4.317-.005-.358.2-.3.4-.294s.423-.085.414.281C588.948,52.135,588.966,52.856,588.966,53.576Z" transform="translate(-440.941 -38.467)" fill="#2d2961"/>
        <path id="Path_34" data-name="Path 34" d="M258.074,4.333c0-.719.017-1.439-.007-2.156-.012-.328.158-.326.389-.316.21.007.409-.045.4.3-.017,1.437-.02,2.876,0,4.312.007.431-.268.3-.492.334-.266.038-.306-.093-.3-.321.01-.719.005-1.437.005-2.156Z" transform="translate(-193.61 -1.55)" fill="#14a89c"/>
        <path id="Path_35" data-name="Path 35" d="M479.091,4.357c0,.707-.023,1.414.01,2.119.015.351-.158.337-.4.337s-.394,0-.394-.321c.017-1.424.023-2.848,0-4.275-.005-.373.181-.344.431-.356.266-.012.368.045.358.341C479.072,2.919,479.087,3.636,479.091,4.357Z" transform="translate(-358.631 -1.55)" fill="#08a79b"/>
        <path id="Path_36" data-name="Path 36" d="M280.512,4.367c0,.719-.01,1.439.005,2.159.005.268-.112.321-.334.289-.2-.028-.459.108-.454-.289q.023-2.178,0-4.355c-.005-.394.258-.266.454-.291.22-.028.337.022.331.291-.017.731-.005,1.462-.005,2.194Z" transform="translate(-209.841 -1.561)" fill="#0ba79b"/>
        <path id="Path_37" data-name="Path 37" d="M471.536,53.574c0-.719.017-1.439-.007-2.156-.012-.328.178-.286.373-.278s.416-.1.411.276c-.02,1.452-.017,2.9,0,4.353.005.394-.256.241-.429.256s-.366.065-.354-.256c.028-.731.01-1.462.007-2.194Z" transform="translate(-353.55 -38.47)" fill="#292360"/>
        <path id="Path_38" data-name="Path 38" d="M567.481,53.555c0,.719-.02,1.442.007,2.159.012.356-.2.3-.4.3s-.4.056-.394-.3q.034-2.159,0-4.32c-.005-.337.188-.278.376-.273s.431-.1.418.271C567.466,52.116,567.481,52.835,567.481,53.555Z" transform="translate(-424.854 -38.453)" fill="#292360"/>
        <path id="Path_39" data-name="Path 39" d="M453.181,99.825a.94.94,0,0,0-.587-.153c-1.462.007-2.929.01-4.393,0-.289,0-.381.075-.381.373q.011,10.817,0,21.633c0,.268.06.394.351.363a4.534,4.534,0,0,1,.521.005,4.111,4.111,0,0,1-.762.133c-.143.038-.2-.03-.2-.178s0-.273,0-.409q0-10.805-.01-21.61c0-.344.1-.4.411-.4,1.59.015,3.179.007,4.769.005C453.073,99.587,453.254,99.559,453.181,99.825Z" transform="translate(-335.717 -74.772)" fill="#2d2961"/>
        <path id="Path_40" data-name="Path 40" d="M543.043,50.7h-.595c-.118,0-.266.035-.248-.169.012-.136-.06-.323.2-.291.088.01.105-.01.1-.118a.87.87,0,0,1,1.168-.861c.112.028.15.07.13.169s.017.266-.16.289a2.914,2.914,0,0,1-.3.005c-.15,0-.273.048-.289.22s.12.238.251.271a1.294,1.294,0,0,0,.368.022c.173-.007.271.02.271.236s-.108.236-.276.231C543.461,50.689,543.251,50.7,543.043,50.7Z" transform="translate(-406.501 -37.034)" fill="#2d2961"/>
        <path id="Path_41" data-name="Path 41" d="M412.955,50.658c-.2,0-.394.007-.594,0-.093-.005-.258.067-.246-.123.007-.128-.112-.356.186-.337.148.01.1-.1.1-.178a.9.9,0,0,1,1.211-.8c.123.043.112.118.088.2s.043.243-.13.261a1.527,1.527,0,0,1-.186,0c-.193-.007-.421-.005-.414.248.005.228.233.251.421.273s.506-.133.456.3c-.015.133-.065.169-.183.165C413.424,50.655,413.191,50.658,412.955,50.658Z" transform="translate(-309.02 -36.996)" fill="#2d2961"/>
        <path id="Path_42" data-name="Path 42" d="M398.381,73.039a.43.43,0,0,1-.005.858.394.394,0,0,1-.429-.442.406.406,0,0,1,.434-.416Z" transform="translate(-298.418 -54.884)" fill="#2d2961"/>
        <path id="Path_43" data-name="Path 43" d="M243.2,52.55a.426.426,0,1,1,0,.853.388.388,0,0,1-.418-.418.4.4,0,0,1,.418-.434Z" transform="translate(-182.16 -39.532)" fill="#2d2961"/>
        <path id="Path_44" data-name="Path 44" d="M515.339,24.428c-.017.246-.105.429-.389.444-.3.015-.426-.173-.434-.434a.384.384,0,0,1,.406-.429.39.39,0,0,1,.416.418Z" transform="translate(-385.76 -18.147)" fill="#14a89c"/>
        <path id="Path_45" data-name="Path 45" d="M364.758,3.217a.394.394,0,0,1-.439.394.377.377,0,0,1-.4-.429.4.4,0,0,1,.436-.414.407.407,0,0,1,.406.45Z" transform="translate(-272.918 -2.231)" fill="#14a89c"/>
        <path id="Path_46" data-name="Path 46" d="M296.643,24.45c-.038.241-.13.424-.416.416s-.414-.178-.409-.45a.379.379,0,0,1,.424-.406.407.407,0,0,1,.4.44Z" transform="translate(-221.896 -18.146)" fill="#14a89c"/>
        <path id="Path_47" data-name="Path 47" d="M495.248,24.594c-.025.273-.16.429-.424.426a.415.415,0,1,1,.424-.426Z" transform="translate(-370.686 -18.283)" fill="#14a89c"/>
        <path id="Path_48" data-name="Path 48" d="M519.68,24.472c-.033.225-.125.4-.411.406-.3.005-.421-.163-.421-.439a.366.366,0,0,1,.379-.411.416.416,0,0,1,.454.444Z" transform="translate(-389.005 -18.162)" fill="#14a89c"/>
        <path id="Path_49" data-name="Path 49" d="M402.682,73.069a.407.407,0,0,1,.434.414.386.386,0,0,1-.4.436.377.377,0,0,1-.426-.409.394.394,0,0,1,.4-.442Z" transform="translate(-301.669 -54.907)" fill="#2d2961"/>
        <path id="Path_50" data-name="Path 50" d="M495.236,29a.394.394,0,0,1-.429.394.384.384,0,0,1-.424-.409c0-.289.16-.421.444-.414C495.1,28.578,495.219,28.726,495.236,29Z" transform="translate(-370.674 -21.565)" fill="#14a89c"/>
        <path id="Path_51" data-name="Path 51" d="M369.059,3.2a.37.37,0,0,1-.426.4.389.389,0,0,1-.406-.394.425.425,0,0,1,.434-.45.406.406,0,0,1,.4.445Z" transform="translate(-276.149 -2.216)" fill="#14a89c"/>
        <path id="Path_52" data-name="Path 52" d="M300.516,24.93a.4.4,0,0,1-.429-.421.373.373,0,0,1,.4-.421.383.383,0,0,1,.434.431.39.39,0,0,1-.409.411Z" transform="translate(-225.094 -18.205)" fill="#14a89c"/>
        <path id="Path_53" data-name="Path 53" d="M247.1,52.947a.374.374,0,0,1,.406-.394.417.417,0,1,1,.012.835.388.388,0,0,1-.418-.441Z" transform="translate(-185.39 -39.533)" fill="#2d2961"/>
        <path id="Path_54" data-name="Path 54" d="M134.8,20c.005-.07-.007-.178.093-.163a.246.246,0,0,1,.2.238c.007.078-.012.16-.112.158C134.84,20.227,134.8,20.122,134.8,20Z" transform="translate(-101.25 -15.02)" fill="#08a79b"/>
        <path id="Path_55" data-name="Path 55" d="M136.867,19.819c-.035.075-.085.15-.178.153s-.083-.07-.08-.133a.121.121,0,0,1,.143-.123C136.817,19.718,136.872,19.735,136.867,19.819Z" transform="translate(-102.605 -14.931)" fill="#08a79b"/>
        <path id="Path_56" data-name="Path 56" d="M53.41,1.119C53.41.959,53.4.8,53.4.636Q27.364.637,1.333.63C1.052.63.99.7.99.974Q1,27.007,1,53.037c.16.005.323.012.484.012q25.744,0,51.487.007c.361,0,.45-.088.45-.45Q53.406,26.869,53.41,1.119ZM47.074,8.881c.1-.173.263-.13.416-.062.012.048.025.1.038.141a1.424,1.424,0,0,1-.005.148.1.1,0,0,0-.02.067.286.286,0,0,1-.4.012A.247.247,0,0,1,47.074,8.881Zm-.8-.2a.047.047,0,0,0,.048-.022c.075,0,.15-.005.225-.005a.088.088,0,0,0,.065.015c.115.148.181.3.015.45a.236.236,0,0,1-.331.01c-.178-.139-.131-.292-.022-.45Zm.268,1.6a.249.249,0,0,1-.3-.065c-.108-.105-.05-.225-.04-.344a.042.042,0,0,0,.043-.025l.085-.06v.005c.165,0,.326.012.356.225A.237.237,0,0,1,46.538,10.283Zm-.69.337a.4.4,0,0,1-.065.421h-.276c-.155-.386-.09-.466.337-.421C45.84,10.625,45.848,10.62,45.848,10.62ZM45.4,9.3a.212.212,0,0,1,.258-.09.225.225,0,0,1,.163.289.625.625,0,0,1-.112.186l-.005.005a.74.74,0,0,1-.243-.065A.219.219,0,0,1,45.4,9.3Zm-.426.484c.181.05.173.21.183.356l-.053.13a.776.776,0,0,1-.421.02h0c-.065-.143-.146-.289-.012-.439a.29.29,0,0,1,.3-.067Zm-.521-1.133a.094.094,0,0,0,.062.02c.078.141.146.289.028.436s-.281.085-.431.048c-.141-.4-.085-.476.341-.5Zm-.231,2.618a.295.295,0,0,1-.313.294c-.2-.005-.323-.1-.311-.321a.291.291,0,0,1,.3-.3c.193,0,.3.129.321.332Zm-.61-1.036c.15-.01.186.085.2.21,0,.133-.085.191-.21.186a.177.177,0,0,1-.186-.186.183.183,0,0,1,.2-.21Zm-.3-.506V9.73c.02.165.09.346-.093.464a.412.412,0,0,1-.474-.06V9.745a.46.46,0,0,1,.567-.02Zm-1.612,1.486c.056-.05.115-.1.169-.153a.681.681,0,0,1,.559.138.738.738,0,0,1-.017.579h-.005c-.188.08-.381.181-.579.035-.215-.158-.169-.379-.125-.6Zm-1.627.155.15-.138a1.108,1.108,0,0,1,.256-.012.307.307,0,0,1,.248.358.281.281,0,0,1-.266.3.325.325,0,0,1-.384-.215,1.041,1.041,0,0,1-.005-.294Zm-.963,1.2c.193,0,.3.143.337.334a.323.323,0,0,1-.337.321.285.285,0,0,1-.334-.3.3.3,0,0,1,.334-.352Zm-.373,3.4c-.251.155-.442.038-.612-.153l-.022-.143c.13-.429.243-.481.731-.337l-.005.017c.093.225.174.45-.092.619Zm.1,1.406a.524.524,0,0,1-.554.065c-.06-.228-.153-.479.183-.566.271-.072.4.116.371.5Zm-.865-5.906c.028-.035.053-.073.08-.108l.005.007c.118-.022.22-.112.351-.07.215.07.346.22.271.442-.112.326-.358.313-.624.193,0,0,0,.007-.005.007-.028-.035-.053-.073-.08-.108v-.363Zm-.08,8.61a.95.95,0,0,1-.09.2h0c-.062.005-.123.015-.186.015a.272.272,0,0,1-.3-.334.265.265,0,0,1,.311-.251.281.281,0,0,1,.263.368Zm-5.062.228a.333.333,0,0,1-.434-.073.325.325,0,0,1-.03-.409.328.328,0,0,1,.416-.136.9.9,0,0,1,.231.169c0,.093,0,.186.005.278a.853.853,0,0,1-.188.169Zm.286,3.691a.241.241,0,0,1,.281.236c-.012.128-.065.231-.218.238s-.271-.048-.278-.22a.225.225,0,0,1,.215-.254Zm-.614-5.123a.3.3,0,0,1-.346-.341.3.3,0,0,1,.294-.334c.3,0,.386.146.384.361a.295.295,0,0,1-.331.313Zm-.622,8.6a.356.356,0,0,1,.394-.256c.138.01.215.105.313.175a.066.066,0,0,0,.015.06c-.01.146.012.3-.123.406a.367.367,0,0,1-.446.025.325.325,0,0,1-.154-.411Zm-.143-4.618c.005-.173.13-.253.3-.248a.236.236,0,0,1,.248.261.259.259,0,0,1-.289.273.263.263,0,0,1-.263-.286Zm.549,2.953a.337.337,0,0,1-.371-.366.332.332,0,0,1,.349-.384.376.376,0,1,1,.022.75Zm.373-4.047h-.328a.458.458,0,0,1-.115-.341.259.259,0,0,1,.318-.233c.253.03.268.213.248.414l.007.015c-.042.05-.087.1-.132.145Zm.494,4.508a.513.513,0,0,1,.474.484.479.479,0,0,1-.471.439.461.461,0,1,1,0-.922Zm.379-3.38a.217.217,0,0,1,.238-.225c.163,0,.251.073.256.225-.007.178-.09.258-.256.256a.225.225,0,0,1-.237-.254Zm.429-4.668c.043-.01.085-.017.125-.028h.225a.091.091,0,0,0,.067.015c.15.169.251.351.073.552a.321.321,0,0,1-.464.05c-.231-.176-.128-.386-.026-.588Zm0,1.787a.316.316,0,0,1,.354-.337.323.323,0,0,1,.349.349c.005.225-.138.326-.354.341A.331.331,0,0,1,33.968,20Zm.574-4.283a.418.418,0,0,1,.434-.459.442.442,0,0,1,.45.418c-.035.306-.178.474-.461.464a.4.4,0,0,1-.419-.424Zm1.038-2.806c.007.025.012.048.02.073v.224a.355.355,0,0,1-.371.21c-.173-.125-.306-.281-.16-.489s.341-.145.514-.019Zm-.454-2.25a.251.251,0,0,1,.248-.289c.178.007.286.083.291.266a.242.242,0,0,1-.256.286.249.249,0,0,1-.281-.265Zm.394,6.05a.337.337,0,0,1,.356.384.351.351,0,1,1-.7.01.337.337,0,0,1,.349-.394Zm.013,6.05c.088.007.125.07.125.155a.129.129,0,0,1-.146.13.131.131,0,0,1-.143-.136.133.133,0,0,1,.166-.152Zm.06-4.2.01-.007c.056-.12.093-.266.278-.238a.206.206,0,0,1,.175.115c.07.16-.023.256-.138.337l-.022-.005-.017.015a1.075,1.075,0,0,1-.128-.01v0c-.052-.072-.1-.145-.156-.215Zm.169,1.261-.012-.022.025.01a.821.821,0,0,1,.215-.028.2.2,0,0,1,.186.231.193.193,0,0,1-.186.193.2.2,0,0,1-.246-.165.927.927,0,0,1,.022-.22Zm.158-5.05-.186-.015h0a.863.863,0,0,1-.141-.165.444.444,0,0,1,.06-.577.409.409,0,0,1,.506-.083.431.431,0,0,1,.218.506.4.4,0,0,1-.454.331Zm.446-2.655a.317.317,0,0,1-.331-.243.365.365,0,0,1,.552-.406,1.14,1.14,0,0,1,.178.186.578.578,0,0,1-.141.431,1.548,1.548,0,0,1-.254.03Zm.389,3.262c.183,0,.253.125.276.294-.033.158-.118.286-.291.271a.273.273,0,0,1-.256-.308.262.262,0,0,1,.276-.256Zm.487,1.259a.408.408,0,0,1,.431.411.37.37,0,0,1-.394.431.375.375,0,0,1-.436-.394.406.406,0,0,1,.4-.45Zm.005,1.575c.078,0,.158,0,.236.005.231.281.22.514-.03.574-.13.033-.281.038-.354-.112a.337.337,0,0,1,.152-.467Zm.236-3.686a.262.262,0,0,1-.276-.281c-.007-.206.112-.291.3-.294a.27.27,0,0,1,.286.261c-.018.2-.1.321-.3.314Zm-.06-4.438a.35.35,0,0,1,.366.381.337.337,0,0,1-.358.344.323.323,0,0,1-.371-.326c0-.281.142-.4.368-.4Zm-.379,2.542a.4.4,0,0,1,.481.056.379.379,0,0,1,.093.442.371.371,0,0,1-.416.233,1.431,1.431,0,0,1-.281-.088h0c-.091-.24-.166-.488.127-.643Zm-.209-3.2a1.476,1.476,0,0,1-.073.248l.015.015-.015-.015a1.39,1.39,0,0,1-.243.083A.394.394,0,0,1,36.03,9.4a.386.386,0,0,1,.406-.429.394.394,0,0,1,.394.471Zm-.65-2.718a.354.354,0,0,1,.386.4.337.337,0,0,1-.381.361A.346.346,0,0,1,35.8,7.13a.354.354,0,0,1,.384-.4Zm-.464,1.687a.373.373,0,0,1-.418.376.355.355,0,0,1-.361-.394.39.39,0,1,1,.78.015Zm-.549-2.507a.3.3,0,0,1,.328.318.309.309,0,0,1-.331.356c-.22,0-.341-.112-.344-.231,0-.341.128-.444.346-.442Zm-.521,6.131c-.056.215-.225.238-.406.225-.022-.007-.045-.017-.067-.025a.207.207,0,0,0-.017-.033.337.337,0,0,1,.035-.469.241.241,0,0,1,.337-.025.3.3,0,0,1,.119.329Zm-.344-2.1a.23.23,0,0,1-.266-.241.251.251,0,0,1,.281-.273c.16,0,.238.105.243.263a.232.232,0,0,1-.258.253Zm-.336-2.348a.265.265,0,0,1,.349-.191,1.012,1.012,0,0,1,.2.088h.005a.809.809,0,0,1-.005.22.276.276,0,0,1-.373.2.248.248,0,0,1-.176-.321Zm.286,6.434a.366.366,0,0,1,.414.394.42.42,0,0,1-.84.023.375.375,0,0,1,.426-.416Zm-.078,3.084a.346.346,0,0,1-.361.381.39.39,0,1,1,.361-.381Zm-.549-3.7v.005c-.04.03-.078.06-.12.088a.272.272,0,0,1-.434-.112.249.249,0,0,1,.178-.376.276.276,0,0,1,.373.251.928.928,0,0,1,0,.145ZM33.6,10.98a.309.309,0,0,1-.326.334.316.316,0,0,1-.334-.328.29.29,0,0,1,.268-.323C33.485,10.661,33.61,10.78,33.6,10.98ZM33.083,8.5c.233-.005.337.123.349.349a.338.338,0,1,1-.675-.025.3.3,0,0,1,.326-.323Zm.085,6.81a.459.459,0,0,1,.466.471.476.476,0,1,1-.95-.03C32.692,15.443,32.878,15.315,33.168,15.31Zm-.5-.647a1.265,1.265,0,0,1-.088.241l.015.022-.017-.02a2.045,2.045,0,0,1-.21.065.382.382,0,0,1-.454-.225.365.365,0,0,1,.065-.442.4.4,0,0,1,.506-.083.371.371,0,0,1,.181.441Zm-.064-2.387a.366.366,0,0,1-.731-.015.332.332,0,0,1,.354-.349.327.327,0,0,1,.373.363Zm-.549-2.49a.3.3,0,0,1,.337.337c-.01.236-.12.351-.351.337a.314.314,0,0,1-.326-.361.307.307,0,0,1,.337-.313ZM32,16.794c.225-.02.334.12.371.337a.33.33,0,0,1-.351.337.3.3,0,0,1-.341-.308A.312.312,0,0,1,32,16.794ZM24.99,33.4c-.056.05-.115.1-.175.15-.038.007-.075.012-.112.02l-.294-.015h0a.5.5,0,0,1-.218-.612c.083-.238.289-.281.506-.281l.12.028c.053.048.105.1.158.141h0a1.025,1.025,0,0,1,0,.577.036.036,0,0,1,.015-.007Zm-6.108-.368h0c-.148.083-.3.133-.426-.025a.225.225,0,0,1-.005-.3c.13-.153.281-.1.434-.022a.1.1,0,0,0,.017.06c-.007.1-.015.193-.02.291Zm-2.826.08-.017-.015a.937.937,0,0,1-.169.062c-.186.033-.321-.03-.344-.231a.244.244,0,0,1,.241-.3.253.253,0,0,1,.3.286,1.487,1.487,0,0,1-.025.181c0,.005.014.02.014.02ZM9.264,27.661c.035-.065.06-.133.09-.2h0c.083-.028.16-.06.246-.08a.473.473,0,0,1,.584.273.479.479,0,0,1-.15.629.484.484,0,0,1-.619,0,.464.464,0,0,1-.151-.619Zm-.133-.645a.51.51,0,0,1-.506-.526.522.522,0,0,1,.506-.5.515.515,0,0,1,.516.519.475.475,0,0,1-.516.506Zm1.314,1.568a.38.38,0,0,1,.4.436.388.388,0,0,1-.456.416c-.261-.015-.394-.188-.384-.494a.382.382,0,0,1,.441-.359Zm.632-1.873a.436.436,0,0,1,.589.291c.022.07.035.143.053.213l-.143.3a1.153,1.153,0,0,1-.273.1c-.258.033-.476-.04-.537-.323a.434.434,0,0,1,.31-.579ZM10.849,34.9l.138-.02c.2,0,.373.05.434.266a.4.4,0,0,1-.521.511C10.6,35.554,10.58,35.223,10.849,34.9Zm.514-1.344a.281.281,0,0,1,.341-.3c.2.012.271.146.3.3-.043.21-.146.334-.358.316a.281.281,0,0,1-.281-.322Zm.537-4.689a.378.378,0,0,1-.386-.409.366.366,0,0,1,.421-.4.374.374,0,0,1,.389.4c0,.273-.176.378-.424.406Zm1.323-7.336a1.069,1.069,0,0,1-.112.225H13.1a.81.81,0,0,1-.251-.03.265.265,0,0,1-.136-.371.247.247,0,0,1,.3-.158.256.256,0,0,1,.211.335Zm.246,1.254a.265.265,0,0,1-.112.406c-.228.138-.4-.007-.442-.371a.049.049,0,0,0,.022-.05c.181-.151.371-.219.532.015ZM12.7,25.967a.467.467,0,0,1,.456.519.434.434,0,0,1-.442.424.471.471,0,0,1-.015-.943Zm.346,3.954a.971.971,0,0,1-.218.2L12.6,30.1a1.257,1.257,0,0,1-.188-.175.385.385,0,0,1,.566-.506.372.372,0,0,1,.07.5Zm-.69,1.506a.281.281,0,0,1,.281.3c-.025.228-.136.341-.337.323a.286.286,0,0,1-.276-.321.281.281,0,0,1,.332-.3Zm-.191,4.293a.574.574,0,0,0,.02-.07h0a.659.659,0,0,0,.067-.025c.2-.1.384-.112.519.093a.334.334,0,0,1-.035.442.337.337,0,0,1-.436.07.353.353,0,0,1-.137-.51Zm.431-.795a2.137,2.137,0,0,1-.253-.043h0a1.394,1.394,0,0,1-.136-.256.421.421,0,0,1,.662-.45.4.4,0,0,1,.143.459.379.379,0,0,1-.418.287Zm.261-2.241c-.01-.169.093-.241.266-.246.133.017.248.07.248.243a.238.238,0,0,1-.273.268c-.173,0-.233-.125-.242-.266Zm.22-4.957a.292.292,0,0,1,.326-.318.308.308,0,0,1,.334.354c-.007.2-.136.306-.243.3-.318-.016-.418-.134-.418-.337Zm.592,2.858a.229.229,0,0,1,.236.225c0,.225-.1.3-.258.3a.261.261,0,1,1,.023-.521Zm.213-1.658a.332.332,0,0,1,.358-.337.379.379,0,0,1,.005.757.362.362,0,0,1-.365-.42ZM13.5,35.4c.09-.228.271-.218.506.028,0,.05.005.1.007.148a.039.039,0,0,0-.007.04H14c-.112.123-.238.228-.411.108a.254.254,0,0,1-.087-.326Zm.418-1.695a.253.253,0,0,1,.263-.258c.181-.007.268.1.281.281a.269.269,0,0,1-.286.271.252.252,0,0,1-.26-.3Zm.487-1.815a.259.259,0,0,1,.268-.248.244.244,0,0,1,.268.243,1.272,1.272,0,0,1-.043.286l.012.025-.025-.012a1.027,1.027,0,0,1-.289.017.263.263,0,0,1-.194-.312Zm2.5-2.419c-.108.128-.241.088-.351-.025l-.038-.173c.056-.056.112-.112.169-.163.05.005.1.007.153.012.112.092.169.22.065.345Zm.01-5.164a.235.235,0,0,1,.238-.271.219.219,0,0,1,.256.206c.005.2-.067.3-.236.306S16.924,24.461,16.913,24.3ZM16.5,30.963a.067.067,0,0,0,.017.06c-.01.143.017.3-.178.356a.268.268,0,0,1-.271-.067.236.236,0,0,1-.056-.271c.12-.254.3-.191.486-.078Zm-.146-4.917a.228.228,0,0,1,.261.1.321.321,0,0,1-.053.4c-.112,0-.218,0-.328-.005C16.126,26.337,16.044,26.139,16.351,26.046Zm.273-2.863c-.153,0-.266-.07-.268-.241a.242.242,0,0,1,.268-.278.229.229,0,0,1,.268.238c0,.176-.086.281-.269.281Zm-.082-1.421a.036.036,0,0,0-.04.025c-.146.012-.3.07-.431-.038a.35.35,0,0,1,.256-.619.334.334,0,0,1,.313.316A.552.552,0,0,1,16.542,21.761Zm-.9,8.3a.45.45,0,0,1-.444.484.463.463,0,0,1-.459-.481.424.424,0,0,1,.464-.426.415.415,0,0,1,.439.427ZM15.56,28.1a.2.2,0,0,1,.246-.112.213.213,0,0,1,.169.276,1.041,1.041,0,0,1-.088.2h0a.765.765,0,0,1-.246-.04.228.228,0,0,1-.081-.316Zm-.65-.858a.215.215,0,0,1-.228-.238.2.2,0,0,1,.2-.22c.15-.015.22.08.253.208-.01.153-.084.251-.228.253ZM14.577,22.4c-.141-.118-.1-.263-.02-.4.337-.12.461.022.421.354-.123.092-.258.169-.4.05Zm.341,13.692a.26.26,0,1,1,.028.519.236.236,0,0,1-.281-.261.24.24,0,0,1,.254-.255Zm.276-1.627a.208.208,0,0,1,.3,0c.169.155.062.286-.053.411v.007c-.045,0-.088.005-.133.005a.024.024,0,0,0-.033-.017c-.157-.108-.221-.248-.084-.4Zm1.362.492a.515.515,0,1,1-.494.533.516.516,0,0,1,.494-.533Zm.429-.993a.186.186,0,0,1-.193-.215.178.178,0,0,1,.181-.188.182.182,0,0,1,.21.188c-.01.132-.065.225-.2.22Zm.178-1.969c.04-.2.2-.225.366-.213l0-.007.15.173c0,.06,0,.118.005.178a.312.312,0,0,1-.406.146.225.225,0,0,1-.12-.274Zm.755-6.183a.207.207,0,0,1-.248-.238c0-.138.056-.228.218-.231s.251.073.256.266a.208.208,0,0,1-.225.2Zm-.208,4.656a.044.044,0,0,0-.02-.045c0-.075,0-.15,0-.225a.322.322,0,0,1,.281-.06c.141.292.045.4-.261.332Zm-.15-9.693c-.03-.318.2-.349.434-.344a.046.046,0,0,0,.053.017c.169.331.128.552-.118.587-.2.03-.348-.047-.368-.258Zm.2,14.861c.337,0,.469.173.466.444a.4.4,0,0,1-.444.442.418.418,0,0,1-.439-.454.394.394,0,0,1,.416-.431Zm.261-1.02a.237.237,0,0,1,.06-.271.243.243,0,0,1,.276-.048c.268.133.158.313.045.489v.022l-.015-.017c-.153,0-.306.007-.366-.176Zm.722-10.779h-.007c-.13-.025-.281-.015-.326-.188a.232.232,0,0,1,.062-.241c.141-.12.276-.048.406.035v.273c-.043.04-.088.08-.136.12Zm.271,2.73c.02.108.062.218-.038.308a.225.225,0,0,1-.236.056.2.2,0,0,1-.133-.2c0-.186.136-.208.273-.228a1.309,1.309,0,0,0,.132.065Zm-.516,1.978a.158.158,0,0,1-.141.186.185.185,0,1,1-.05-.366.174.174,0,0,1,.19.181Zm.4,2.5c.146-.043.311-.078.337.125s-.146.169-.276.169c-.108-.079-.073-.189-.063-.294Zm6.127-10.5a.492.492,0,0,1-.622.637l-.03-.007a.569.569,0,0,1-.1-.86h.008C24.576,20.239,24.877,20.172,25.025,20.543Zm-.732-1.257A.26.26,0,0,1,24.563,19c.186,0,.308.078.3.228.01.241-.09.331-.263.341a.262.262,0,0,1-.31-.281Zm4.132-2.277h0a1.176,1.176,0,0,1,.146.253.46.46,0,0,1-.188.557.43.43,0,0,1-.549-.043.442.442,0,0,1-.13-.539.436.436,0,0,1,.506-.281,2.146,2.146,0,0,1,.215.053Zm.685,1.121a1.249,1.249,0,0,1,.21.056c.048.056.1.108.143.163v.439h0a1.5,1.5,0,0,1-.2.16.426.426,0,0,1-.516-.048.4.4,0,0,1-.112-.5.438.438,0,0,1,.474-.266Zm-.155-2.021a.177.177,0,0,1,.2-.178.191.191,0,0,1,.213.2c-.02.125-.085.206-.22.2a.191.191,0,0,1-.188-.225Zm-1.607,5.574-.02-.017c-.258.045-.511.056-.6-.258a.381.381,0,0,1,.169-.456.359.359,0,0,1,.476.05.368.368,0,0,1,.1.469c-.035.065-.08.125-.12.188,0,0,0,.025,0,.025Zm.153,2.75a1.643,1.643,0,0,1,.21-.251h.313a.465.465,0,0,1,.266.484.4.4,0,0,1-.3.341.356.356,0,0,1-.429-.128.377.377,0,0,1-.065-.446Zm.685-1.469h-.112c-.175-.1-.346-.206-.3-.45a.317.317,0,0,1,.294-.281.321.321,0,0,1,.381.21C28.548,22.714,28.4,22.852,28.184,22.965Zm-.311-3.38a.407.407,0,0,1,.286.461.394.394,0,0,1-.368.394.406.406,0,0,1-.494-.331,1.277,1.277,0,0,0-.048-.138v-.022a1.289,1.289,0,0,0,.073-.128.409.409,0,0,1,.552-.236Zm-.341-.675a.45.45,0,0,1-.554.263c-.15-.023-.218-.158-.326-.233h0a.573.573,0,0,1,.386-.727c.056,0,.115.007.169.01.29.143.453.357.326.688Zm-.562-1.923L26.662,17a.35.35,0,0,1-.007-.421c.357-.06.434.1.314.409Zm-.035,5.91a.324.324,0,0,1,.21.416.294.294,0,0,1-.349.253,1.755,1.755,0,0,1-.276-.085.063.063,0,0,0-.038-.06c-.015-.133-.067-.276.025-.394a.354.354,0,0,1,.424-.13Zm-.862,1.845a.381.381,0,0,1,.466-.208,1.918,1.918,0,0,1,.238.085h0a1.443,1.443,0,0,1,.078.243.4.4,0,0,1-.243.454.394.394,0,0,1-.474-.1A.4.4,0,0,1,26.073,24.742Zm-.12-2.7a.07.07,0,0,0-.06.035c-.246.017-.471,0-.6-.258a.527.527,0,0,1,.155-.634.861.861,0,0,1,.571.023.552.552,0,0,1-.065.835Zm.569-1.885a.43.43,0,0,1-.421.306.435.435,0,0,1-.466-.294,1.169,1.169,0,0,1-.038-.328.07.07,0,0,0,.025-.065.515.515,0,0,1,.745-.15.443.443,0,0,1,.155.531Zm-.8-1.5c-.178.007-.281-.062-.286-.253a.255.255,0,0,1,.253-.281c.2.01.291.105.289.281a.24.24,0,0,1-.256.253Zm-.15-1.67c-.175.053-.361.153-.476-.088a.261.261,0,0,1,.038-.311.341.341,0,0,1,.442-.017.758.758,0,0,1,0,.416Zm-.241,5.822a2.264,2.264,0,0,1,.258.03.044.044,0,0,0,.048.033,1.222,1.222,0,0,1,.108.308.385.385,0,0,1-.384.45.412.412,0,1,1-.03-.822Zm-.484,7.091c.056-.3.206-.519.537-.484a.41.41,0,0,1,.384.426.394.394,0,0,1-.3.446c-.311.09-.484-.08-.614-.328a.056.056,0,0,0,0-.06Zm-2.24-6.344h0a1.663,1.663,0,0,1-.225.01c-.13-.01-.153-.108-.155-.213a.2.2,0,0,1,.2-.225.21.21,0,0,1,.231.148c.045.108-.017.191-.05.281Zm-.146,5.366.123.022c.136.181.238.371-.048.5a.225.225,0,0,1-.323-.148c-.067-.218.074-.311.249-.373Zm.218-.91a1.212,1.212,0,0,1-.2-.1l-.056-.1c-.08-.436.022-.65.328-.685a.42.42,0,0,1,.474.21.458.458,0,0,1-.045.524.439.439,0,0,1-.5.143Zm.421-6.835a.232.232,0,0,1,.251.289.237.237,0,0,1-.291.215c-.183-.02-.241-.155-.215-.323a.7.7,0,0,1,.07-.169h0a1.537,1.537,0,0,1,.185-.012Zm.125,5.1c-.206-.005-.361-.1-.361-.337a.328.328,0,0,1,.344-.351c.225.017.354.136.344.358a.306.306,0,0,1-.326.33Zm.637,2.964a.362.362,0,0,1,.394.411c.015.253-.15.373-.386.381a.4.4,0,1,1-.005-.792Zm.371-.795c-.356-.01-.442-.256-.421-.562.017-.007.022-.017.015-.035.358-.354.544-.344.848.048h.005c-.009.3-.083.559-.447.548Zm-.459-5.865a.218.218,0,0,1,.251-.246c.118.005.213.053.225.193.015.16-.048.263-.21.281a1.294,1.294,0,0,1-.218-.015l-.02.017.017-.02a1.294,1.294,0,0,1-.044-.211Zm.7,4.214c-.056-.022-.115-.043-.173-.062l-.02.012.01-.022a1.618,1.618,0,0,1-.06-.215.357.357,0,0,1,.2-.434.368.368,0,0,1,.471.093.394.394,0,0,1-.426.629Zm.5-1.595a.359.359,0,0,1-.384-.4.337.337,0,0,1,.389-.351.323.323,0,0,1,.376.356.349.349,0,0,1-.381.4Zm-.952-7.522A.265.265,0,0,1,24,17.158a.25.25,0,0,1,.278.281.235.235,0,0,1-.261.248Zm-.45-1.73c-.148-.005-.206-.112-.206-.251,0-.158.108-.213.238-.218s.225.075.215.331c0,.056-.091.143-.246.138Zm.01,7.9a.381.381,0,0,1,.444.306.445.445,0,0,1-.714.471.412.412,0,0,1-.115-.534c.03-.067.073-.128.108-.193a.067.067,0,0,0,.056-.038c.074,0,.15-.007.222-.012Zm-.48-5.032a.241.241,0,0,1-.263-.253.259.259,0,0,1,.289-.258.22.22,0,0,1,.236.228.241.241,0,0,1-.261.281Zm-.067,1.035h.007c0,.09,0,.181.005.271h0a.348.348,0,0,1-.429.112.029.029,0,0,0-.033.015c-.035-.078-.07-.153-.105-.231a.271.271,0,0,0,.028-.045.056.056,0,0,0-.01-.025c.134-.265.32-.278.535-.1Zm-.3-3.056c-.045.078-.146.125-.22.186a.664.664,0,0,0-.1.005c-.13-.073-.258-.146-.256-.326a.269.269,0,0,1,.173-.291.3.3,0,0,1,.341.056.289.289,0,0,1,.061.37ZM22.3,25.167a.337.337,0,1,1-.669-.012c-.007-.241.13-.326.328-.354.219.03.347.136.337.366Zm-1.381-4.443a.258.258,0,1,1,.266.286.245.245,0,0,1-.267-.288Zm.213,3.362c0,.186-.08.253-.231.246a.2.2,0,0,1-.213-.2.22.22,0,0,1,.218-.243.205.205,0,0,1,.225.2Zm.15,2.64c.138-.09.281-.163.429-.028s.07.286-.012.426v.007a.439.439,0,0,1-.418-.088c0-.108,0-.215,0-.321Zm.471-4.348a.249.249,0,0,1-.306-.017.3.3,0,0,1-.03-.429.384.384,0,0,1,.424.022c.037.153.084.313-.089.421Zm.1-4.331h0a.751.751,0,0,1-.2.078c-.169.015-.294-.056-.3-.241a.239.239,0,0,1,.256-.286c.191,0,.276.08.268.266,0,.06-.015.123-.02.183Zm-.494.895a.048.048,0,0,1,.056.022c.073.015.085.067.085.13h0a.211.211,0,0,1,0,.308h0l-.073.1a.363.363,0,0,1-.439.088.394.394,0,0,1-.153-.492c.012-.05.025-.1.04-.148a.048.048,0,0,1,.035-.028c.154-.044.3-.112.447.014Zm-.456-2.749a.274.274,0,0,1-.3-.308.3.3,0,1,1,.6.01.267.267,0,0,1-.3.3Zm-.351,10v.015l-.311.017v.007l-.158-.225V25.9c.112-.15.241-.268.431-.148s.112.292.037.45Zm-1.133-1.584a.23.23,0,0,1,.213.253c0,.163-.112.206-.248.2a.192.192,0,0,1-.21-.236.229.229,0,0,1,.244-.221Zm.017-3.452a.362.362,0,0,1,.471.04c.183.178.112.379.007.569a.629.629,0,0,1-.571,0c-.081-.221-.177-.444.092-.61Zm.034,8.026c.2.028.289.141.268.308a.253.253,0,0,1-.276.243.256.256,0,0,1-.268-.286C19.2,29.269,19.336,29.211,19.474,29.186Zm.169-1.431a.247.247,0,0,1,.273-.278c.158.007.233.118.241.3a.233.233,0,0,1-.253.236.245.245,0,0,1-.259-.254Zm.5-4.594a.281.281,0,0,1-.291-.321.259.259,0,0,1,.281-.276c.169.007.253.128.253.3a.256.256,0,0,1-.242.3Zm-.025-5.742a.259.259,0,0,1-.268-.289.244.244,0,0,1,.241-.268.237.237,0,0,1,.281.225c.008.214-.084.331-.253.334Zm-.133.96a.378.378,0,0,1-.1.439.348.348,0,0,1-.376.078.354.354,0,0,1-.248-.368,1.3,1.3,0,0,1,.093-.311l.141-.045a.376.376,0,0,1,.487.21Zm-.593,1.253a.357.357,0,0,1,.45.281.344.344,0,0,1-.238.444.367.367,0,0,1-.471-.188.634.634,0,0,1-.038-.326l.043-.065A.968.968,0,0,1,19.394,19.633ZM19.2,34.784a.49.49,0,0,1,.667-.1,2.418,2.418,0,0,1,.2.155.056.056,0,0,0,.02.056c.048.311.035.612-.318.731a.487.487,0,0,1-.614-.2.481.481,0,0,1,.042-.641Zm.755-.9a.329.329,0,0,1-.334-.363.344.344,0,1,1,.687.028c0,.231-.133.326-.354.337Zm.228-1.991c0-.09.04-.181.148-.175s.2.048.193.178c0,.1-.04.169-.15.169-.133.019-.188-.064-.191-.172Zm.291-1.66a.22.22,0,0,1,.246-.253.233.233,0,0,1,.268.236.239.239,0,0,1-.263.281.245.245,0,0,1-.251-.264Zm.181,5.11a.248.248,0,0,1,.276-.056c.181.05.2.2.191.358a.409.409,0,0,1-.439.143c-.085-.147-.156-.292-.028-.445Zm.233-6.785c.01-.169.1-.236.271-.225a.214.214,0,0,1,.22.241.225.225,0,0,1-.231.253c-.191-.013-.271-.106-.261-.269Zm.45,5.293c.15-.007.22.08.233.225-.017.141-.093.228-.238.22a.211.211,0,0,1-.213-.246.2.2,0,0,1,.218-.2Zm.083-1.389c-.015-.2.12-.276.3-.308.175.028.3.115.3.308a.3.3,0,0,1-.592,0Zm.389-1.311v-.005c-.02-.02-.04-.038-.056-.056l-.04-.062a.472.472,0,0,1,.2-.539c.22-.125.366.02.529.125.007.141.012.278.02.418a.494.494,0,0,1-.656.119Zm.657,3.051A.376.376,0,0,1,23,34.146c.276.173.233.461-.105.745h-.268a.446.446,0,0,1-.16-.688Zm.672-.911a.407.407,0,0,1-.426-.411.394.394,0,0,1,.411-.434.384.384,0,0,1,.434.406.4.4,0,0,1-.418.439Zm.3-1.607a.424.424,0,0,1,.056-.844,1.654,1.654,0,0,1,.289.05h0c.062.143.191.271.141.446a.413.413,0,0,1-.489.349Zm.529,2.786v-.007a.5.5,0,0,1,.571.088.037.037,0,0,0,.015.048c0,.258-.06.492-.381.429s-.253-.326-.205-.557Zm.5-2.9a.5.5,0,0,1,.466-.594.493.493,0,0,1,.529.534,2.362,2.362,0,0,1-.043.294l.012.015-.017-.005c-.476.3-.892.2-.948-.244Zm.92,3a.287.287,0,0,1,.434.136,1.141,1.141,0,0,1,.053.251h0a1,1,0,0,1-.165.146.289.289,0,0,1-.439-.12.281.281,0,0,1,.118-.412Zm.281-5.922a.412.412,0,1,1,.062-.822c.263.015.389.178.381.456a.377.377,0,0,1-.442.366ZM26.053,27a.375.375,0,0,1-.381-.4.367.367,0,0,1,.394-.394.4.4,0,1,1-.015.8Zm.434,2.524a.442.442,0,0,1,.549-.073c.281.16.268.416.2.682-.363.3-.514.294-.87-.022a.573.573,0,0,1,.12-.587Zm.574-.97a.353.353,0,0,1-.271-.313c-.043-.256.118-.379.308-.487l.178.012a.418.418,0,0,1,.251.6.366.366,0,0,1-.467.189Zm.471-1.722a.355.355,0,0,1-.371-.409.377.377,0,1,1,.755-.015c0,.281-.136.425-.384.422Zm.742,2.392a.4.4,0,0,1,.426.418.4.4,0,0,1-.456.424.376.376,0,0,1-.406-.426.414.414,0,0,1,.436-.416Zm.337-.965a.384.384,0,0,1-.394-.4.366.366,0,0,1,.409-.416.352.352,0,0,1,.394.384c.011.281-.142.4-.406.431ZM28.6,26.233a.562.562,0,0,1-.005-.559c.218-.123.439-.186.627.038a.346.346,0,0,1-.02.5c-.184.2-.394.129-.6.021Zm.587-2.129a.23.23,0,0,1-.278-.225c-.007-.163.1-.243.258-.243a.2.2,0,0,1,.231.225c.006.142-.051.232-.207.242Zm-.017-2.3c-.366.005-.516-.125-.514-.373a.36.36,0,0,1,.356-.394.377.377,0,0,1,.424.406.319.319,0,0,1-.262.361Zm.261-1.336a1.263,1.263,0,0,1-.218.005l-.017.012-.308-.311.007-.017-.015-.015c-.01-.261.043-.5.323-.592a.484.484,0,0,1,.632.337.466.466,0,0,1-.4.58Zm.2,6.608c.169-.148.354-.289.577-.118a.4.4,0,0,1,.062.584.079.079,0,0,0-.05.048.5.5,0,0,1-.594-.148h0C29.625,27.32,29.625,27.2,29.625,27.077Zm.416-1.645c-.228-.133-.153-.328-.112-.519l.015-.017c.193-.048.394-.1.521.118a.277.277,0,0,1-.056.366.3.3,0,0,1-.367.052Zm.321-2.462h0c-.05.007-.1.02-.146.025-.16.01-.311-.005-.3-.22a.225.225,0,0,1,.248-.22c.191.005.248.133.215.308-.007.035-.015.073-.02.108Zm.07-4.443c.01-.248.16-.344.381-.354a.337.337,0,0,1,.356.394.35.35,0,0,1-.394.356.337.337,0,0,1-.343-.394Zm.969,1.323h0c0,.1,0,.2.005.294a.028.028,0,0,0-.017.038c-.351.276-.659.241-.731-.085a.353.353,0,0,1,.165-.416C31.072,19.535,31.243,19.68,31.4,19.849Zm-.78,1.354a.034.034,0,0,0,.04-.02l.294.007h0a.354.354,0,0,1-.033.579l-.251-.015a.348.348,0,0,1-.05-.552Zm.21,5.082a.429.429,0,0,1,.609-.146.356.356,0,0,1,.1.494c-.143.3-.45.261-.724-.083.007-.088.012-.177.017-.266Zm.406-1.785a.388.388,0,1,1,.35-.185.388.388,0,0,1-.35.185Zm.371-8.464c-.115.311-.384.253-.632.215h0c-.053-.073-.1-.148-.155-.22,0-.07-.007-.143-.01-.213a.435.435,0,0,1,.6-.281.367.367,0,0,1,.205.5Zm-.038-2.294a.388.388,0,0,1-.394.215.572.572,0,0,1-.349-.183c-.01-.112-.017-.225-.028-.337a.529.529,0,0,1,.326-.281.369.369,0,0,1,.394.138.385.385,0,0,1,.05.445ZM31.014,11.1a.329.329,0,0,1,.356.328c-.04.225-.15.358-.371.351a.316.316,0,0,1-.323-.368.3.3,0,0,1,.337-.312Zm-.349,6.058a.524.524,0,0,1-.429.529.42.42,0,0,1-.474-.21.447.447,0,0,1,.088-.629.434.434,0,0,1,.632.012,1.515,1.515,0,0,1,.175.236.056.056,0,0,0,.008.062Zm-.09-2.467a.416.416,0,0,1-.112.476.431.431,0,0,1-.454.056.348.348,0,0,1-.243-.368c0-.073.005-.148.007-.22h0a.194.194,0,0,0,.118-.146l.1-.045c.251-.056.481-.022.584.246Zm-.251-2.018c.05.3-.143.411-.406.444h-.033l-.263-.22a.077.077,0,0,0-.012-.065.628.628,0,0,1,.169-.434h0c.245-.032.493-.037.546.274ZM29.69,10.45c.238-.005.316.148.358.318-.033.241-.148.363-.368.361a.3.3,0,0,1-.328-.323.322.322,0,0,1,.337-.357Zm-.394,3.3c.133.579.005.742-.574.717l-.012-.017h-.022c-.173-.2-.281-.421-.093-.664.208-.268.456-.16.695-.038H29.3Zm-.88-1.978a.435.435,0,1,1,.093.808c-.07-.015-.141-.04-.21-.062a1.738,1.738,0,0,1-.083-.243.4.4,0,0,1,.2-.506Zm-.315,3.63a.2.2,0,0,1-.231.183.177.177,0,0,1-.188-.215c.01-.146.1-.191.225-.186a.195.195,0,0,1,.193.218Zm-.12-1.825a.422.422,0,0,1-.436.424.412.412,0,0,1-.439-.45.4.4,0,0,1,.431-.414.423.423,0,0,1,.444.443Zm-1.033-2.106a.425.425,0,0,1,.516,0,.4.4,0,0,1,.15.519c-.033.078-.078.153-.118.228l-.115.038c-.241.02-.487.022-.582-.256a.431.431,0,0,1,.148-.529Zm-.241,3.588c-.033.188-.138.258-.294.243a.213.213,0,0,1-.213-.251c.01-.175.125-.225.281-.218s.2.123.225.225Zm-.186-1.718c-.007.311-.13.5-.414.506a.409.409,0,0,1-.466-.416.394.394,0,0,1,.414-.459.4.4,0,0,1,.466.369Zm-1.214-1.627a.388.388,0,0,1,.436-.356c.123,0,.191.105.3.136h0c0,.12.09.225.053.358a.386.386,0,0,1-.442.306.374.374,0,0,1-.343-.444Zm-.09,3.487a.234.234,0,0,1-.271.225.239.239,0,0,1-.213-.289.211.211,0,0,1,.246-.208.237.237,0,0,1,.238.272Zm-.374-1.767c0,.093-.005.186-.005.281-.153.085-.313.175-.444-.025a.192.192,0,0,1,.012-.268.337.337,0,0,1,.437.015Zm-.469-1.209-.256.007c-.056-.048-.108-.1-.163-.146h0c-.01-.125-.02-.256.138-.294a.322.322,0,0,1,.311.04c.169.147-.044.26-.029.394Zm-.825-2.2a1.193,1.193,0,0,1,.21-.153c.06,0,.12-.005.181-.005.112.073.261.1.328.228a.457.457,0,0,1-.108.632.426.426,0,0,1-.632-.062.445.445,0,0,1,.02-.64ZM23.5,14.056a.277.277,0,0,1-.286.273.249.249,0,0,1-.278-.273.244.244,0,0,1,.258-.258.271.271,0,0,1,.306.258Zm-.3-1.519-.005.03c-.318.294-.446.289-.74-.03l.015-.294A.438.438,0,0,1,23,12.1a.4.4,0,0,1,.2.442Zm-.707-2.272a.5.5,0,0,1,.489.539.529.529,0,0,1-.514.524.542.542,0,0,1-.529-.552.511.511,0,0,1,.555-.511Zm-.742,4.378.136-.05c.193,0,.356.053.331.289a.24.24,0,0,1-.323.215C21.638,15.027,21.7,14.826,21.75,14.643Zm-1.028-3.555a.483.483,0,0,1,.6-.136c.075.038.155.073.233.112h0c.169.516.043.837-.356.888a.479.479,0,0,1-.547-.281.5.5,0,0,1,.068-.586Zm-.056,2.891a.271.271,0,0,1-.136.311.337.337,0,0,1-.446-.115v-.281l.153-.153h0c.2-.015.372.018.43.238Zm-.74-2.074a.35.35,0,0,1,.346.373.337.337,0,0,1-.366.328c-.2-.012-.358-.112-.354-.344a.325.325,0,0,1,.375-.358Zm-.554,2.966a.268.268,0,0,1,.316.281c.007.175-.108.263-.281.289-.16-.015-.281-.078-.291-.263a.266.266,0,0,1,.254-.307ZM18.459,13.1l.09-.065a.364.364,0,0,1,.506-.02.331.331,0,0,1,.078.436.316.316,0,0,1-.373.169.352.352,0,0,1-.289-.442.254.254,0,0,0-.01-.073Zm-.033,3.2c.138-.186.3-.112.454-.017v.281c-.13.105-.268.2-.416.043a.229.229,0,0,1-.036-.307Zm-.3,6.143a.234.234,0,0,1-.26-.244.238.238,0,0,1,.228-.243.233.233,0,0,1,.271.193C18.365,22.336,18.288,22.436,18.13,22.436Zm.225-4.725a1.086,1.086,0,0,1,.005.256c-.022.028-.045.056-.07.085a1.109,1.109,0,0,1-.258-.007.215.215,0,0,1-.169-.251.259.259,0,0,1,.238-.246.214.214,0,0,1,.253.163Zm-.464-3.618c.225,0,.337.118.341.4-.005.173-.141.281-.351.281a.3.3,0,0,1-.323-.323.313.313,0,0,1,.334-.355Zm-.028,4.862c.191-.007.294.1.306.337a.265.265,0,0,1-.286.268.276.276,0,0,1-.328-.266.295.295,0,0,1,.308-.342Zm-.487,8.778h-.182c-.1-.108-.228-.215-.112-.384s.281-.093.426-.02a.322.322,0,0,1-.133.4ZM17.187,15.4a.3.3,0,0,1,.291.326.266.266,0,0,1-.308.286.286.286,0,0,1-.291-.316c0-.2.147-.268.308-.3Zm-.594,1.426c.186.012.281.078.281.253a.234.234,0,0,1-.241.266.239.239,0,0,1-.281-.266.255.255,0,0,1,.238-.255Zm-.363,1.389h.105c.163.1.289.22.2.439-.1.243-.294.148-.464.136h0c-.088-.235-.106-.443.157-.577Zm-.318,1.923v-.29h0a.149.149,0,0,0,.1-.136l.017.012c.414.028.471.115.334.5a.538.538,0,0,1-.306.053h-.028c-.04-.048-.078-.1-.112-.143Zm-.434,4.649c.155-.033.318-.088.426.088a.256.256,0,0,1-.022.308c-.125.153-.276.123-.426.033a.382.382,0,0,1,.022-.431Zm-.139-1c-.125.213-.3.093-.456.056l-.02.017.02-.02c-.012-.163-.1-.346.125-.446a.236.236,0,0,1,.3.048.281.281,0,0,1,.028.343Zm-.191-7.675c.181,0,.215.125.231.258-.022.163-.1.258-.263.251a.234.234,0,0,1-.251-.253c0-.186.112-.26.281-.258Zm-.714,1.56c.123-.256.337-.256.562-.128.017.03.038.06.056.088a.38.38,0,0,1-.115.436.337.337,0,0,1-.506-.394Zm.153,1.341c.188.007.213.153.2.294-.03.225-.238.258-.511.083h0c-.039-.246.056-.386.314-.379Zm-.169,1.452a.305.305,0,0,1,.45.271c-.01.06-.02.12-.03.183-.2.136-.411.225-.552-.05a.269.269,0,0,1,.131-.406Zm.233,5.28a.428.428,0,0,1-.436.434.421.421,0,0,1-.481-.439.407.407,0,0,1,.446-.466c.3-.012.446.156.471.469Zm-.524-1.392c0,.085-.007.173-.012.258a.028.028,0,0,0-.02.035c-.2.188-.409.337-.692.2a.506.506,0,0,1-.3-.64.494.494,0,0,1,.562-.376.474.474,0,0,1,.465.52Zm-.885-7.336c.09,0,.178,0,.268-.005.078.133.148.273.005.4a.21.21,0,0,1-.276,0C13.093,17.3,13.16,17.156,13.241,17.023Zm-.263,1.249c.181.007.261.123.248.3s-.12.231-.294.231a.236.236,0,0,1-.236-.261.244.244,0,0,1,.28-.268Zm-.1,1.452c.175-.005.256.118.276.276-.02.183-.108.291-.289.281s-.256-.13-.251-.3a.251.251,0,0,1,.264-.256Zm-.243,5.38a.474.474,0,0,1-.516.492.506.506,0,0,1-.5-.526.521.521,0,0,1,.534-.5.493.493,0,0,1,.483.534Zm-.469-1.409a.45.45,0,0,1-.484.436.439.439,0,0,1-.454-.479.445.445,0,0,1,.476-.45.48.48,0,0,1,.461.492Zm-1.018-6.078c.143-.08.294-.155.439-.017.13.123.088.268.022.409-.421.093-.479.041-.461-.394Zm-.137,1.5a.889.889,0,0,1,.206-.078.225.225,0,0,1,.278.178.23.23,0,0,1-.16.291.253.253,0,0,1-.323-.169.651.651,0,0,1,0-.22Zm.266,1.324c.2.005.271.13.3.3-.03.173-.1.3-.3.308s-.334-.088-.328-.3a.281.281,0,0,1,.325-.309Zm-.3,1.5a.481.481,0,0,1,.587-.191c.128.033.2.133.306.2h0c.04.276.078.559-.225.714a.484.484,0,0,1-.614-.1.5.5,0,0,1-.056-.619Zm.169,3.864a.506.506,0,0,1-.506.519.543.543,0,0,1-.521-.519.521.521,0,0,1,.524-.506.481.481,0,0,1,.506.506Zm-.534-1.406a.412.412,0,0,1-.466.454.441.441,0,0,1-.471-.466.454.454,0,0,1,.5-.456.426.426,0,0,1,.436.471Zm-.247-1.449a.5.5,0,0,1-.511.524.506.506,0,0,1-.511-.519.49.49,0,0,1,.487-.5.5.5,0,0,1,.536.5ZM9.139,21.48a.506.506,0,0,1,.524-.506.5.5,0,0,1,.5.532A.506.506,0,0,1,9.623,22a.529.529,0,0,1-.484-.524Zm.389-4.586c.048-.048.093-.1.141-.146.193-.043.376-.043.471.169a.319.319,0,0,1-.053.379.332.332,0,0,1-.379.067c-.219-.093-.193-.289-.181-.474Zm.007,1.171a.465.465,0,0,1,.5.169.49.49,0,0,1,.01.559A.455.455,0,0,1,9.563,19a2.145,2.145,0,0,1-.215-.053h0c-.274-.422-.191-.818.187-.888Zm.04,1.474a.45.45,0,0,1,.506.466c-.022.278-.169.461-.547.466a.469.469,0,0,1,.043-.933Zm-.409,5.428a.469.469,0,0,1-.193.557.475.475,0,0,1-.619-.007c-.067-.053-.125-.118-.188-.175,0-.138-.005-.278-.007-.416.13-.169.253-.334.506-.321a.5.5,0,0,1,.5.359Zm-.787-.86a.389.389,0,0,1-.411-.426.4.4,0,0,1,.418-.439c.3.022.456.165.45.454a.39.39,0,0,1-.457.407Zm-.81-2.162a.179.179,0,0,0,.112-.148l.025-.01a2.4,2.4,0,0,1,.248-.073.522.522,0,0,1,.645.446.537.537,0,0,1-.526.589.506.506,0,0,1-.524-.539c0-.085.015-.173.022-.258Zm.6-5.491a.475.475,0,0,1,.584-.043l.023.017A.446.446,0,0,1,8.644,17H8.318l-.163-.155a.067.067,0,0,0-.017-.06v-.225c.011-.038.018-.076.028-.112Zm.07,1.173c.206-.005.306.133.331.349,0,.2-.13.3-.326.3A.281.281,0,0,1,7.917,18a.309.309,0,0,1,.319-.375ZM7.79,19.151c.07-.238.258-.278.479-.2a1.142,1.142,0,0,1,.163.088.08.08,0,0,0,.025.065v.148a.32.32,0,0,1-.411.351.316.316,0,0,1-.256-.453Zm.15,1a.6.6,0,0,1,.6.584.586.586,0,1,1-1.171-.017.6.6,0,0,1,.575-.571ZM47.286,47.459q-8.4,0-16.806,0-11.794,0-23.589.007c-.273,0-.394-.043-.384-.358.028-.669.012-1.341.007-2.011a.3.3,0,0,1,.2-.337q3.414-1.419,6.816-2.862l2.981-1.259a.619.619,0,0,1,.469-.007q3.36,1.154,6.717,2.3c.915.311,1.833.614,2.748.925a.285.285,0,0,0,.394-.133c.45-.679.93-1.344,1.394-2.016,1.6-2.319,3.2-4.636,4.784-6.965A.528.528,0,0,1,33.7,34.5c1.853.5,3.712.983,5.564,1.492a.445.445,0,0,0,.582-.206q3.456-5.085,6.928-10.162l.835-1.218c.028.007.056.017.08.025v.887q0,10.9.01,21.8C47.7,47.476,47.525,47.461,47.286,47.459Z" transform="translate(-0.99 -0.63)" fill="#08a79b"/>
      </g>
      <text id="___" data-name="   " transform="translate(0 21.468)" font-size="6" font-family="SegoeUI-Bold, Segoe UI" font-weight="700"><tspan x="0" y="0">Deputy Director of Finance and Administration</tspan></text>
      <text id="____" data-name="    " transform="translate(0 7.406)" font-size="6" font-family="SegoeUI-Bold, Segoe UI" font-weight="700" letter-spacing="0.02em"><tspan x="0" y="0">National Statistics and Information Authority</tspan></text>
      <text id="___" data-name="   " transform="translate(0 49.59)" font-size="6" font-family="SegoeUI-Bold, Segoe UI" font-weight="700"><tspan x="0" y="0">Department of Technical and Transport Services</tspan></text>
      <text id="___" data-name="   " transform="translate(0 35.529)" font-size="6" font-family="SegoeUI-Bold, Segoe UI" font-weight="700" letter-spacing="0.05em"><tspan x="0" y="0">Directorate of Administration and Services</tspan></text>
    </g>
    <text id="___" data-name="   " transform="translate(359.874 129.87)" font-size="7" font-family="SegoeUI-Bold, Segoe UI" font-weight="700"><tspan x="0" y="0">Vehicles Exit Ticket</tspan></text>
  </g>
</svg>
