<svg xmlns="http://www.w3.org/2000/svg" width="543.049" height="129" viewBox="0 0 543.049 129">
  <g id="Group_2" data-name="Group 2" transform="translate(-242.5 -60)">
    <g id="Group_1" data-name="Group 1">
      <g id="nsia-logo" transform="translate(520.5 60)">
        <path id="Path_1" data-name="Path 1" d="M533.763,177.537a18.338,18.338,0,0,1-8.9-.321c-4.756-1.217-7.516-4.5-9.29-8.844-1.266-3.1-2.586-6.178-3.883-9.263-.067-.16-.156-.308-.241-.481a89.361,89.361,0,0,1-10.244,5.282c-2.59,1.119-5.207,2.171-7.886,3.049a1.588,1.588,0,0,0-1.043.967c-1.351,3.062-2.746,6.107-4.106,9.17a.719.719,0,0,1-.785.522c-1.079-.036-2.158-.013-3.339-.013.2-.5.379-.967.579-1.413,1.386-3.1,2.791-6.183,4.159-9.29a1.435,1.435,0,0,1,1.016-.887,98.057,98.057,0,0,0,19-7.712,62.33,62.33,0,0,0,9.727-6.37c.464-.379.584-.259.785.223q3.424,8.238,6.892,16.462a18.555,18.555,0,0,0,1.44,2.75,8.569,8.569,0,0,0,6.112,4.311Z" transform="translate(-268.714 -84.361)" fill="#2a2561"/>
        <path id="Path_2" data-name="Path 2" d="M364.964,201.468c-1.03-.174-2.068-.325-3.089-.53a18.455,18.455,0,0,1-8.63-3.758,6.153,6.153,0,0,1-2.314-4.168c-.036-.374-.058-.593.495-.486,1.511.3,3.04.508,4.565.736a1.147,1.147,0,0,1,.767.446,11.828,11.828,0,0,0,7.788,4.177,16.8,16.8,0,0,0,7.021-.245,7.581,7.581,0,0,0,4.15-2.554c.223-.285.477-.259.762-.263q3.965-.08,7.948-.165c.076.205-.116.334-.223.486a14.469,14.469,0,0,1-7.948,5.278,24.406,24.406,0,0,1-4.93.923c-.107.009-.223-.013-.268.125Z" transform="translate(-194.927 -106.968)" fill="#2a2561"/>
        <path id="Path_3" data-name="Path 3" d="M271.022,133.613v-.722q0-16.3-.013-32.6c0-.588.143-.762.727-.722a19.56,19.56,0,0,0,2.452,0c.53-.031.633.169.611.637-.031.816-.009,1.636-.009,2.452q0,16.6.009,33.192c0,.6-.067.789-.749.611a113.109,113.109,0,0,1-18.785-6.664,2.535,2.535,0,0,1-.856-.709q-7.1-8.345-14.2-16.681c-.094-.111-.2-.218-.406-.441v1.418q0,17.292.018,34.583c0,.624-.183.789-.776.749a20.272,20.272,0,0,0-2.385,0c-.486.027-.642-.094-.633-.611.036-1.788.013-3.575.013-5.367V108.556a7.424,7.424,0,0,0-1.369-4.739,5.639,5.639,0,0,0-4.391-1.944c-1.3-.1-1.306-.062-1.306-1.342,0-.2.013-.4,0-.6-.018-.25.067-.357.334-.352,3.388.094,6.8-.294,10.15.557a11.049,11.049,0,0,1,5.831,3.664c3.99,4.69,8.015,9.348,12.027,14.015q6.58,7.656,13.168,15.308A1.2,1.2,0,0,0,271.022,133.613Z" transform="translate(-127.339 -55.464)" fill="#2b2662"/>
        <path id="Path_4" data-name="Path 4" d="M384.559,109.649c0,1.346-.013,2.692.009,4.043,0,.4-.054.575-.53.575-1.609-.009-1.587.009-1.935-1.663a20.818,20.818,0,0,0-2.88-7.476,11.338,11.338,0,0,0-8.532-5.037,13.164,13.164,0,0,0-6.575.655c-5.345,2.144-5.149,8.675-2.327,11.318a34.441,34.441,0,0,0,5.791,4.159c4.2,2.554,8.559,4.854,12.6,7.663a14.5,14.5,0,0,1,5.3,5.706,13.01,13.01,0,0,1,.459,8.991.44.44,0,0,1-.468.361c-2.71.147-5.425.218-8.14.232-.312,0-.339-.1-.308-.388a7.8,7.8,0,0,0-2.822-7.123,51.107,51.107,0,0,0-7.462-5.122c-3.232-1.984-6.6-3.758-9.673-5.991a13.283,13.283,0,0,1-5.394-7c-1.27-4.458-.9-8.684,2.4-12.237a14.5,14.5,0,0,1,8.349-4.244,28.865,28.865,0,0,1,15.5,1.319,12.613,12.613,0,0,1,5.242,3.468,5.866,5.866,0,0,1,1.4,4.03q0,1.866,0,3.762Z" transform="translate(-194.97 -53.803)" fill="#2a2461"/>
        <path id="Path_5" data-name="Path 5" d="M457.62,100.212c0,.156.018.308.018.464v37.218c0,.312.094.6-.428.691-2.389.406-4.774.825-7.181,1.128a3.835,3.835,0,0,1-.392.009,7.154,7.154,0,0,0-.927-.009c-.513.053-.624-.169-.624-.646q.013-19.231,0-38.462c0-.535.16-.669.678-.664q3.9.033,7.81,0a1.68,1.68,0,0,1,1.046.271Z" transform="translate(-248.778 -55.67)" fill="#292360"/>
        <path id="Path_6" data-name="Path 6" d="M511.681,112.5c-.735,1.645-1.4,3.143-2.073,4.641q-3.624,8.077-7.244,16.155c-.089.2-.125.432-.374.513-1.418.459-2.831.918-4.44,1.444.531-1.221.976-2.26,1.435-3.294l10.979-24.549q1.618-3.617,3.218-7.248a.788.788,0,0,1,.878-.593,18.067,18.067,0,0,0,2.251,0,.729.729,0,0,1,.793.526q4.34,10.4,8.7,20.787a.536.536,0,0,1-.2.767,72.559,72.559,0,0,1-7.373,4.886c-.464.272-.562.094-.727-.3q-2.688-6.426-5.407-12.843C511.984,113.139,511.859,112.89,511.681,112.5Z" transform="translate(-276.196 -55.46)" fill="#0ba79b"/>
        <path id="Path_7" data-name="Path 7" d="M294.02,174.933c.156-.1.267-.009.383.045a105.2,105.2,0,0,0,15.874,5.528.641.641,0,0,1,.571.762q-.027,4.4,0,8.8c0,.508-.152.637-.637.615-.793-.04-1.587-.027-2.38,0a.834.834,0,0,1-.736-.325q-6.466-7.609-12.941-15.21A2.5,2.5,0,0,1,294.02,174.933Z" transform="translate(-163.394 -97.207)" fill="#2b2662"/>
        <path id="Path_8" data-name="Path 8" d="M306.955,58.289c1.083.718,2.238.312,3.406.464a3.286,3.286,0,0,1-.2-3.388,3.217,3.217,0,0,1,3.736-1.4c1.15.285,1.765,1.213,1.774,2.688,0,.9-.018,1.81.009,2.715.009.379-.116.486-.49.486-2.34-.013-4.681,0-7.021-.009a3.708,3.708,0,0,1-2.006-.584.815.815,0,0,0-.856-.076,10.284,10.284,0,0,1-4.213.678c-2.033-.013-4.061-.013-6.094-.013-.236,0-.495-.049-.508.334-.04,1.618-1.288,2.63-3.285,2.755-.526.031-1.061-.04-1.582-.045-.678-.009-.8-.3-.727-.883.04-.348.165-.374.468-.312a6.506,6.506,0,0,0,2.367.071,1.6,1.6,0,0,0,1.409-1.449c.04-.339-.045-.477-.41-.473a10.987,10.987,0,0,1-1.716-.08,2.494,2.494,0,0,1-2.229-2.737,2.866,2.866,0,0,1,2.269-3.062,7.122,7.122,0,0,1,2.956.165.583.583,0,0,1,.513.687c-.031,1.083.009,2.166-.022,3.245-.013.49.071.7.633.673,1.034-.053,2.077-.04,3.112,0,.486.018.633-.094.624-.606-.031-2.117.027-4.239-.036-6.361-.022-.749.388-.584.811-.629.5-.053.633.12.624.62-.027,2.14,0,4.284-.022,6.428,0,.441.12.548.548.548a12.038,12.038,0,0,0,3.415-.294c.178-.053.441-.04.495-.245.045-.178-.183-.276-.312-.388a10.244,10.244,0,0,0-1.868-1.364.8.8,0,0,1-.16-1.284,5.352,5.352,0,0,1,3.99-1.248,2,2,0,0,1,1.658,3.045,4.417,4.417,0,0,1-1.06,1.328Zm7.378-.843c-.027-.392-.027-.793-.085-1.181A1.322,1.322,0,0,0,313.187,55a1.565,1.565,0,0,0-1.747.762,1.881,1.881,0,0,0,1.64,2.938c1.494,0,1.244.333,1.253-1.254Zm-21.174-.5V55.555c0-.169.009-.325-.209-.432a2.2,2.2,0,0,0-2.38.419,2.3,2.3,0,0,0,.022,2.594c.4.464,1.944.9,2.4.553.415-.317.085-.9.165-1.355a2.23,2.23,0,0,0,0-.387Zm10.4-1.248a20.616,20.616,0,0,1,2.158,1.649c.116.094.2.223.4.134a2.083,2.083,0,0,0,.793-1.667,1.134,1.134,0,0,0-1.248-.941,3.779,3.779,0,0,0-2.108.827Z" transform="translate(-160.496 -28.618)" fill="#2d2961"/>
        <path id="Path_9" data-name="Path 9" d="M417.618,9.53a3.33,3.33,0,0,1,.125-3.82,3.5,3.5,0,0,1,3.7-.892,2.313,2.313,0,0,1,1.542,2.247c.04,1.056,0,2.117.022,3.178,0,.308-.1.441-.415.437-2.47-.018-4.944-.027-7.413-.045a2.957,2.957,0,0,1-1.623-.5,1.062,1.062,0,0,0-1.1-.071,9.888,9.888,0,0,1-3.829.62c-1.547-.009-3.089,0-4.636-.027-.415,0-.615.085-.678.557a2.857,2.857,0,0,1-2.527,2.51,11.4,11.4,0,0,1-2.643.018c-.669-.045-.432-.53-.441-.883-.009-.477.3-.352.593-.308a5.367,5.367,0,0,0,2.425,0,1.79,1.79,0,0,0,.972-.642,1.148,1.148,0,0,0,.218-1.061c-.125-.334-.5-.143-.767-.169a8.421,8.421,0,0,1-1.7-.2,2.45,2.45,0,0,1-1.872-2.559,2.9,2.9,0,0,1,1.716-3,5.915,5.915,0,0,1,3.7.049c.388.1.37.388.37.673,0,1.083.036,2.166-.018,3.245-.031.584.169.722.7.669a8.657,8.657,0,0,1,1.52-.018c.428.031.513-.129.508-.522-.018-2.184,0-4.369-.018-6.557,0-.437.076-.669.575-.606.4.049.887-.169.869.593-.04,2.14.009,4.284-.031,6.424-.009.584.178.686.7.673a12.411,12.411,0,0,0,3.089-.259c.232-.067.571-.049.637-.263.094-.285-.267-.406-.45-.571a9.775,9.775,0,0,0-1.712-1.235.819.819,0,0,1-.125-1.3,5.907,5.907,0,0,1,3.468-1.293,2.285,2.285,0,0,1,2.251,1.088,2.447,2.447,0,0,1-.45,2.706c-.174.245-.637.428-.517.682.152.325.629.388,1,.4C416.093,9.553,416.815,9.53,417.618,9.53Zm4.025-1.181a6.483,6.483,0,0,0-.08-1.377,1.29,1.29,0,0,0-.887-1.119,1.588,1.588,0,0,0-1.7.406,2.153,2.153,0,0,0-.352,2.229A1.646,1.646,0,0,0,420.3,9.535C421.643,9.615,421.643,9.6,421.643,8.349Zm-19.672-.526c0-.464-.018-.923,0-1.386a.467.467,0,0,0-.441-.544c-.74-.111-1.507-.263-2.086.41a2.113,2.113,0,0,0-.29,2.291,2.1,2.1,0,0,0,2.514.936c.66-.2.152-.874.294-1.315a1.436,1.436,0,0,0,.009-.392Zm8.862-1.3a20.6,20.6,0,0,1,2.117,1.636c.111.1.214.2.406.138a1.967,1.967,0,0,0,.8-1.632.992.992,0,0,0-.99-.958,3.241,3.241,0,0,0-2.333.814Z" transform="translate(-220.781 -1.31)" fill="#14a89c"/>
        <path id="Path_10" data-name="Path 10" d="M310.29,40.064q-40.18,0-80.36-.013c-.294,0-.856.267-.86-.259-.009-.584.575-.3.878-.3q80.427-.02,160.849-.013h.464c.156,0,.3.067.308.263.009.227-.12.312-.325.312H310.292Z" transform="translate(-127.397 -22.13)" fill="#199f93"/>
        <path id="Path_11" data-name="Path 11" d="M307.122,9.514a3.355,3.355,0,0,1,.187-3.918,3.625,3.625,0,0,1,3.8-.744,2.221,2.221,0,0,1,1.337,1.9,29.486,29.486,0,0,1,.085,3.437c0,.339-.116.473-.459.473q-6.058-.013-12.121,0c-.352,0-.455-.147-.45-.481.018-.9.027-1.81.009-2.715-.031-1.73-.838-1.756-2.171-1.667-.388.027-.29.325-.29.544-.009,1.235-.022,2.474,0,3.709.009.459-.12.633-.593.611-.883-.04-1.765,0-2.648-.058-2.929-.214-4.177-1.921-3.548-4.823.08-.37.058-.789.606-.892,1.021-.187.994-.218.794.776a5.145,5.145,0,0,0-.031,2.1A2.323,2.323,0,0,0,294,9.5c.4.031.8-.013,1.19.022s.477-.143.473-.5c-.022-1.1.027-2.211-.027-3.312-.036-.686.147-.981.887-1.007a13.459,13.459,0,0,1,2.242-.045A2.212,2.212,0,0,1,300.885,7c.022.682.013,1.369,0,2.051-.009.334.1.477.455.459a10.606,10.606,0,0,1,1.458,0c.437.036.5-.147.5-.53-.013-2.184.022-4.373-.022-6.557-.013-.611.267-.606.709-.606s.78-.022.767.633c-.045,2.162,0,4.324-.022,6.49,0,.423.089.6.544.562C305.865,9.483,306.458,9.514,307.122,9.514Zm3.985-1.319c0-.339.022-.651,0-.954-.08-.887-.513-1.382-1.244-1.458a1.562,1.562,0,0,0-1.779,1.128,1.982,1.982,0,0,0,.709,2.34,2.777,2.777,0,0,0,2.18.192C311.33,9.331,311.04,8.6,311.107,8.195Z" transform="translate(-161.224 -1.29)" fill="#14a89c"/>
        <path id="Path_12" data-name="Path 12" d="M499.154,58.7c-.771-1.707-.624-3.049.419-4.039,1.262-1.19,3.7-1.079,4.556.21a2.883,2.883,0,0,1,.415,1.64c.009.9-.027,1.81.013,2.715.022.517-.169.624-.642.62-2.514-.022-5.033-.013-7.547-.013-1.609,0-3.223-.009-4.832.009-.41,0-.588-.08-.571-.548.04-.9.013-1.81,0-2.715A1.565,1.565,0,0,0,488.776,55c-.321.1-.223.343-.223.539-.009,1.257,0,2.519-.009,3.776,0,.223.1.526-.3.522a22.774,22.774,0,0,1-3.7-.125c-2.545-.459-3.125-2.117-2.822-4.538.129-1.043.366-1.159,1.721-1.181a9.861,9.861,0,0,0-.388,1.591,2.465,2.465,0,0,0,2.519,3.112c1.6.12,1.6.12,1.6-1.458,0-.9.013-1.81,0-2.715,0-.321.076-.468.419-.517a9.588,9.588,0,0,1,2.964-.053,2.033,2.033,0,0,1,1.734,1.9,23.538,23.538,0,0,1,.058,2.38c0,.379.129.495.5.477a19.72,19.72,0,0,1,1.988,0c.45.031.49-.16.486-.535-.013-2.162.027-4.328-.022-6.491-.018-.731.428-.517.8-.566.455-.058.606.094.6.566-.027,2.14,0,4.284-.027,6.424,0,.437.076.637.571.6C497.87,58.658,498.5,58.7,499.154,58.7Zm3.985-1.324a7.589,7.589,0,0,0-.009-1.056,1.356,1.356,0,0,0-.9-1.27,1.559,1.559,0,0,0-1.609.3,2.054,2.054,0,0,0-.464,2.207,1.619,1.619,0,0,0,1.556,1.132c1.476.156,1.476.147,1.426-1.315Z" transform="translate(-267.387 -28.604)" fill="#2d2961"/>
        <path id="Path_13" data-name="Path 13" d="M531.467,6.675c1.235-1.832,2.991-2.492,4.369-1.756,1.4.744,1.7,2.4.825,4.516.076.156.227.1.348.1,1.721,0,3.446-.013,5.167.009.428,0,.562-.107.584-.544.134-2.47-.789-3.37-3.245-3.143-.285.027-.722.334-.749-.348-.022-.548.16-.767.7-.74.508.022,1.016-.018,1.524,0a3.025,3.025,0,0,1,3.174,3.1,16.878,16.878,0,0,1-.111,2.376c-.031.428-.308.415-.6.419-1.854,0-3.709.018-5.563.018-3.8,0-7.592-.009-11.39,0-.428,0-.7-.013-.691-.58.031-2.514.04-5.033,0-7.551-.009-.655.267-.673.776-.7.6-.031.673.21.664.722-.027,2.14,0,4.284-.018,6.424,0,.437.12.575.553.548a13.851,13.851,0,0,1,1.721,0c.437.027.579-.111.571-.553-.022-1.19.04-2.385-.022-3.575-.036-.669.312-.615.762-.646.508-.031.727.1.66.646a10.287,10.287,0,0,0-.009,1.258ZM532.9,9.537c.352,0,.7.018,1.057,0a1.76,1.76,0,0,0,1.725-1.364A2.044,2.044,0,0,0,535,5.918a2,2,0,0,0-2.3.678,5,5,0,0,0-1.1,2.077c-.236.869-.236.869.638.869C532.461,9.537,532.679,9.537,532.9,9.537Z" transform="translate(-291.858 -1.308)" fill="#0ba79b"/>
        <path id="Path_14" data-name="Path 14" d="M457.652,195.824c0,1.146-.013,2.291.009,3.441.009.392-.049.588-.522.571-1.275-.049-2.559.013-3.834-.062a4.822,4.822,0,0,1-4.912-4.222c-.134-.624-.187-1.262-.285-1.89-.045-.281.058-.366.343-.4,2.947-.388,5.889-.807,8.8-1.427.321-.067.419.022.41.352C457.638,193.4,457.652,194.611,457.652,195.824Z" transform="translate(-248.788 -106.589)" fill="#2a2461"/>
        <path id="Path_15" data-name="Path 15" d="M431.731,55.906c1.306-1.921,3.009-2.563,4.484-1.73,1.284.727,1.574,2.6.629,4.529H437.9c1.609,0,3.223-.018,4.832.013.464.009.642-.076.66-.593.089-2.416-.776-3.254-3.2-3.062-.25.018-.713.388-.758-.321-.036-.588.174-.793.722-.793a10.164,10.164,0,0,1,2.175.111,2.777,2.777,0,0,1,2.376,2.554,13.1,13.1,0,0,1-.022,2.577c-.027.473-.183.664-.718.664-4.587-.022-9.179-.013-13.766-.013-1.168,0-2.336-.009-3.508,0-.37,0-.548-.045-.544-.495.022-2.581.027-5.167,0-7.748-.009-.682.446-.441.762-.464.334-.022.691-.125.682.481-.036,2.162,0,4.324-.027,6.486,0,.495.125.655.615.611a9.929,9.929,0,0,1,1.587,0c.459.036.611-.1.6-.571-.031-1.19.022-2.385-.022-3.575-.022-.562.236-.6.673-.579.41.018.811-.058.727.588a9.976,9.976,0,0,0-.015,1.33Zm0,2.8h2.086a1.906,1.906,0,0,0,2.117-2.5,1.342,1.342,0,0,0-1.9-1.128,2.3,2.3,0,0,0-1.034.687,5.3,5.3,0,0,0-1.265,2.94Z" transform="translate(-236.624 -28.611)" fill="#2d2961"/>
        <path id="Path_16" data-name="Path 16" d="M386.072,63.2c-2.96,0-5.915.053-8.871-.022-1.779-.045-2.652-1.092-2.661-2.875a2.879,2.879,0,0,1,2.666-3,7.233,7.233,0,0,1,2.621.227.552.552,0,0,1,.472.646c-.022,1.128.018,2.251-.022,3.379-.018.49.156.571.6.566q2.481-.04,4.97,0c.45.009.606-.085.588-.566-.04-1.213.018-2.429-.022-3.642-.027-.713.455-.473.8-.508.392-.045.664-.013.646.53-.04,1.235,0,2.474-.022,3.709,0,.37.094.481.473.477q2.481-.033,4.97,0c.374,0,.486-.1.481-.481-.022-1.235.022-2.474-.022-3.709-.027-.7.428-.5.789-.53.392-.036.655-.013.642.53-.04,1.587-.027,3.178,0,4.77,0,.423-.089.562-.544.557-2.849-.022-5.7-.013-8.546-.013a.166.166,0,0,1-.008-.045Zm-7.164-2.866h0V59.01c0-.2.031-.392-.236-.477-1.248-.388-2.461-.178-2.715,1.373a1.771,1.771,0,0,0,1.881,2.216c1.065.045,1.065.045,1.07-.994,0-.262,0-.528,0-.793Z" transform="translate(-208.02 -32.024)" fill="#2d2961"/>
        <path id="Path_17" data-name="Path 17" d="M489.291,8.284a6.793,6.793,0,0,0-.4,1.993,2.346,2.346,0,0,0,2.349,2.7c1.774.227,1.783.218,1.774-1.529,0-.816.027-1.636-.018-2.447-.031-.58.192-.762.753-.793a11.742,11.742,0,0,1,2.238-.089,2.282,2.282,0,0,1,2.273,2.554c.018.615.022,1.235,0,1.854-.018.383.116.495.49.473.7-.04,1.618.227,2.051-.12.455-.37.116-1.319.138-2.015s.031-1.413,0-2.117c-.031-.637.4-.49.753-.5s.7-.076.686.5c-.018,1.609.009,3.219.045,4.832.009.423-.1.58-.553.575-1.48-.027-2.955-.027-4.435,0-.432,0-.584-.129-.566-.566.031-.86.022-1.721.009-2.581-.022-1.382-.5-1.81-1.872-1.752-.437.018-.615.138-.6.615.036,1.213-.009,2.429.027,3.642.013.49-.134.673-.633.651a19.686,19.686,0,0,1-3.624-.2,3.228,3.228,0,0,1-2.684-3.843c.018-.152.031-.308.049-.459C487.677,8.44,487.976,8.2,489.291,8.284Z" transform="translate(-270.602 -4.758)" fill="#14a89c"/>
        <path id="Path_18" data-name="Path 18" d="M357.324,11.219c0,.749-.04,1.5.013,2.251.045.615-.192.74-.762.713-.99-.049-1.984,0-2.978-.013-.357,0-.5.125-.562.477a2.9,2.9,0,0,1-2.849,2.617,15.12,15.12,0,0,1-2.247-.018c-.736-.04-.508-.544-.5-.945.009-.562.392-.263.611-.236A5.42,5.42,0,0,0,350.6,16a1.567,1.567,0,0,0,1.074-1.369c.053-.339-.071-.481-.428-.473a14.346,14.346,0,0,1-1.453-.049,2.494,2.494,0,0,1-2.5-2.492,2.934,2.934,0,0,1,2.158-3.343,6.68,6.68,0,0,1,3.138.16.514.514,0,0,1,.446.6c-.022,1.168.009,2.34-.018,3.508-.009.415.116.539.522.517.637-.036,1.279-.045,1.917-.018.383.018.477-.107.473-.477-.022-1.235.031-2.474-.022-3.7-.031-.651.334-.566.74-.584.428-.018.722,0,.7.571-.04.793-.009,1.587-.009,2.38C357.328,11.219,357.328,11.219,357.324,11.219Zm-5.617.107h0V9.935c0-.169.022-.334-.174-.455a1.932,1.932,0,0,0-2.684.869,2.442,2.442,0,0,0,0,1.623,2.009,2.009,0,0,0,2.572,1.048c.678-.169.134-.869.285-1.3a1.308,1.308,0,0,0,0-.394Z" transform="translate(-192.917 -4.8)" fill="#14a89c"/>
        <path id="Path_19" data-name="Path 19" d="M377.7,9.512a3.357,3.357,0,0,1-.544-2.019,2.883,2.883,0,0,1,2.166-2.755,3.838,3.838,0,0,1,2.22.067A2.209,2.209,0,0,1,383.054,7c.053,1.079.013,2.162.027,3.245,0,.33-.152.419-.446.419H374.29c-.325,0-.41-.16-.41-.455V2.261c0-.722.571-.334.887-.41.379-.089.544.071.539.5-.018,2.184.009,4.373-.022,6.557-.009.495.107.664.615.62C376.457,9.476,377.009,9.512,377.7,9.512Zm3.994-1.351a4.911,4.911,0,0,0-.125-1.435,1.244,1.244,0,0,0-1.132-.945,1.581,1.581,0,0,0-1.85,1.511,1.769,1.769,0,0,0,1.507,2.216c1.538.209,1.592.169,1.6-1.347Z" transform="translate(-207.655 -1.287)" fill="#14a89c"/>
        <path id="Path_20" data-name="Path 20" d="M269.323,58.693a3.124,3.124,0,0,1,3.629-4.73,2.067,2.067,0,0,1,1.64,1.783,26.515,26.515,0,0,1,.111,3.762c.013.459-.348.308-.571.308q-3.537.013-7.079,0c-1.475,0-1.475,0-1.475-1.453,0-2.229.013-4.453-.009-6.682,0-.459.1-.651.58-.575.383.058.869-.2.847.593-.058,2.14,0,4.279-.022,6.419,0,.464.116.611.584.58C268.124,58.661,268.7,58.693,269.323,58.693Zm3.95-1.23c0-.45.031-.807,0-1.159a1.3,1.3,0,0,0-1.284-1.333A1.509,1.509,0,0,0,270.331,56a2.089,2.089,0,0,0,.464,2.26,2.635,2.635,0,0,0,2.34.361c.374-.084.084-.821.138-1.159Z" transform="translate(-147.626 -28.598)" fill="#2d2961"/>
        <path id="Path_21" data-name="Path 21" d="M466.981,11.786c0,.749-.027,1.5,0,2.251a2.93,2.93,0,0,1-2.741,3.21,11.189,11.189,0,0,1-2.443,0c-.682-.036-.49-.513-.486-.909.009-.526.352-.294.606-.267a5.539,5.539,0,0,0,2.55-.053,1.545,1.545,0,0,0,1.088-1.36c.04-.339-.054-.49-.415-.49a14.4,14.4,0,0,1-1.52-.067,2.53,2.53,0,0,1-2.438-2.688,2.9,2.9,0,0,1,2.238-3.152,6.86,6.86,0,0,1,3.138.2.479.479,0,0,1,.419.553C466.968,9.931,466.981,10.859,466.981,11.786Zm-1.391-.539h-.013a9.443,9.443,0,0,1,.009-1.123c.071-.575-.25-.753-.718-.789-.713-.058-1.426-.1-1.9.6a2.209,2.209,0,0,0-.183,2.144,2.055,2.055,0,0,0,2.51.945c.664-.187.156-.874.29-1.311a1.641,1.641,0,0,0,.005-.466Z" transform="translate(-256.04 -4.801)" fill="#14a89c"/>
        <path id="Path_22" data-name="Path 22" d="M361.048,60.978v2.247a2.766,2.766,0,0,1-2.4,2.991,7.5,7.5,0,0,1-2.889,0c-.615-.111-.227-.6-.263-.909-.04-.37.267-.245.468-.21a6.649,6.649,0,0,0,2.3.067,1.616,1.616,0,0,0,1.435-1.418c.053-.361-.022-.522-.432-.508a10.2,10.2,0,0,1-1.649-.076,2.538,2.538,0,0,1-2.287-2.621,2.9,2.9,0,0,1,2.278-3.178,6.623,6.623,0,0,1,3.009.187.5.5,0,0,1,.437.588C361.03,59.083,361.048,60.033,361.048,60.978Zm-1.328-.637V58.95c0-.147.013-.29-.156-.4a1.992,1.992,0,0,0-2.728.927,1.869,1.869,0,0,0,1.819,2.648c1.07.045,1.07.045,1.07-.99-.005-.264-.005-.535-.005-.795Z" transform="translate(-197.373 -32.02)" fill="#2d2961"/>
        <path id="Path_23" data-name="Path 23" d="M233,57.42a5.039,5.039,0,0,0-.432,2.554,2.068,2.068,0,0,0,1.828,2.1,5.239,5.239,0,0,0,1.181.125c2.073,0,4.146-.018,6.223.009.495,0,.682-.089.664-.633-.045-1.19.013-2.385-.027-3.575-.022-.637.374-.5.736-.513s.687-.08.673.5c-.04,1.609-.022,3.218-.009,4.832,0,.352-.071.517-.468.513-2.933-.045-5.866.08-8.8-.071a3.23,3.23,0,0,1-3.29-2.358,5.77,5.77,0,0,1,.036-2.688c.1-.432.294-.651.749-.66A6.344,6.344,0,0,0,233,57.42Z" transform="translate(-128.546 -32.104)" fill="#2d2961"/>
        <path id="Path_24" data-name="Path 24" d="M544.789,61.354c-.071.553.281,1.36-.138,1.761-.383.374-1.177.089-1.788.1a12.11,12.11,0,0,1-1.449-.053,2.526,2.526,0,0,1-2.532-2.733,2.947,2.947,0,0,1,2.22-3.1,4.186,4.186,0,0,1,1.966.04,2.12,2.12,0,0,1,1.609,1.739,13.11,13.11,0,0,1,.112,2.246Zm-1.36-.526c-.027-.415-.022-.838-.085-1.248a1.284,1.284,0,0,0-1.2-1.2A1.6,1.6,0,0,0,540.3,59.9a1.772,1.772,0,0,0,1.707,2.189c1.378.116,1.378.116,1.423-1.261Z" transform="translate(-299.1 -31.999)" fill="#2d2961"/>
        <path id="Path_25" data-name="Path 25" d="M236.307,12.058c0,.508-.022,1.016.009,1.525.022.406-.071.606-.539.58-.927-.049-1.854-.009-2.777-.076a2.556,2.556,0,0,1-2.59-2.933,2.911,2.911,0,0,1,2.652-3.013,4.662,4.662,0,0,1,1.315.071,2.185,2.185,0,0,1,1.912,2.189c.031.548,0,1.106,0,1.654A.034.034,0,0,0,236.307,12.058Zm-1.342-.37a6.369,6.369,0,0,0-.089-1.288c-.156-.571-.415-1.012-1.056-1.11a1.584,1.584,0,0,0-1.725.7,2.087,2.087,0,0,0-.036,2.2,1.714,1.714,0,0,0,1.618.825c1.288.024,1.288.028,1.288-1.327Z" transform="translate(-128.14 -4.783)" fill="#14a89c"/>
        <path id="Path_26" data-name="Path 26" d="M355.767,179.906c-1.177-.2-2.345-.406-3.513-.593-.285-.045-.419-.125-.415-.45q.02-2.715,0-5.43c0-.33.125-.392.424-.41,1.663-.085,1.649-.094,1.952,1.529a25.621,25.621,0,0,0,1.364,4.685A1.3,1.3,0,0,1,355.767,179.906Z" transform="translate(-195.439 -96.158)" fill="#2d2961"/>
        <path id="Path_27" data-name="Path 27" d="M247.428,11.844c0-1.016.018-2.033-.009-3.045-.013-.535.357-.423.629-.4.294.027.8-.25.789.374a59.2,59.2,0,0,1-.116,6.477,2.317,2.317,0,0,1-2.487,2.153c-.285.009-.575-.022-.86,0-.539.04-.744-.147-.664-.722.058-.4.116-.5.562-.415,1.435.285,2.077-.241,2.126-1.712.031-.9,0-1.81,0-2.715Z" transform="translate(-136.056 -4.916)" fill="#14a89c"/>
        <path id="Path_28" data-name="Path 28" d="M582.188,14.047c-.727,0-1.453-.022-2.18.009-.468.018-.468-.245-.468-.584s.036-.584.486-.571c.945.027,1.9-.018,2.84.018.468.018.562-.152.508-.575a3.505,3.505,0,0,0-2.505-3.094c-.736-.245-.308-.629-.267-.967.062-.526.419-.317.687-.218,2.661.945,3.535,2.692,3.531,5.6,0,.343-.165.392-.45.388-.727-.013-1.453,0-2.18-.009Z" transform="translate(-321.636 -4.681)" fill="#14a89c"/>
        <path id="Path_29" data-name="Path 29" d="M267.031,14.05c-.7,0-1.413-.013-2.117,0-.374.013-.522-.12-.481-.495.031-.321-.071-.678.473-.66.949.027,1.9-.018,2.844.013.5.018.584-.174.526-.62a3.478,3.478,0,0,0-2.492-3.04c-.8-.263-.316-.664-.263-1.007.08-.544.432-.241.691-.156,2.808.923,3.539,2.987,3.5,5.608,0,.325-.192.348-.432.348h-2.251Z" transform="translate(-146.992 -4.676)" fill="#14a89c"/>
        <path id="Path_30" data-name="Path 30" d="M575.68,63.158c-.7,0-1.413-.031-2.113.009-.5.027-.455-.263-.45-.584s-.031-.593.459-.571c.923.04,1.854-.031,2.773.027.571.036.6-.21.535-.646a3.389,3.389,0,0,0-2.461-2.973c-.687-.218-.388-.58-.308-.954.111-.544.455-.334.753-.227,2.737.994,3.49,2.835,3.424,5.59-.009.33-.2.334-.432.33C577.133,63.153,576.406,63.158,575.68,63.158Z" transform="translate(-318.075 -31.931)" fill="#2d2961"/>
        <path id="Path_31" data-name="Path 31" d="M557.435,60.977c0,.95.022,1.9,0,2.849a2.823,2.823,0,0,1-3.847,2.6c-.517-.183-.174-.544-.187-.829-.013-.317.165-.348.432-.281a3.24,3.24,0,0,0,.718.1,1.257,1.257,0,0,0,1.431-1.163A7.342,7.342,0,0,0,556.089,63q.013-2.32,0-4.636c0-.477-.089-.86.664-.869.785,0,.7.406.7.9C557.426,59.256,557.435,60.117,557.435,60.977Z" transform="translate(-307.092 -32.149)" fill="#2d2961"/>
        <path id="Path_32" data-name="Path 32" d="M570.257,6.174c0-1.257.018-2.514-.009-3.771-.009-.441.143-.62.566-.544.352.062.878-.232.874.522-.022,2.581-.027,5.162,0,7.743.009.669-.406.522-.785.553-.446.036-.682-.053-.664-.6C570.283,8.777,570.257,7.476,570.257,6.174Z" transform="translate(-316.481 -1.302)" fill="#14a89c"/>
        <path id="Path_33" data-name="Path 33" d="M589.591,55.481c0,1.279-.031,2.559.014,3.838.018.553-.259.575-.642.522-.334-.045-.811.227-.8-.5.031-2.559.036-5.118,0-7.676-.009-.637.352-.526.713-.522.343,0,.753-.152.736.5C589.559,52.918,589.591,54.2,589.591,55.481Z" transform="translate(-326.414 -28.618)" fill="#2d2961"/>
        <path id="Path_34" data-name="Path 34" d="M258.082,6.259c0-1.279.031-2.559-.013-3.834-.022-.584.281-.58.691-.562.374.013.727-.08.718.535-.031,2.554-.036,5.113,0,7.667.013.767-.477.539-.874.593-.473.067-.544-.165-.539-.571.018-1.279.009-2.554.009-3.834Z" transform="translate(-143.469 -1.311)" fill="#14a89c"/>
        <path id="Path_35" data-name="Path 35" d="M479.7,6.3c0,1.257-.04,2.514.018,3.767.027.624-.281.6-.709.6s-.7,0-.7-.571c.031-2.532.04-5.064,0-7.6-.009-.664.321-.611.767-.633.473-.022.655.08.637.606C479.665,3.742,479.692,5.017,479.7,6.3Z" transform="translate(-265.532 -1.308)" fill="#08a79b"/>
        <path id="Path_36" data-name="Path 36" d="M281.121,6.307c0,1.279-.018,2.559.009,3.838.009.477-.2.571-.593.513-.348-.049-.816.192-.807-.513q.04-3.872,0-7.743c-.009-.7.459-.473.807-.517.392-.049.6.04.588.517-.031,1.3-.009,2.6-.009,3.9Z" transform="translate(-155.474 -1.319)" fill="#0ba79b"/>
        <path id="Path_37" data-name="Path 37" d="M471.542,55.474c0-1.279.031-2.559-.013-3.834-.022-.584.317-.508.664-.495s.74-.169.731.49c-.036,2.581-.031,5.158,0,7.739.009.7-.455.428-.762.455s-.651.116-.629-.455c.049-1.3.018-2.6.013-3.9Z" transform="translate(-261.773 -28.621)" fill="#292360"/>
        <path id="Path_38" data-name="Path 38" d="M568.094,55.457c0,1.279-.036,2.563.013,3.838.022.633-.348.526-.713.526s-.713.1-.7-.526q.06-3.839,0-7.681c-.009-.6.334-.495.669-.486s.767-.183.744.481C568.067,52.9,568.094,54.178,568.094,55.457Z" transform="translate(-314.514 -28.608)" fill="#292360"/>
        <path id="Path_39" data-name="Path 39" d="M457.426,100.012a1.672,1.672,0,0,0-1.043-.272c-2.6.013-5.207.018-7.81,0-.513,0-.678.134-.678.664q.02,19.231,0,38.462c0,.477.107.7.624.646a8.057,8.057,0,0,1,.927.009,7.307,7.307,0,0,1-1.355.236c-.254.067-.361-.053-.348-.316.013-.241,0-.486,0-.727q0-19.211-.018-38.421c0-.611.169-.713.731-.709,2.826.027,5.652.013,8.479.009C457.234,99.589,457.555,99.54,457.426,100.012Z" transform="translate(-248.584 -55.47)" fill="#2d2961"/>
        <path id="Path_40" data-name="Path 40" d="M543.7,51.857h-1.057c-.21,0-.473.062-.441-.3.022-.241-.107-.575.348-.517.156.018.187-.018.183-.21A1.546,1.546,0,0,1,544.81,49.3c.2.049.267.125.232.3-.04.2.031.473-.285.513a5.178,5.178,0,0,1-.526.009c-.267,0-.486.085-.513.392s.214.423.446.481a2.3,2.3,0,0,0,.655.04c.308-.013.482.036.482.419s-.192.419-.49.41C544.443,51.843,544.069,51.857,543.7,51.857Z" transform="translate(-300.938 -27.566)" fill="#2d2961"/>
        <path id="Path_41" data-name="Path 41" d="M413.622,51.82c-.352,0-.7.013-1.056,0-.165-.009-.459.12-.437-.218.013-.227-.2-.633.33-.6.263.018.174-.178.178-.316a1.6,1.6,0,0,1,2.153-1.422c.218.076.2.21.156.357-.053.165.076.432-.232.464a2.715,2.715,0,0,1-.33,0c-.343-.013-.749-.009-.736.441.009.406.415.446.749.486.352.04.9-.236.811.526-.027.236-.116.3-.325.294C414.456,51.815,414.041,51.82,413.622,51.82Z" transform="translate(-228.835 -27.529)" fill="#2d2961"/>
        <path id="Path_42" data-name="Path 42" d="M398.721,73.04a.764.764,0,0,1-.009,1.525.7.7,0,0,1-.762-.785.722.722,0,0,1,.771-.74Z" transform="translate(-220.994 -40.761)" fill="#2d2961"/>
        <path id="Path_43" data-name="Path 43" d="M243.529,52.55a.758.758,0,1,1,0,1.516.689.689,0,0,1-.744-.744.714.714,0,0,1,.744-.772Z" transform="translate(-135.001 -29.405)" fill="#2d2961"/>
        <path id="Path_44" data-name="Path 44" d="M515.981,24.754c-.031.437-.187.762-.691.789-.539.027-.758-.308-.771-.771a.683.683,0,0,1,.722-.762.694.694,0,0,1,.74.744Z" transform="translate(-285.6 -13.588)" fill="#14a89c"/>
        <path id="Path_45" data-name="Path 45" d="M365.416,3.567a.7.7,0,0,1-.78.7.67.67,0,0,1-.718-.762.712.712,0,0,1,.776-.736.724.724,0,0,1,.722.8Z" transform="translate(-202.133 -1.815)" fill="#14a89c"/>
        <path id="Path_46" data-name="Path 46" d="M297.286,24.794c-.067.428-.232.753-.74.74-.531-.009-.736-.316-.727-.8a.674.674,0,0,1,.753-.722.723.723,0,0,1,.714.782Z" transform="translate(-164.392 -13.587)" fill="#14a89c"/>
        <path id="Path_47" data-name="Path 47" d="M495.894,24.908c-.045.486-.285.762-.753.758a.738.738,0,1,1,.753-.758Z" transform="translate(-274.433 -13.687)" fill="#14a89c"/>
        <path id="Path_48" data-name="Path 48" d="M520.33,24.819c-.058.4-.223.718-.731.722-.539.009-.749-.29-.749-.78a.651.651,0,0,1,.673-.731.739.739,0,0,1,.807.789Z" transform="translate(-288 -13.599)" fill="#14a89c"/>
        <path id="Path_49" data-name="Path 49" d="M402.993,73.07a.724.724,0,0,1,.771.736.686.686,0,0,1-.718.776.671.671,0,0,1-.758-.727.7.7,0,0,1,.705-.785Z" transform="translate(-223.399 -40.778)" fill="#2d2961"/>
        <path id="Path_50" data-name="Path 50" d="M495.9,29.336a.7.7,0,0,1-.762.7.682.682,0,0,1-.753-.727c0-.513.285-.749.789-.736C495.65,28.583,495.869,28.846,495.9,29.336Z" transform="translate(-274.439 -16.114)" fill="#14a89c"/>
        <path id="Path_51" data-name="Path 51" d="M369.707,3.543a.658.658,0,0,1-.758.709.691.691,0,0,1-.722-.7.755.755,0,0,1,.771-.8.722.722,0,0,1,.709.791Z" transform="translate(-204.521 -1.8)" fill="#14a89c"/>
        <path id="Path_52" data-name="Path 52" d="M300.852,25.588a.717.717,0,0,1-.762-.749.664.664,0,0,1,.718-.749.681.681,0,0,1,.771.767.694.694,0,0,1-.727.731Z" transform="translate(-166.758 -13.632)" fill="#14a89c"/>
        <path id="Path_53" data-name="Path 53" d="M247.1,53.254a.665.665,0,0,1,.722-.7.742.742,0,1,1,.022,1.484.689.689,0,0,1-.744-.784Z" transform="translate(-137.39 -29.405)" fill="#2d2961"/>
        <path id="Path_54" data-name="Path 54" d="M134.8,20.127c.009-.125-.013-.317.165-.29a.437.437,0,0,1,.352.423c.013.138-.022.285-.2.281C134.871,20.532,134.8,20.345,134.8,20.127Z" transform="translate(-75.151 -11.274)" fill="#08a79b"/>
        <path id="Path_55" data-name="Path 55" d="M137.068,19.9c-.062.134-.152.267-.316.272-.138,0-.147-.125-.143-.236a.216.216,0,0,1,.254-.218C136.979,19.72,137.077,19.751,137.068,19.9Z" transform="translate(-76.153 -11.21)" fill="#08a79b"/>
        <path id="Path_56" data-name="Path 56" d="M94.188,1.5c0-.285-.013-.575-.022-.86Q47.881.643,1.6.63c-.5,0-.61.116-.61.611Q1.01,47.526,1,93.806c.285.009.575.022.86.022q45.77,0,91.54.013c.642,0,.8-.156.8-.8Q94.182,47.28,94.188,1.5ZM82.924,15.3c.183-.308.468-.232.74-.111.022.085.045.169.067.25a2.529,2.529,0,0,1-.009.263.168.168,0,0,0-.036.12.509.509,0,0,1-.709.022A.439.439,0,0,1,82.924,15.3Zm-1.431-.361a.084.084,0,0,0,.085-.04c.134,0,.267-.009.4-.009a.156.156,0,0,0,.116.027c.205.263.321.535.027.8a.42.42,0,0,1-.588.018c-.317-.247-.233-.519-.04-.8Zm.477,2.853a.443.443,0,0,1-.53-.116c-.192-.187-.089-.4-.071-.611a.075.075,0,0,0,.076-.045c.049-.036.1-.071.152-.107v.009c.294,0,.58.022.633.4A.421.421,0,0,1,81.97,17.792Zm-1.226.6a.717.717,0,0,1-.116.749h-.49c-.276-.686-.16-.829.6-.749-.008.008.006,0,.006,0Zm-.793-2.349a.377.377,0,0,1,.459-.16.4.4,0,0,1,.29.513,1.111,1.111,0,0,1-.2.33l-.009.009a1.315,1.315,0,0,1-.432-.116.39.39,0,0,1-.109-.574Zm-.758.86c.321.089.308.374.325.633-.031.076-.062.152-.094.232a1.379,1.379,0,0,1-.749.036h0c-.116-.254-.259-.513-.022-.78a.516.516,0,0,1,.539-.119Zm-.927-2.015a.167.167,0,0,0,.111.036c.138.25.259.513.049.776s-.5.152-.767.085c-.25-.707-.152-.846.606-.895Zm-.41,4.654a.524.524,0,0,1-.557.522c-.348-.009-.575-.183-.553-.571a.517.517,0,0,1,.539-.539c.343,0,.539.229.57.59ZM76.772,17.7c.267-.018.33.152.357.374,0,.236-.152.339-.374.33a.314.314,0,0,1-.33-.33.326.326,0,0,1,.347-.374Zm-.526-.9v.009c.036.294.16.615-.165.825a.732.732,0,0,1-.843-.107v-.691a.818.818,0,0,1,1.008-.036ZM73.38,19.442c.1-.089.205-.178.3-.272a1.211,1.211,0,0,1,.994.245,1.312,1.312,0,0,1-.031,1.03h-.009c-.334.143-.678.321-1.03.062-.383-.281-.3-.673-.223-1.061Zm-2.893.276c.089-.08.178-.165.267-.245a1.97,1.97,0,0,1,.455-.022.546.546,0,0,1,.441.637.5.5,0,0,1-.473.535.577.577,0,0,1-.682-.383,1.85,1.85,0,0,1-.009-.522Zm-1.712,2.135c.343,0,.535.254.6.593a.575.575,0,0,1-.6.571.507.507,0,0,1-.593-.539.542.542,0,0,1,.593-.625Zm-.664,6.04c-.446.276-.785.067-1.088-.272l-.04-.254c.232-.762.432-.856,1.3-.6l-.009.031c.166.4.309.8-.164,1.1Zm.178,2.5a.931.931,0,0,1-.985.116c-.107-.406-.272-.851.325-1.007.481-.128.713.206.66.888Zm-1.538-10.5c.049-.062.094-.129.143-.192l.009.013c.21-.04.392-.2.624-.125.383.125.615.392.481.785-.2.58-.637.557-1.11.343,0,0,0,.013-.009.013-.049-.062-.094-.129-.143-.192,0-.218,0-.432,0-.646ZM66.608,35.2a1.689,1.689,0,0,1-.16.357h0c-.111.009-.218.027-.33.027a.483.483,0,0,1-.53-.593.471.471,0,0,1,.553-.446.5.5,0,0,1,.467.655Zm-9,.406a.592.592,0,0,1-.771-.129.577.577,0,0,1-.053-.727.583.583,0,0,1,.74-.241,1.606,1.606,0,0,1,.41.3c0,.165,0,.33.009.495a1.516,1.516,0,0,1-.335.3Zm.508,6.562a.428.428,0,0,1,.5.419c-.022.227-.116.41-.388.423s-.481-.085-.495-.392a.4.4,0,0,1,.383-.451ZM57.024,33.06a.541.541,0,0,1-.615-.606.53.53,0,0,1,.522-.593c.539,0,.686.259.682.642A.524.524,0,0,1,57.024,33.06ZM55.918,48.346a.633.633,0,0,1,.7-.455c.245.018.383.187.557.312a.117.117,0,0,0,.027.107c-.018.259.022.53-.218.722a.652.652,0,0,1-.793.045.577.577,0,0,1-.273-.731Zm-.254-8.211c.009-.308.232-.45.539-.441a.42.42,0,0,1,.441.464.46.46,0,0,1-.513.486.467.467,0,0,1-.467-.509Zm.976,5.251a.6.6,0,0,1-.66-.651.591.591,0,0,1,.62-.682.669.669,0,1,1,.04,1.333Zm.664-7.195H56.72a.814.814,0,0,1-.205-.606.461.461,0,0,1,.566-.415c.45.053.477.379.441.736l.013.027c-.074.089-.154.173-.235.258Zm.878,8.015a.912.912,0,0,1,.843.86.852.852,0,0,1-.838.78.82.82,0,1,1,0-1.64Zm.673-6.009a.386.386,0,0,1,.423-.4c.29,0,.446.129.455.4-.013.317-.16.459-.455.455a.4.4,0,0,1-.422-.452Zm.762-8.3c.076-.018.152-.031.223-.049h.4a.162.162,0,0,0,.12.027c.267.3.446.624.129.981a.571.571,0,0,1-.825.089c-.411-.313-.228-.687-.046-1.045Zm0,3.178a.561.561,0,0,1,.629-.6.574.574,0,0,1,.62.62c.009.4-.245.58-.629.606a.589.589,0,0,1-.614-.626Zm1.021-7.614a.743.743,0,0,1,.771-.816.785.785,0,0,1,.8.744c-.062.544-.317.843-.82.825a.711.711,0,0,1-.745-.753Zm1.846-4.988c.013.045.022.085.036.129V23a.632.632,0,0,1-.66.374c-.308-.223-.544-.5-.285-.869s.607-.257.914-.034Zm-.807-4a.447.447,0,0,1,.441-.513c.317.013.508.147.517.473a.43.43,0,0,1-.455.508.443.443,0,0,1-.5-.471Zm.7,10.757a.6.6,0,0,1,.633.682.624.624,0,1,1-1.248.018.6.6,0,0,1,.62-.7ZM62.4,39.987c.156.013.223.125.223.276a.23.23,0,0,1-.259.232.233.233,0,0,1-.254-.241.237.237,0,0,1,.295-.271Zm.107-7.462.018-.013c.1-.214.165-.473.495-.423a.367.367,0,0,1,.312.205c.125.285-.04.455-.245.6l-.04-.009-.031.027a1.911,1.911,0,0,1-.227-.018V32.9c-.093-.128-.183-.257-.277-.382Zm.3,2.242-.022-.04.045.018a1.46,1.46,0,0,1,.383-.049.354.354,0,0,1,.33.41.344.344,0,0,1-.33.343.349.349,0,0,1-.437-.294,1.647,1.647,0,0,1,.039-.392Zm.281-8.978-.33-.027h0a1.535,1.535,0,0,1-.25-.294.789.789,0,0,1,.107-1.025.728.728,0,0,1,.9-.147.767.767,0,0,1,.388.9.719.719,0,0,1-.807.589Zm.793-4.721a.564.564,0,0,1-.588-.432.649.649,0,0,1,.981-.722,2.027,2.027,0,0,1,.317.33,1.027,1.027,0,0,1-.25.767,2.753,2.753,0,0,1-.452.053Zm.691,5.8c.325,0,.45.223.49.522-.058.281-.21.508-.517.481a.486.486,0,0,1-.455-.548.466.466,0,0,1,.49-.455Zm.865,2.238a.726.726,0,0,1,.767.731.657.657,0,0,1-.7.767.667.667,0,0,1-.776-.7.721.721,0,0,1,.717-.8Zm.009,2.8c.138,0,.281,0,.419.009.41.5.392.914-.053,1.021-.232.058-.5.067-.629-.2a.6.6,0,0,1,.271-.83Zm.419-6.553a.465.465,0,0,1-.49-.5c-.013-.366.2-.517.53-.522a.48.48,0,0,1,.508.464c-.032.353-.179.571-.54.558Zm-.107-7.89a.623.623,0,0,1,.651.678.6.6,0,0,1-.637.611.574.574,0,0,1-.66-.58c0-.5.253-.714.654-.71Zm-.673,4.52a.71.71,0,0,1,.856.1.673.673,0,0,1,.165.785.659.659,0,0,1-.74.415,2.544,2.544,0,0,1-.5-.156h0c-.161-.427-.295-.868.225-1.144ZM64.714,16.3a2.624,2.624,0,0,1-.129.441l.027.027-.027-.027a2.472,2.472,0,0,1-.432.147.7.7,0,0,1-.865-.664.686.686,0,0,1,.722-.762.7.7,0,0,1,.7.838Zm-1.155-4.832a.63.63,0,0,1,.686.713.6.6,0,0,1-.678.642.615.615,0,0,1-.691-.637.63.63,0,0,1,.683-.719Zm-.825,3a.664.664,0,0,1-.744.669.632.632,0,0,1-.642-.7.694.694,0,1,1,1.386.027Zm-.976-4.458a.528.528,0,0,1,.584.566.55.55,0,0,1-.588.633c-.392,0-.606-.2-.611-.41,0-.607.227-.79.615-.785Zm-.927,10.9c-.1.383-.4.423-.722.4-.04-.013-.08-.031-.12-.045a.368.368,0,0,0-.031-.058.6.6,0,0,1,.062-.834.428.428,0,0,1,.6-.045.529.529,0,0,1,.211.585Zm-.611-3.736a.409.409,0,0,1-.473-.428.447.447,0,0,1,.5-.486c.285,0,.423.187.432.468a.412.412,0,0,1-.459.449ZM59.623,13a.472.472,0,0,1,.62-.339,1.8,1.8,0,0,1,.357.156h.009a1.438,1.438,0,0,1-.009.392.491.491,0,0,1-.664.361.441.441,0,0,1-.313-.57Zm.508,11.439a.65.65,0,0,1,.736.7.747.747,0,0,1-1.493.04.666.666,0,0,1,.757-.74Zm-.138,5.483a.616.616,0,0,1-.642.678.694.694,0,1,1,.642-.678Zm-.976-6.575v.009c-.071.053-.138.107-.214.156a.483.483,0,0,1-.771-.2.442.442,0,0,1,.317-.669.491.491,0,0,1,.664.446A1.65,1.65,0,0,1,59.017,23.347Zm-.045-4.315a.549.549,0,0,1-.58.593.562.562,0,0,1-.593-.584.515.515,0,0,1,.477-.575C58.763,18.465,58.985,18.675,58.972,19.032Zm-.923-4.409c.415-.009.6.218.62.62a.6.6,0,1,1-1.2-.045.527.527,0,0,1,.58-.575ZM58.2,26.73a.816.816,0,0,1,.829.838.846.846,0,1,1-1.689-.053C57.354,26.966,57.684,26.739,58.2,26.73Zm-.887-1.15a2.248,2.248,0,0,1-.156.428l.027.04-.031-.036a3.636,3.636,0,0,1-.374.116.68.68,0,0,1-.807-.4.649.649,0,0,1,.116-.785.717.717,0,0,1,.9-.147.659.659,0,0,1,.321.784ZM57.2,21.336a.649.649,0,0,1-1.3-.026.59.59,0,0,1,.629-.62.581.581,0,0,1,.664.646Zm-.976-4.427a.54.54,0,0,1,.6.6c-.018.419-.214.624-.624.6a.559.559,0,0,1-.58-.642.545.545,0,0,1,.6-.557Zm-.1,12.459c.4-.036.593.214.66.6a.586.586,0,0,1-.624.6.538.538,0,0,1-.606-.548.555.555,0,0,1,.564-.651ZM43.66,58.888c-.1.089-.205.178-.312.267-.067.013-.134.022-.2.036l-.522-.027h0a.892.892,0,0,1-.388-1.088c.147-.423.513-.5.9-.5.071.018.143.031.214.049.094.085.187.169.281.25h0a1.823,1.823,0,0,1,0,1.025.064.064,0,0,1,.027-.012ZM32.8,58.233h0c-.263.147-.526.236-.758-.045a.4.4,0,0,1-.009-.539c.232-.272.5-.169.771-.04a.178.178,0,0,0,.031.107c-.013.174-.027.343-.036.517Zm-5.024.143-.031-.027a1.666,1.666,0,0,1-.3.111c-.33.058-.571-.053-.611-.41a.433.433,0,0,1,.428-.539.449.449,0,0,1,.53.508,2.645,2.645,0,0,1-.045.321c-.006.009.025.036.025.036ZM15.7,48.689c.062-.116.107-.236.16-.357h0c.147-.049.285-.107.437-.143a.841.841,0,0,1,1.039.486.851.851,0,0,1-.267,1.119.861.861,0,0,1-1.1,0,.825.825,0,0,1-.269-1.1Zm-.236-1.146a.907.907,0,0,1-.9-.936.928.928,0,0,1,.9-.887.915.915,0,0,1,.918.923.845.845,0,0,1-.918.9ZM17.8,50.33a.676.676,0,0,1,.709.776.69.69,0,0,1-.811.74c-.464-.027-.7-.334-.682-.878a.68.68,0,0,1,.784-.638ZM18.924,47a.775.775,0,0,1,1.048.517c.04.125.062.254.094.379l-.254.535a2.05,2.05,0,0,1-.486.174c-.459.058-.847-.071-.954-.575A.772.772,0,0,1,18.924,47Zm-.406,14.568c.08-.013.16-.022.245-.036.352,0,.664.089.771.473a.705.705,0,0,1-.927.909C18.077,62.722,18.041,62.134,18.518,61.568Zm.914-2.389a.5.5,0,0,1,.606-.53c.348.022.481.259.535.539-.076.374-.259.593-.637.562a.5.5,0,0,1-.5-.572Zm.954-8.336a.672.672,0,0,1-.686-.727.651.651,0,0,1,.749-.713.665.665,0,0,1,.691.718c0,.485-.313.672-.754.721ZM22.739,37.8a1.9,1.9,0,0,1-.2.4h-.013a1.44,1.44,0,0,1-.446-.054.472.472,0,0,1-.241-.66.44.44,0,0,1,.53-.281.456.456,0,0,1,.375.595Zm.437,2.229a.471.471,0,0,1-.2.722c-.406.245-.709-.013-.785-.66a.087.087,0,0,0,.04-.089c.321-.269.66-.389.945.026Zm-1.364,5.648a.83.83,0,0,1,.811.923.771.771,0,0,1-.785.753.838.838,0,0,1-.027-1.676Zm.615,7.03a1.726,1.726,0,0,1-.388.348l-.41-.027a2.234,2.234,0,0,1-.334-.312.684.684,0,0,1,1.007-.9.662.662,0,0,1,.125.89ZM21.2,55.385a.5.5,0,0,1,.5.526c-.045.406-.241.606-.6.575a.508.508,0,0,1-.49-.571.5.5,0,0,1,.59-.53Zm-.339,7.632a1.02,1.02,0,0,0,.036-.125h0a1.171,1.171,0,0,0,.12-.045c.348-.169.682-.2.923.165a.594.594,0,0,1-.062.785.6.6,0,0,1-.776.125.628.628,0,0,1-.244-.906Zm.767-1.413a3.8,3.8,0,0,1-.45-.076h0a2.478,2.478,0,0,1-.241-.455.748.748,0,0,1,1.177-.8.707.707,0,0,1,.254.816.673.673,0,0,1-.743.511Zm.464-3.985c-.018-.3.165-.428.473-.437.236.031.441.125.441.432a.424.424,0,0,1-.486.477c-.307,0-.414-.223-.431-.473Zm.392-8.813a.52.52,0,0,1,.58-.566.548.548,0,0,1,.593.629c-.013.361-.241.544-.432.535-.566-.028-.744-.238-.744-.6Zm1.052,5.082a.407.407,0,0,1,.419.4c0,.4-.174.535-.459.53a.464.464,0,1,1,.04-.927Zm.379-2.947a.59.59,0,0,1,.637-.6.673.673,0,0,1,.009,1.346.643.643,0,0,1-.649-.747Zm-.682,11.5c.16-.406.481-.388.9.049,0,.089.009.174.013.263a.07.07,0,0,0-.013.071h-.018c-.2.218-.423.406-.731.192a.451.451,0,0,1-.154-.579Zm.744-3.013a.45.45,0,0,1,.468-.459c.321-.013.477.183.5.5a.478.478,0,0,1-.508.481.448.448,0,0,1-.463-.527Zm.865-3.227a.461.461,0,0,1,.477-.441.433.433,0,0,1,.477.432,2.262,2.262,0,0,1-.076.508l.022.045-.045-.022a1.825,1.825,0,0,1-.513.031.467.467,0,0,1-.345-.554Zm4.44-4.3c-.192.227-.428.156-.624-.045l-.067-.308c.1-.1.2-.2.3-.29.089.009.178.013.272.022.2.164.3.391.116.614ZM29.3,42.72a.417.417,0,0,1,.423-.481.39.39,0,0,1,.455.366c.009.361-.12.526-.419.544S29.319,43,29.3,42.72Zm-.74,11.84a.12.12,0,0,0,.031.107c-.018.254.031.539-.317.633a.476.476,0,0,1-.481-.12.42.42,0,0,1-.1-.481c.213-.451.538-.34.864-.139Zm-.26-8.742a.406.406,0,0,1,.464.169.57.57,0,0,1-.094.713c-.2,0-.388,0-.584-.009C27.9,46.335,27.754,45.983,28.3,45.818Zm.486-5.091c-.272,0-.473-.125-.477-.428a.43.43,0,0,1,.477-.495.407.407,0,0,1,.477.423c-.006.313-.153.5-.479.5ZM28.641,38.2a.064.064,0,0,0-.071.045c-.259.022-.539.125-.767-.067a.623.623,0,0,1,.455-1.1.593.593,0,0,1,.557.562A.982.982,0,0,1,28.641,38.2Zm-1.6,14.764a.8.8,0,0,1-.789.86.823.823,0,0,1-.816-.856.753.753,0,0,1,.825-.758.738.738,0,0,1,.78.759Zm-.147-3.486a.362.362,0,0,1,.437-.2.379.379,0,0,1,.3.49,1.85,1.85,0,0,1-.156.348h0a1.36,1.36,0,0,1-.437-.071.405.405,0,0,1-.144-.562Zm-1.155-1.525a.383.383,0,0,1-.406-.423.36.36,0,0,1,.361-.392c.267-.027.392.143.45.37-.017.272-.15.446-.405.45Zm-.593-8.621c-.25-.21-.178-.468-.036-.713.6-.214.82.04.749.629-.218.164-.459.3-.712.089Zm.606,24.344a.462.462,0,1,1,.05.922.419.419,0,0,1-.5-.464.427.427,0,0,1,.451-.453Zm.49-2.893a.369.369,0,0,1,.539,0c.3.276.111.508-.094.731v.013c-.08,0-.156.009-.236.009a.042.042,0,0,0-.058-.031c-.279-.192-.393-.441-.15-.718Zm2.421.874a.917.917,0,0,1,.95.883.915.915,0,1,1-.949-.883Zm.762-1.765a.331.331,0,0,1-.343-.383.317.317,0,0,1,.321-.334.323.323,0,0,1,.374.334c-.017.235-.115.4-.351.391Zm.317-3.5c.071-.361.348-.4.651-.379L30.4,56l.267.308c0,.107,0,.21.009.316a.555.555,0,0,1-.722.259.4.4,0,0,1-.213-.487ZM31.084,45.4a.368.368,0,0,1-.441-.423c0-.245.1-.406.388-.41s.446.129.455.473a.369.369,0,0,1-.4.364Zm-.37,8.278a.079.079,0,0,0-.036-.08c0-.134,0-.267,0-.4a.573.573,0,0,1,.5-.107c.25.52.08.705-.464.591Zm-.267-17.234c-.053-.566.348-.62.771-.611a.082.082,0,0,0,.094.031c.3.588.227.981-.21,1.043-.352.054-.619-.084-.655-.458ZM30.8,62.865c.6,0,.834.308.829.789a.719.719,0,0,1-.789.785.744.744,0,0,1-.78-.807.7.7,0,0,1,.74-.767Zm.464-1.814a.422.422,0,0,1,.107-.481.432.432,0,0,1,.49-.085c.477.236.281.557.08.869v.04l-.027-.031c-.272,0-.544.013-.651-.313Zm1.284-19.164h-.013c-.232-.045-.5-.027-.58-.334a.413.413,0,0,1,.111-.428c.25-.214.49-.085.722.062v.486c-.077.071-.157.142-.242.214Zm.481,4.854c.036.192.111.388-.067.548a.4.4,0,0,1-.419.1.352.352,0,0,1-.236-.357c0-.33.241-.37.486-.406a2.326,2.326,0,0,0,.235.115Zm-.918,3.517a.281.281,0,0,1-.25.33.329.329,0,1,1-.089-.651.309.309,0,0,1,.338.321Zm.718,4.449c.259-.076.553-.138.6.223s-.259.3-.49.3c-.192-.14-.13-.336-.112-.523ZM43.722,36.034a.874.874,0,0,1-1.106,1.132l-.053-.013a1.012,1.012,0,0,1-.178-1.529H42.4C42.924,35.494,43.459,35.374,43.722,36.034ZM42.42,33.8a.462.462,0,0,1,.481-.513c.33,0,.548.138.539.406.018.428-.16.588-.468.606a.465.465,0,0,1-.552-.5Zm7.346-4.048h0a2.092,2.092,0,0,1,.259.45.817.817,0,0,1-.334.99.765.765,0,0,1-.976-.076.785.785,0,0,1-.232-.958.776.776,0,0,1,.9-.5A3.815,3.815,0,0,1,49.766,29.752Zm1.217,1.993a2.22,2.22,0,0,1,.374.1c.085.1.169.192.254.29v.78h0a2.666,2.666,0,0,1-.352.285.757.757,0,0,1-.918-.085.716.716,0,0,1-.2-.892.778.778,0,0,1,.843-.473Zm-.276-3.593a.315.315,0,0,1,.348-.316.34.34,0,0,1,.379.361c-.036.223-.152.366-.392.357a.34.34,0,0,1-.335-.4Zm-2.857,9.91-.036-.031c-.459.08-.909.1-1.074-.459a.677.677,0,0,1,.3-.811.639.639,0,0,1,.847.089.655.655,0,0,1,.178.834c-.062.116-.143.223-.214.334C47.845,38.013,47.85,38.062,47.85,38.062Zm.272,4.89a2.921,2.921,0,0,1,.374-.446h.557a.826.826,0,0,1,.473.86.716.716,0,0,1-.526.606.633.633,0,0,1-.762-.227.67.67,0,0,1-.116-.793Zm1.217-2.612h-.2c-.312-.178-.615-.366-.526-.8a.563.563,0,0,1,.522-.5.57.57,0,0,1,.678.374c.172.48-.095.725-.474.926Zm-.553-6.009a.723.723,0,0,1,.508.82.7.7,0,0,1-.655.7.722.722,0,0,1-.878-.588,2.27,2.27,0,0,0-.085-.245v-.04a2.292,2.292,0,0,0,.129-.227.728.728,0,0,1,.981-.42Zm-.606-1.2a.8.8,0,0,1-.985.468c-.267-.04-.388-.281-.58-.415h0a1.018,1.018,0,0,1,.686-1.293c.1,0,.205.013.3.018.516.255.806.634.579,1.223Zm-1-3.419c-.183.009-.366.013-.548.022a.622.622,0,0,1-.013-.749c.634-.106.772.175.558.727Zm-.062,10.507a.576.576,0,0,1,.374.74.522.522,0,0,1-.62.45,3.121,3.121,0,0,1-.49-.152.112.112,0,0,0-.067-.107c-.027-.236-.12-.49.045-.7a.63.63,0,0,1,.754-.231ZM45.585,43.5a.677.677,0,0,1,.829-.37,3.411,3.411,0,0,1,.423.152h0a2.565,2.565,0,0,1,.138.432.719.719,0,0,1-.432.807.7.7,0,0,1-.843-.169A.72.72,0,0,1,45.585,43.5Zm-.214-4.8a.125.125,0,0,0-.107.062c-.437.031-.838,0-1.07-.459a.937.937,0,0,1,.276-1.128,1.53,1.53,0,0,1,1.016.04.981.981,0,0,1-.115,1.485Zm1.012-3.352a.764.764,0,0,1-.749.544.774.774,0,0,1-.829-.522,2.078,2.078,0,0,1-.067-.584.125.125,0,0,0,.045-.116.916.916,0,0,1,1.324-.267.787.787,0,0,1,.276.944ZM44.966,32.69c-.317.013-.5-.111-.508-.45a.453.453,0,0,1,.45-.5c.352.018.517.187.513.5a.427.427,0,0,1-.455.45ZM44.7,29.721c-.312.094-.642.272-.847-.156a.464.464,0,0,1,.067-.553.607.607,0,0,1,.785-.031,1.347,1.347,0,0,1,0,.74Zm-.428,10.351a4.026,4.026,0,0,1,.459.053.079.079,0,0,0,.085.058,2.173,2.173,0,0,1,.192.548.684.684,0,0,1-.682.8.732.732,0,1,1-.053-1.462Zm-.86,12.607c.1-.535.366-.923.954-.86a.729.729,0,0,1,.682.758.7.7,0,0,1-.535.793c-.553.16-.86-.143-1.092-.584a.1.1,0,0,0-.007-.107ZM39.429,41.4h0a2.956,2.956,0,0,1-.4.018c-.232-.018-.272-.192-.276-.379a.36.36,0,0,1,.352-.4.373.373,0,0,1,.41.263c.08.192-.031.339-.089.5Zm-.259,9.54.218.04c.241.321.423.66-.085.887a.4.4,0,0,1-.575-.263c-.119-.388.131-.553.443-.664Zm.388-1.618a2.154,2.154,0,0,1-.352-.174l-.1-.169c-.143-.776.04-1.155.584-1.217a.747.747,0,0,1,.843.374.815.815,0,0,1-.08.932.781.781,0,0,1-.894.254Zm.749-12.152a.413.413,0,0,1,.446.513.421.421,0,0,1-.517.383c-.325-.036-.428-.276-.383-.575a1.246,1.246,0,0,1,.125-.3h0a2.733,2.733,0,0,1,.329-.021Zm.223,9.072c-.366-.009-.642-.178-.642-.6a.584.584,0,0,1,.611-.624c.4.031.629.241.611.637a.544.544,0,0,1-.58.586Zm1.132,5.269a.643.643,0,0,1,.7.731c.027.45-.267.664-.686.678a.7.7,0,1,1-.009-1.409Zm.66-1.413c-.633-.018-.785-.455-.749-1,.031-.013.04-.031.027-.062.637-.629.967-.611,1.507.085h.009c-.016.535-.147.994-.794.974Zm-.816-10.427a.387.387,0,0,1,.446-.437c.21.009.379.094.4.343.027.285-.085.468-.374.5a2.3,2.3,0,0,1-.388-.027l-.036.031.031-.036a2.3,2.3,0,0,1-.078-.375Zm1.239,7.493c-.1-.04-.205-.076-.308-.111l-.036.022.018-.04a2.877,2.877,0,0,1-.107-.383.635.635,0,0,1,.352-.771.655.655,0,0,1,.838.165.7.7,0,0,1-.758,1.119Zm.883-2.835a.638.638,0,0,1-.682-.718.6.6,0,0,1,.691-.624.575.575,0,0,1,.669.633.62.62,0,0,1-.678.709ZM41.935,30.956a.471.471,0,0,1-.031-.941.445.445,0,0,1,.495.5.417.417,0,0,1-.464.441Zm-.8-3.076c-.263-.009-.366-.2-.366-.446,0-.281.192-.379.423-.388.254-.009.4.134.383.588-.006.1-.162.255-.438.246Zm.018,14.046a.677.677,0,0,1,.789.544.792.792,0,0,1-1.27.838.733.733,0,0,1-.205-.95c.053-.12.129-.227.192-.343a.12.12,0,0,0,.1-.067c.132-.008.266-.012.395-.021ZM40.3,32.98a.428.428,0,0,1-.468-.45.461.461,0,0,1,.513-.459.391.391,0,0,1,.419.406.429.429,0,0,1-.464.5Zm-.12,1.841h.013c0,.16,0,.321.009.481h0a.619.619,0,0,1-.762.2.051.051,0,0,0-.058.027c-.062-.138-.125-.272-.187-.41a.482.482,0,0,0,.049-.08.1.1,0,0,0-.018-.045c.239-.472.569-.494.952-.173Zm-.539-5.434c-.08.138-.259.223-.392.33a1.18,1.18,0,0,0-.178.009c-.232-.129-.459-.259-.455-.58a.479.479,0,0,1,.308-.517.525.525,0,0,1,.606.1.513.513,0,0,1,.109.658Zm-.758,14.867a.6.6,0,1,1-1.19-.022c-.013-.428.232-.58.584-.629.39.053.617.241.6.651Zm-2.456-7.9a.458.458,0,1,1,.473.508.435.435,0,0,1-.475-.512Zm.379,5.978c0,.33-.143.45-.41.437a.356.356,0,0,1-.379-.361.391.391,0,0,1,.388-.432.365.365,0,0,1,.4.352Zm.267,4.694c.245-.16.5-.29.762-.049s.125.508-.022.758v.013a.78.78,0,0,1-.744-.156c0-.192,0-.383,0-.57Zm.838-7.73a.442.442,0,0,1-.544-.031.54.54,0,0,1-.053-.762.682.682,0,0,1,.753.04c.065.272.15.557-.158.749Zm.178-7.7h0a1.336,1.336,0,0,1-.361.138c-.3.027-.522-.1-.535-.428a.425.425,0,0,1,.455-.508c.339-.008.49.143.477.473,0,.107-.027.218-.036.325Zm-.878,1.591a.085.085,0,0,1,.1.04c.129.027.152.12.152.232h0a.376.376,0,0,1,0,.548h0l-.129.183a.645.645,0,0,1-.78.156.7.7,0,0,1-.272-.874c.022-.089.045-.174.071-.263a.086.086,0,0,1,.062-.049c.273-.078.54-.2.794.025ZM36.4,28.3a.487.487,0,0,1-.526-.548.531.531,0,1,1,1.061.018.475.475,0,0,1-.535.53Zm-.624,17.786v.027c-.183.009-.366.022-.553.031v.013l-.281-.4v-.205c.2-.267.428-.477.767-.263.364.217.2.52.065.8Zm-2.015-2.817a.409.409,0,0,1,.379.45c0,.29-.2.366-.441.361a.342.342,0,0,1-.374-.419.407.407,0,0,1,.434-.393Zm.031-6.138a.644.644,0,0,1,.838.071c.325.317.2.673.013,1.012a1.119,1.119,0,0,1-1.016,0c-.144-.393-.314-.79.163-1.084ZM33.853,51.4c.357.049.513.25.477.548a.45.45,0,0,1-.49.432.456.456,0,0,1-.477-.508C33.371,51.547,33.607,51.444,33.853,51.4Zm.3-2.545a.44.44,0,0,1,.486-.495c.281.013.415.21.428.53a.414.414,0,0,1-.45.419.435.435,0,0,1-.461-.451Zm.892-8.167a.5.5,0,0,1-.517-.571.46.46,0,0,1,.5-.49c.3.013.45.227.45.539a.456.456,0,0,1-.431.526ZM35,30.48a.46.46,0,0,1-.477-.513.433.433,0,0,1,.428-.477.422.422,0,0,1,.5.4c.015.38-.15.589-.449.594Zm-.236,1.707a.672.672,0,0,1-.169.78.619.619,0,0,1-.669.138.629.629,0,0,1-.441-.655,2.307,2.307,0,0,1,.165-.553l.25-.08a.669.669,0,0,1,.866.374ZM33.71,34.415a.635.635,0,0,1,.8.5.611.611,0,0,1-.423.789.652.652,0,0,1-.838-.334,1.127,1.127,0,0,1-.067-.58l.076-.116A1.721,1.721,0,0,1,33.71,34.415Zm-.343,26.938a.872.872,0,0,1,1.186-.174,4.3,4.3,0,0,1,.361.276.1.1,0,0,0,.036.1c.085.553.062,1.088-.566,1.3a.865.865,0,0,1-1.092-.361.855.855,0,0,1,.075-1.14Zm1.342-1.6a.585.585,0,0,1-.593-.646.611.611,0,1,1,1.221.049c0,.41-.237.579-.629.6Zm.406-3.539c0-.16.071-.321.263-.312s.348.085.343.317c0,.178-.071.3-.267.3-.237.034-.335-.114-.34-.305Zm.517-2.951a.391.391,0,0,1,.437-.45.415.415,0,0,1,.477.419.425.425,0,0,1-.468.5.436.436,0,0,1-.447-.469Zm.321,9.085a.441.441,0,0,1,.49-.1c.321.089.348.361.339.637a.727.727,0,0,1-.78.254c-.152-.261-.277-.519-.05-.791Zm.415-12.063c.018-.3.183-.419.481-.4a.381.381,0,0,1,.392.428.4.4,0,0,1-.41.45c-.339-.023-.482-.188-.464-.478Zm.8,9.41c.267-.013.392.143.415.4-.031.25-.165.406-.423.392a.375.375,0,0,1-.379-.437.36.36,0,0,1,.388-.35Zm.147-2.47c-.027-.352.214-.49.526-.548.312.049.535.205.526.548a.527.527,0,0,1-1.052,0Zm.691-2.331v-.009c-.036-.036-.071-.067-.1-.1l-.071-.111a.839.839,0,0,1,.361-.958c.392-.223.651.036.941.223.013.25.022.495.036.744a.878.878,0,0,1-1.166.211Zm1.168,5.425a.668.668,0,0,1,.95-.1c.49.308.415.82-.187,1.324H39.46a.793.793,0,0,1-.285-1.224ZM40.369,58.7a.724.724,0,0,1-.758-.731.7.7,0,0,1,.731-.771.682.682,0,0,1,.771.722.717.717,0,0,1-.743.781Zm.535-2.857a.753.753,0,0,1,.1-1.5,2.941,2.941,0,0,1,.513.089h0c.111.254.339.481.25.793a.735.735,0,0,1-.87.62Zm.941,4.953v-.013a.88.88,0,0,1,1.016.156.065.065,0,0,0,.027.085c0,.459-.107.874-.678.762s-.449-.58-.365-.991Zm.887-5.153a.894.894,0,0,1,.829-1.056.876.876,0,0,1,.941.95,4.2,4.2,0,0,1-.076.522l.022.027-.031-.009c-.846.542-1.586.355-1.685-.434Zm1.636,5.331a.511.511,0,0,1,.771.241,2.028,2.028,0,0,1,.094.446h0a1.774,1.774,0,0,1-.294.259.513.513,0,0,1-.78-.214.5.5,0,0,1,.209-.732Zm.5-10.529a.733.733,0,1,1,.111-1.462c.468.027.691.317.678.811a.671.671,0,0,1-.785.651Zm.682-2.933a.667.667,0,0,1-.678-.713.653.653,0,0,1,.7-.7.709.709,0,1,1-.027,1.418ZM46.321,52a.785.785,0,0,1,.976-.129c.5.285.477.74.357,1.213-.646.53-.914.522-1.547-.04A1.019,1.019,0,0,1,46.321,52Zm1.021-1.725a.628.628,0,0,1-.481-.557c-.076-.455.21-.673.548-.865.107.009.21.013.317.022a.743.743,0,0,1,.446,1.061.651.651,0,0,1-.83.336Zm.838-3.062a.631.631,0,0,1-.66-.727.671.671,0,1,1,1.342-.027c-.005.5-.241.755-.682.75Zm1.32,4.253a.717.717,0,0,1,.758.744.707.707,0,0,1-.811.753.668.668,0,0,1-.722-.758.736.736,0,0,1,.775-.739Zm.6-1.716a.682.682,0,0,1-.7-.709.65.65,0,0,1,.727-.74.626.626,0,0,1,.7.682c.019.5-.253.717-.721.767Zm-.027-3.6a1,1,0,0,1-.009-.994c.388-.218.78-.33,1.114.067a.616.616,0,0,1-.036.887c-.328.359-.7.23-1.063.038Zm1.043-3.785a.409.409,0,0,1-.495-.4c-.013-.29.169-.432.459-.432a.363.363,0,0,1,.41.4c.01.252-.09.413-.368.431Zm-.031-4.088c-.651.009-.918-.223-.914-.664a.64.64,0,0,1,.633-.7.671.671,0,0,1,.753.722.567.567,0,0,1-.466.641Zm.464-2.376a2.245,2.245,0,0,1-.388.009l-.031.022c-.183-.183-.366-.37-.548-.553l.013-.031-.027-.027c-.018-.464.076-.883.575-1.052a.86.86,0,0,1,1.123.6.828.828,0,0,1-.712,1.031ZM51.9,47.65c.3-.263.629-.513,1.025-.21a.72.72,0,0,1,.111,1.039.14.14,0,0,0-.089.085.891.891,0,0,1-1.056-.263h0C51.9,48.083,51.9,47.869,51.9,47.65Zm.74-2.924c-.406-.236-.272-.584-.2-.923l.027-.031c.343-.085.7-.178.927.21a.492.492,0,0,1-.1.651.528.528,0,0,1-.652.093Zm.571-4.378h0c-.089.013-.174.036-.259.045-.285.018-.553-.009-.53-.392a.4.4,0,0,1,.441-.392c.339.009.441.236.383.548-.013.062-.027.129-.036.192Zm.125-7.9c.018-.441.285-.611.678-.629a.6.6,0,0,1,.633.7.622.622,0,0,1-.7.633.6.6,0,0,1-.61-.7ZM55.058,34.8h0c0,.174,0,.348.009.522a.05.05,0,0,0-.031.067c-.624.49-1.172.428-1.3-.152a.628.628,0,0,1,.294-.74C54.474,34.241,54.777,34.5,55.058,34.8Zm-1.386,2.407a.061.061,0,0,0,.071-.036l.522.013h0a.63.63,0,0,1-.058,1.03l-.446-.027a.619.619,0,0,1-.089-.981Zm.374,9.036a.762.762,0,0,1,1.083-.259.633.633,0,0,1,.174.878c-.254.535-.8.464-1.288-.147.013-.157.022-.315.031-.473Zm.722-3.174a.689.689,0,1,1,.622-.329.689.689,0,0,1-.622.329Zm.66-15.049c-.205.553-.682.45-1.123.383H54.3c-.094-.129-.183-.263-.276-.392,0-.125-.013-.254-.018-.379a.773.773,0,0,1,1.061-.5.652.652,0,0,1,.365.886Zm-.067-4.079a.69.69,0,0,1-.7.383,1.017,1.017,0,0,1-.62-.325c-.018-.2-.031-.4-.049-.6a.94.94,0,0,1,.58-.5.656.656,0,0,1,.7.245.684.684,0,0,1,.089.791Zm-.99-4.69a.585.585,0,0,1,.633.584c-.071.4-.267.637-.66.624a.561.561,0,0,1-.575-.655.541.541,0,0,1,.6-.554Zm-.62,10.77a.932.932,0,0,1-.762.941.746.746,0,0,1-.843-.374.794.794,0,0,1,.156-1.119.772.772,0,0,1,1.123.022,2.694,2.694,0,0,1,.312.419.1.1,0,0,0,.015.11Zm-.16-4.386a.74.74,0,0,1-.2.847.767.767,0,0,1-.807.1.619.619,0,0,1-.432-.655c0-.129.009-.263.013-.392h0a.345.345,0,0,0,.21-.259l.178-.08c.447-.1.856-.039,1.039.438Zm-.446-3.588c.089.53-.254.731-.722.789h-.058c-.156-.129-.312-.263-.468-.392a.136.136,0,0,0-.022-.116,1.116,1.116,0,0,1,.3-.771h0c.436-.057.877-.065.971.488Zm-1.128-3.958c.423-.009.562.263.637.566-.058.428-.263.646-.655.642a.541.541,0,0,1-.584-.575.572.572,0,0,1,.6-.635Zm-.7,5.875c.236,1.03.009,1.319-1.021,1.275l-.022-.031h-.04c-.308-.357-.5-.749-.165-1.181.37-.477.811-.285,1.235-.067,0,0,.014,0,.014,0Zm-1.565-3.517a.774.774,0,1,1,.165,1.436c-.125-.027-.25-.071-.374-.111a3.091,3.091,0,0,1-.147-.432.719.719,0,0,1,.357-.9Zm-.56,6.453a.349.349,0,0,1-.41.325.314.314,0,0,1-.334-.383c.018-.259.183-.339.4-.33a.346.346,0,0,1,.344.388Zm-.214-3.245a.751.751,0,0,1-.776.753.732.732,0,0,1-.78-.8.706.706,0,0,1,.767-.736.752.752,0,0,1,.789.787ZM47.141,19.91a.756.756,0,0,1,.918,0,.713.713,0,0,1,.267.923c-.058.138-.138.272-.21.406l-.205.067c-.428.036-.865.04-1.034-.455a.766.766,0,0,1,.264-.941Zm-.428,6.379c-.058.334-.245.459-.522.432a.378.378,0,0,1-.379-.446c.018-.312.223-.4.5-.388s.348.219.4.4Zm-.33-3.054c-.013.553-.232.883-.736.9a.727.727,0,0,1-.829-.74.7.7,0,0,1,.736-.816.716.716,0,0,1,.829.656Zm-2.158-2.893A.69.69,0,0,1,45,19.709c.218,0,.339.187.526.241h0c0,.214.16.4.094.637a.686.686,0,0,1-.785.544.665.665,0,0,1-.609-.789Zm-.16,6.2a.416.416,0,0,1-.481.4.425.425,0,0,1-.379-.513.375.375,0,0,1,.437-.37.421.421,0,0,1,.423.484ZM43.4,23.4c0,.165-.009.33-.009.5-.272.152-.557.312-.789-.045a.342.342,0,0,1,.022-.477.6.6,0,0,1,.777.027Zm-.834-2.149-.455.013c-.1-.085-.192-.174-.29-.259h0c-.018-.223-.036-.455.245-.522a.573.573,0,0,1,.553.071c.3.261-.079.462-.052.7ZM41.1,17.333a2.121,2.121,0,0,1,.374-.272c.107,0,.214-.009.321-.009.2.129.464.174.584.406a.813.813,0,0,1-.192,1.123.757.757,0,0,1-1.123-.111.792.792,0,0,1,.036-1.137ZM41.012,24.5a.492.492,0,0,1-.508.486.442.442,0,0,1-.495-.486.433.433,0,0,1,.459-.459.482.482,0,0,1,.544.459Zm-.535-2.7-.009.053c-.566.522-.793.513-1.315-.053l.027-.522a.778.778,0,0,1,.941-.263A.714.714,0,0,1,40.477,21.8ZM39.22,17.761a.892.892,0,0,1,.869.958.94.94,0,0,1-.914.932.964.964,0,0,1-.941-.981.908.908,0,0,1,.986-.909ZM37.9,25.544c.08-.031.16-.058.241-.089.343,0,.633.094.588.513a.427.427,0,0,1-.575.383C37.7,26.226,37.816,25.87,37.9,25.544Zm-1.828-6.321a.858.858,0,0,1,1.07-.241c.134.067.276.129.415.2h0c.3.918.076,1.489-.633,1.578a.852.852,0,0,1-.972-.5.889.889,0,0,1,.121-1.042Zm-.1,5.14a.481.481,0,0,1-.241.553.6.6,0,0,1-.793-.205v-.5l.272-.272h0c.354-.026.662.032.764.424Zm-1.315-3.687a.623.623,0,0,1,.615.664.6.6,0,0,1-.651.584c-.352-.022-.637-.2-.629-.611a.578.578,0,0,1,.667-.636Zm-.985,5.274a.476.476,0,0,1,.562.5c.013.312-.192.468-.5.513-.285-.027-.5-.138-.517-.468a.473.473,0,0,1,.452-.545Zm-1.623-3.156c.053-.04.107-.076.16-.116a.647.647,0,0,1,.9-.036.588.588,0,0,1,.138.776.562.562,0,0,1-.664.3.626.626,0,0,1-.513-.785.451.451,0,0,0-.018-.129Zm-.058,5.684c.245-.33.53-.2.807-.031v.5c-.232.187-.477.361-.74.076a.407.407,0,0,1-.064-.545ZM31.463,39.4A.416.416,0,0,1,31,38.967a.424.424,0,0,1,.406-.432.414.414,0,0,1,.481.343C31.882,39.221,31.744,39.4,31.463,39.4Zm.4-8.4a1.93,1.93,0,0,1,.009.455c-.04.049-.08.1-.125.152a1.972,1.972,0,0,1-.459-.013.382.382,0,0,1-.3-.446.461.461,0,0,1,.423-.437A.38.38,0,0,1,31.86,31Zm-.825-6.433c.4,0,.6.21.606.709-.009.308-.25.5-.624.5a.536.536,0,0,1-.575-.575.556.556,0,0,1,.593-.632Zm-.049,8.644c.339-.013.522.178.544.6a.471.471,0,0,1-.508.477.491.491,0,0,1-.584-.473.524.524,0,0,1,.548-.608Zm-.865,15.607H29.8c-.183-.192-.406-.383-.2-.682.227-.325.5-.165.758-.036a.572.572,0,0,1-.237.714ZM29.787,26.89a.529.529,0,0,1,.517.58.473.473,0,0,1-.548.508.508.508,0,0,1-.517-.562c0-.36.261-.476.548-.53Zm-1.056,2.536c.33.022.5.138.5.45a.416.416,0,0,1-.428.473.425.425,0,0,1-.5-.473.454.454,0,0,1,.423-.453Zm-.646,2.47h.187c.29.183.513.392.357.78-.174.432-.522.263-.825.241h0c-.157-.417-.188-.788.28-1.025Zm-.566,3.419V34.8h0a.265.265,0,0,0,.174-.241l.031.022c.736.049.838.205.593.887a.956.956,0,0,1-.544.094h-.049c-.071-.085-.138-.169-.2-.254Zm-.771,8.265c.276-.058.566-.156.758.156a.455.455,0,0,1-.04.548c-.223.272-.49.218-.758.058a.68.68,0,0,1,.039-.766ZM26.5,41.81c-.223.379-.53.165-.811.1l-.036.031.036-.036c-.022-.29-.174-.615.223-.793a.42.42,0,0,1,.535.085.5.5,0,0,1,.05.609ZM26.16,28.165c.321,0,.383.223.41.459-.04.29-.183.459-.468.446a.416.416,0,0,1-.446-.45c-.006-.33.2-.463.5-.459Zm-1.27,2.773c.218-.455.6-.455,1-.227.031.053.067.107.1.156a.675.675,0,0,1-.205.776.6.6,0,0,1-.9-.7Zm.272,2.385c.334.013.379.272.348.522-.053.4-.423.459-.909.147h0c-.07-.437.1-.687.559-.673Zm-.3,2.581a.543.543,0,0,1,.8.481c-.018.107-.036.214-.053.325-.352.241-.731.4-.981-.089a.478.478,0,0,1,.233-.721Zm.415,9.388a.761.761,0,0,1-.776.771.748.748,0,0,1-.856-.78.724.724,0,0,1,.793-.829c.539-.022.793.277.838.834Zm-.932-2.474c0,.152-.013.308-.022.459a.049.049,0,0,0-.036.062c-.348.334-.727.6-1.23.357a.9.9,0,0,1-.539-1.137.879.879,0,0,1,1-.669.842.842,0,0,1,.826.924ZM22.771,29.775c.16,0,.317,0,.477-.009.138.236.263.486.009.713a.373.373,0,0,1-.49,0C22.508,30.261,22.628,30.011,22.771,29.775Zm-.468,2.22c.321.013.464.218.441.535s-.214.41-.522.41a.42.42,0,0,1-.419-.464A.433.433,0,0,1,22.3,32Zm-.183,2.581c.312-.009.455.21.49.49-.036.325-.192.517-.513.5s-.455-.232-.446-.535a.446.446,0,0,1,.469-.455Zm-.432,9.566a.843.843,0,0,1-.918.874.9.9,0,0,1-.892-.936.927.927,0,0,1,.95-.887.876.876,0,0,1,.859.949Zm-.834-2.505a.8.8,0,0,1-.86.776.78.78,0,0,1-.807-.851.791.791,0,0,1,.847-.8.854.854,0,0,1,.82.875Zm-1.81-10.806c.254-.143.522-.276.78-.031.232.218.156.477.04.727-.749.165-.851.073-.82-.7ZM18.8,33.493a1.58,1.58,0,0,1,.366-.138.4.4,0,0,1,.495.317.409.409,0,0,1-.285.517.449.449,0,0,1-.575-.3,1.158,1.158,0,0,1,0-.392Zm.473,2.354c.357.009.481.232.539.535-.053.308-.174.539-.535.548s-.593-.156-.584-.535a.5.5,0,0,1,.578-.549Zm-.53,2.661a.856.856,0,0,1,1.043-.339c.227.058.361.236.544.352h0c.071.49.138.994-.4,1.27a.861.861,0,0,1-1.092-.178.889.889,0,0,1-.1-1.1Zm.3,6.869a.9.9,0,0,1-.9.923.965.965,0,0,1-.927-.923.926.926,0,0,1,.932-.9.855.855,0,0,1,.9.9Zm-.95-2.5a.733.733,0,0,1-.829.807.784.784,0,0,1-.838-.829.807.807,0,0,1,.892-.811.758.758,0,0,1,.776.837Zm-.44-2.577a.884.884,0,0,1-.909.932.9.9,0,0,1-.909-.923.872.872,0,0,1,.865-.892.886.886,0,0,1,.953.883Zm-2.175-2.6a.9.9,0,0,1,.932-.9.887.887,0,0,1,.887.945.9.9,0,0,1-.958.878.941.941,0,0,1-.861-.931Zm.691-8.153c.085-.085.165-.169.25-.259.343-.076.669-.076.838.3a.567.567,0,0,1-.094.673.591.591,0,0,1-.673.12c-.39-.165-.344-.513-.321-.842Zm.013,2.082a.826.826,0,0,1,.883.3.872.872,0,0,1,.018.994.809.809,0,0,1-.851.37,3.815,3.815,0,0,1-.383-.094h0c-.487-.75-.34-1.454.333-1.579Zm.071,2.621a.8.8,0,0,1,.9.829c-.04.495-.3.82-.972.829a.834.834,0,0,1,.076-1.658ZM15.526,43.9a.834.834,0,0,1-.343.99.844.844,0,0,1-1.1-.013c-.12-.094-.223-.21-.334-.312,0-.245-.009-.495-.013-.74.232-.3.45-.593.9-.571a.882.882,0,0,1,.891.638Zm-1.4-1.529a.691.691,0,0,1-.731-.758.719.719,0,0,1,.744-.78c.539.04.811.294.8.807a.693.693,0,0,1-.812.723Zm-1.44-3.843a.318.318,0,0,0,.2-.263l.045-.018a4.275,4.275,0,0,1,.441-.129.928.928,0,0,1,1.146.793.954.954,0,0,1-.936,1.048A.9.9,0,0,1,12.65,39c0-.152.027-.308.04-.459Zm1.061-9.762a.845.845,0,0,1,1.039-.076l.04.031a.793.793,0,0,1-.227,1.021h-.58l-.29-.276a.12.12,0,0,0-.031-.107v-.4c.019-.068.032-.135.05-.2Zm.125,2.086c.366-.009.544.236.588.62,0,.357-.232.526-.58.539a.5.5,0,0,1-.575-.5.549.549,0,0,1,.568-.667Zm-.793,2.706c.125-.423.459-.495.851-.361a2.03,2.03,0,0,1,.29.156.142.142,0,0,0,.045.116v.263a.569.569,0,0,1-.731.624.562.562,0,0,1-.455-.806Zm.267,1.783a1.059,1.059,0,0,1,1.061,1.039,1.042,1.042,0,1,1-2.082-.031,1.058,1.058,0,0,1,1.022-1.016ZM83.3,83.888q-14.938-.007-29.88,0-20.969,0-41.939.013c-.486,0-.7-.076-.682-.637.049-1.19.022-2.385.013-3.575a.524.524,0,0,1,.361-.6Q17.243,76.566,23.292,74l5.3-2.238a1.1,1.1,0,0,1,.834-.013Q35.4,73.8,41.368,75.837c1.627.553,3.259,1.092,4.886,1.645a.507.507,0,0,0,.7-.236c.8-1.208,1.654-2.389,2.479-3.584,2.844-4.123,5.693-8.242,8.505-12.384a.939.939,0,0,1,1.2-.423c3.294.892,6.6,1.747,9.892,2.652a.792.792,0,0,0,1.034-.366q6.145-9.04,12.317-18.067l1.484-2.166c.049.013.1.031.143.045V44.53q0,19.378.018,38.76C84.029,83.919,83.726,83.892,83.3,83.888Z" transform="translate(-0.99 -0.63)" fill="#08a79b"/>
      </g>
      <text id="___" data-name="   " transform="translate(242.5 100.5)" font-size="12" font-family="SegoeUI-Bold, Segoe UI" font-weight="700" letter-spacing="0.008em"><tspan x="0" y="0">Deputy Director of Finance and Administration</tspan></text>
      <text id="____" data-name="    " transform="translate(242.5 75.5)" font-size="12" font-family="SegoeUI-Bold, Segoe UI" font-weight="700" letter-spacing="0.025em"><tspan x="0" y="0">National Statistics and Information Authority </tspan></text>
      <text id="___" data-name="   " transform="translate(242.5 150.5)" font-size="12" font-family="SegoeUI-Bold, Segoe UI" font-weight="700" letter-spacing="-0.003em"><tspan x="0" y="0">Department of Technical and Transport Services</tspan></text>
      <text id="___" data-name="   " transform="translate(242.5 125.5)" font-size="12" font-family="SegoeUI-Bold, Segoe UI" font-weight="700" letter-spacing="0.055em"><tspan x="0" y="0">Directorate of Administration and Services</tspan></text>
    </g>
    <text id="___" data-name="   " transform="translate(451.181 185)" font-size="14" font-family="SegoeUI-Bold, Segoe UI" font-weight="700"><tspan x="0" y="0">Vehicles Exit Ticket</tspan></text>
  </g>
</svg>
