<svg xmlns="http://www.w3.org/2000/svg" width="303.017" height="80.15" viewBox="0 0 303.017 80.15">
  <g id="Group_2" data-name="Group 2" transform="translate(-19.5 -59.5)">
    <g id="Group_1" data-name="Group 1" transform="translate(19.5 59.5)">
      <g id="nsia-logo">
        <path id="Path_1" data-name="Path 1" d="M514.163,167.355a11.109,11.109,0,0,1-5.391-.194c-2.881-.737-4.553-2.726-5.628-5.357-.767-1.878-1.567-3.742-2.352-5.611-.041-.1-.095-.187-.146-.291a54.13,54.13,0,0,1-6.206,3.2c-1.569.678-3.154,1.315-4.777,1.847a.962.962,0,0,0-.632.586c-.818,1.855-1.663,3.7-2.487,5.555a.436.436,0,0,1-.476.316c-.654-.022-1.307-.008-2.023-.008.124-.3.23-.586.351-.856.84-1.878,1.691-3.746,2.519-5.628a.869.869,0,0,1,.615-.537,59.4,59.4,0,0,0,11.51-4.672,37.758,37.758,0,0,0,5.892-3.859c.281-.23.354-.157.476.135q2.074,4.99,4.175,9.972a11.238,11.238,0,0,0,.872,1.666,5.191,5.191,0,0,0,3.7,2.612Z" transform="translate(-353.603 -110.911)" fill="#2a2561"/>
        <path id="Path_2" data-name="Path 2" d="M359.426,197.932c-.624-.105-1.253-.2-1.871-.321a11.18,11.18,0,0,1-5.228-2.277,3.727,3.727,0,0,1-1.4-2.525c-.022-.227-.035-.359.3-.294.915.182,1.842.308,2.765.446a.7.7,0,0,1,.465.27,7.165,7.165,0,0,0,4.718,2.53,10.177,10.177,0,0,0,4.253-.148,4.592,4.592,0,0,0,2.514-1.547c.135-.173.289-.157.462-.159l4.815-.1c.046.124-.07.2-.135.294a8.765,8.765,0,0,1-4.815,3.2,14.787,14.787,0,0,1-2.986.559c-.065.005-.135-.008-.162.076Z" transform="translate(-256.421 -140.686)" fill="#2a2561"/>
        <path id="Path_3" data-name="Path 3" d="M254.445,120.19v-.437q0-9.874-.008-19.748c0-.356.087-.462.44-.437a11.848,11.848,0,0,0,1.485,0c.321-.019.383.1.37.386-.019.494-.005.991-.005,1.485q0,10.056.005,20.107c0,.363-.041.478-.454.37a68.519,68.519,0,0,1-11.38-4.037,1.536,1.536,0,0,1-.519-.429q-4.3-5.055-8.6-10.1c-.057-.067-.121-.132-.246-.267v.859q0,10.475.011,20.95c0,.378-.111.478-.47.454a12.278,12.278,0,0,0-1.445,0c-.294.016-.389-.057-.383-.37.022-1.083.008-2.166.008-3.251V105.011a4.5,4.5,0,0,0-.829-2.871,3.416,3.416,0,0,0-2.66-1.178c-.788-.061-.791-.038-.791-.813,0-.121.008-.242,0-.363-.011-.151.041-.216.2-.213,2.052.057,4.119-.178,6.149.337a6.693,6.693,0,0,1,3.532,2.22c2.417,2.841,4.855,5.663,7.286,8.49q3.986,4.638,7.977,9.273A.727.727,0,0,0,254.445,120.19Z" transform="translate(-167.405 -72.849)" fill="#2b2662"/>
        <path id="Path_4" data-name="Path 4" d="M371.328,104.49c0,.815-.008,1.631.005,2.449,0,.242-.033.348-.321.348-.975-.005-.961.005-1.172-1.007a12.611,12.611,0,0,0-1.745-4.529,6.868,6.868,0,0,0-5.169-3.051,7.974,7.974,0,0,0-3.983.4,4.238,4.238,0,0,0-1.41,6.856,20.863,20.863,0,0,0,3.508,2.519c2.544,1.547,5.185,2.94,7.633,4.642a8.784,8.784,0,0,1,3.211,3.457,7.881,7.881,0,0,1,.278,5.447.267.267,0,0,1-.284.219c-1.642.089-3.286.132-4.931.141-.189,0-.205-.061-.187-.235a4.725,4.725,0,0,0-1.71-4.315,30.96,30.96,0,0,0-4.52-3.1c-1.958-1.2-4-2.277-5.86-3.629a8.047,8.047,0,0,1-3.268-4.24c-.769-2.7-.545-5.261,1.454-7.413a8.784,8.784,0,0,1,5.058-2.571,17.486,17.486,0,0,1,9.39.8,7.641,7.641,0,0,1,3.175,2.1,3.554,3.554,0,0,1,.848,2.441v2.279Z" transform="translate(-256.479 -70.66)" fill="#2a2461"/>
        <path id="Path_5" data-name="Path 5" d="M453.861,100.1c0,.095.011.187.011.281V122.93c0,.189.057.363-.259.419-1.447.246-2.892.5-4.35.683a2.321,2.321,0,0,1-.237.005,4.334,4.334,0,0,0-.562-.005c-.311.032-.378-.1-.378-.391q.008-11.65,0-23.3c0-.324.1-.405.411-.4q2.363.02,4.731,0a1.018,1.018,0,0,1,.634.164Z" transform="translate(-327.35 -73.121)" fill="#292360"/>
        <path id="Path_6" data-name="Path 6" d="M506.11,107.4c-.445,1-.848,1.9-1.256,2.811q-2.2,4.893-4.388,9.786c-.054.121-.076.262-.227.311-.859.278-1.715.556-2.69.875.322-.74.591-1.369.869-2l6.651-14.871q.98-2.191,1.949-4.391a.477.477,0,0,1,.532-.359,10.945,10.945,0,0,0,1.364,0,.442.442,0,0,1,.48.319q2.629,6.3,5.27,12.592a.325.325,0,0,1-.121.465,43.956,43.956,0,0,1-4.466,2.96c-.281.165-.341.057-.44-.182q-1.628-3.893-3.275-7.78C506.294,107.786,506.218,107.635,506.11,107.4Z" transform="translate(-363.459 -72.846)" fill="#0ba79b"/>
        <path id="Path_7" data-name="Path 7" d="M294.02,174.915c.095-.061.162-.005.232.027a63.728,63.728,0,0,0,9.616,3.349.388.388,0,0,1,.346.462q-.016,2.665,0,5.331c0,.308-.092.386-.386.373-.48-.024-.961-.016-1.442,0a.505.505,0,0,1-.446-.2q-3.917-4.609-7.839-9.214A1.516,1.516,0,0,1,294.02,174.915Z" transform="translate(-214.89 -127.831)" fill="#2b2662"/>
        <path id="Path_8" data-name="Path 8" d="M299.788,55.468c.656.435,1.356.189,2.063.281a1.991,1.991,0,0,1-.121-2.052,1.949,1.949,0,0,1,2.263-.848,1.478,1.478,0,0,1,1.075,1.628c0,.545-.011,1.1.005,1.645.005.23-.07.294-.3.294-1.418-.008-2.836,0-4.253-.005a2.246,2.246,0,0,1-1.215-.354.494.494,0,0,0-.518-.046,6.23,6.23,0,0,1-2.552.411c-1.232-.008-2.46-.008-3.692-.008-.143,0-.3-.03-.308.2-.024.98-.78,1.593-1.99,1.669-.319.019-.643-.024-.958-.027-.411-.005-.485-.182-.44-.535.024-.211.1-.227.284-.189a3.941,3.941,0,0,0,1.434.043.969.969,0,0,0,.854-.878c.024-.205-.027-.289-.248-.287a6.655,6.655,0,0,1-1.039-.048,1.511,1.511,0,0,1-1.35-1.658,1.736,1.736,0,0,1,1.375-1.855,4.314,4.314,0,0,1,1.791.1.353.353,0,0,1,.311.416c-.019.656.005,1.312-.013,1.966-.008.3.043.424.383.408.626-.032,1.258-.024,1.885,0,.294.011.383-.057.378-.367-.019-1.282.016-2.568-.022-3.853-.013-.454.235-.354.491-.381.3-.032.383.073.378.376-.016,1.3,0,2.6-.013,3.894,0,.267.073.332.332.332a7.292,7.292,0,0,0,2.069-.178c.108-.032.267-.024.3-.148.027-.108-.111-.167-.189-.235a6.205,6.205,0,0,0-1.132-.826.485.485,0,0,1-.1-.778,3.242,3.242,0,0,1,2.417-.756,1.212,1.212,0,0,1,1,1.845,2.676,2.676,0,0,1-.642.8Zm4.469-.511c-.016-.237-.016-.48-.051-.715a.8.8,0,0,0-.643-.766.948.948,0,0,0-1.058.462,1.139,1.139,0,0,0,.994,1.78c.905,0,.754.2.759-.76Zm-12.827-.3v-.843c0-.1.005-.2-.127-.262a1.333,1.333,0,0,0-1.442.254,1.393,1.393,0,0,0,.013,1.571c.242.281,1.178.545,1.454.335.251-.192.051-.545.1-.821a1.349,1.349,0,0,0,0-.234Zm6.3-.756a12.489,12.489,0,0,1,1.307,1c.07.057.121.135.242.081a1.262,1.262,0,0,0,.48-1.01A.687.687,0,0,0,299,53.4a2.289,2.289,0,0,0-1.277.5Z" transform="translate(-211.066 -37.494)" fill="#2d2961"/>
        <path id="Path_9" data-name="Path 9" d="M409.707,6.5a2.017,2.017,0,0,1,.076-2.314,2.12,2.12,0,0,1,2.241-.54,1.4,1.4,0,0,1,.934,1.361c.024.64,0,1.282.013,1.925,0,.187-.061.267-.251.265-1.5-.011-2.995-.016-4.491-.027a1.791,1.791,0,0,1-.983-.3.643.643,0,0,0-.666-.043,5.99,5.99,0,0,1-2.32.376c-.937-.005-1.871,0-2.808-.016-.251,0-.373.051-.411.337a1.731,1.731,0,0,1-1.531,1.52,6.906,6.906,0,0,1-1.6.011c-.405-.027-.262-.321-.267-.535-.005-.289.182-.213.359-.187a3.251,3.251,0,0,0,1.469,0,1.084,1.084,0,0,0,.589-.389.7.7,0,0,0,.132-.643c-.076-.2-.3-.087-.465-.1a5.1,5.1,0,0,1-1.03-.121,1.484,1.484,0,0,1-1.134-1.55A1.757,1.757,0,0,1,398.6,3.712a3.583,3.583,0,0,1,2.241.03c.235.061.224.235.224.408,0,.656.022,1.312-.011,1.966-.019.354.1.437.424.405a5.245,5.245,0,0,1,.921-.011c.259.019.311-.078.308-.316-.011-1.323,0-2.647-.011-3.972,0-.265.046-.405.348-.367.242.03.537-.1.526.359-.024,1.3.005,2.6-.019,3.892-.005.354.108.416.424.408a7.518,7.518,0,0,0,1.871-.157c.141-.041.346-.03.386-.159.057-.173-.162-.246-.273-.346a5.922,5.922,0,0,0-1.037-.748.5.5,0,0,1-.076-.788,3.578,3.578,0,0,1,2.1-.783,1.384,1.384,0,0,1,1.364.659,1.482,1.482,0,0,1-.273,1.639c-.105.148-.386.259-.313.413.092.2.381.235.606.242C408.783,6.515,409.22,6.5,409.707,6.5Zm2.438-.715a3.927,3.927,0,0,0-.048-.834.781.781,0,0,0-.537-.678.962.962,0,0,0-1.03.246,1.3,1.3,0,0,0-.213,1.35,1,1,0,0,0,1.015.634C412.145,6.553,412.145,6.544,412.145,5.786Zm-11.917-.319c0-.281-.011-.559,0-.84a.283.283,0,0,0-.267-.33c-.448-.067-.913-.159-1.264.248a1.28,1.28,0,0,0-.176,1.388,1.272,1.272,0,0,0,1.523.567c.4-.121.092-.529.178-.8a.869.869,0,0,0,.005-.237ZM405.6,4.68a12.48,12.48,0,0,1,1.282.991c.067.061.13.124.246.084a1.191,1.191,0,0,0,.485-.989.6.6,0,0,0-.6-.58,1.963,1.963,0,0,0-1.413.493Z" transform="translate(-290.468 -1.522)" fill="#14a89c"/>
        <path id="Path_10" data-name="Path 10" d="M278.271,39.811q-24.34,0-48.68-.008c-.178,0-.519.162-.521-.157-.005-.354.348-.182.532-.182q48.721-.012,97.438-.008h.281c.094,0,.182.041.187.159.005.138-.073.189-.2.189H278.272Z" transform="translate(-167.479 -28.947)" fill="#199f93"/>
        <path id="Path_11" data-name="Path 11" d="M300.412,6.48a2.032,2.032,0,0,1,.113-2.373,2.2,2.2,0,0,1,2.3-.451,1.346,1.346,0,0,1,.81,1.151,17.868,17.868,0,0,1,.051,2.082c0,.205-.07.287-.278.287q-3.67-.008-7.343,0c-.213,0-.276-.089-.273-.291.011-.545.016-1.1.005-1.645-.019-1.048-.508-1.064-1.315-1.01-.235.016-.176.2-.176.33-.005.748-.013,1.5,0,2.247.005.278-.073.383-.359.37-.535-.024-1.069,0-1.6-.035-1.774-.13-2.53-1.164-2.149-2.922.048-.224.035-.478.367-.54.618-.113.6-.132.481.47a3.116,3.116,0,0,0-.019,1.272,1.407,1.407,0,0,0,1.436,1.05c.242.019.485-.008.721.013s.289-.087.286-.3c-.013-.666.016-1.339-.016-2.006-.022-.416.089-.594.537-.61a8.153,8.153,0,0,1,1.358-.027,1.34,1.34,0,0,1,1.284,1.419c.013.413.008.829,0,1.242-.005.2.061.289.276.278a6.424,6.424,0,0,1,.883,0c.265.022.3-.089.3-.321-.008-1.323.013-2.649-.013-3.972-.008-.37.162-.367.43-.367s.473-.013.465.383c-.027,1.31,0,2.619-.013,3.931,0,.256.054.363.33.34C299.65,6.461,300.01,6.48,300.412,6.48Zm2.414-.8c0-.205.013-.394,0-.578-.048-.537-.311-.837-.754-.883a.946.946,0,0,0-1.078.683,1.2,1.2,0,0,0,.429,1.418,1.682,1.682,0,0,0,1.321.116C302.961,6.369,302.785,5.926,302.826,5.681Z" transform="translate(-212.03 -1.498)" fill="#14a89c"/>
        <path id="Path_12" data-name="Path 12" d="M492.253,55.7a1.9,1.9,0,0,1,3.014-2.32,1.746,1.746,0,0,1,.251.993c.005.545-.016,1.1.008,1.645.013.313-.1.378-.389.376-1.523-.013-3.049-.008-4.572-.008-.975,0-1.952-.005-2.927.005-.248,0-.356-.048-.346-.332.024-.545.008-1.1,0-1.645a.948.948,0,0,0-1.326-.959c-.194.061-.135.208-.135.327-.005.761,0,1.526-.005,2.287,0,.135.061.319-.182.316a13.8,13.8,0,0,1-2.241-.076c-1.542-.278-1.893-1.282-1.71-2.749.078-.632.222-.7,1.043-.715a5.971,5.971,0,0,0-.235.964,1.493,1.493,0,0,0,1.526,1.885c.969.073.969.073.969-.883,0-.545.008-1.1,0-1.645,0-.194.046-.284.254-.313a5.808,5.808,0,0,1,1.8-.032,1.231,1.231,0,0,1,1.05,1.151,14.257,14.257,0,0,1,.035,1.442c0,.23.078.3.3.289a11.945,11.945,0,0,1,1.2,0c.273.019.3-.1.294-.324-.008-1.31.016-2.622-.013-3.932-.011-.443.259-.313.485-.343.276-.035.367.057.363.343-.016,1.3,0,2.6-.016,3.892,0,.265.046.386.346.363C491.475,55.679,491.857,55.7,492.253,55.7Zm2.414-.8a4.6,4.6,0,0,0-.005-.64.822.822,0,0,0-.545-.769.944.944,0,0,0-.975.182,1.244,1.244,0,0,0-.281,1.337.981.981,0,0,0,.943.686c.894.095.894.089.864-.8Z" transform="translate(-351.854 -37.473)" fill="#2d2961"/>
        <path id="Path_13" data-name="Path 13" d="M529.236,4.772c.748-1.11,1.812-1.51,2.647-1.064s1.03,1.454.5,2.736c.046.095.137.061.211.061,1.043,0,2.087-.008,3.13.005.259,0,.34-.065.354-.33.081-1.5-.478-2.041-1.966-1.9-.173.016-.437.2-.454-.211-.013-.332.1-.465.424-.448.308.013.615-.011.923,0A1.832,1.832,0,0,1,536.928,5.5a10.226,10.226,0,0,1-.067,1.439c-.019.259-.187.251-.363.254-1.123,0-2.247.011-3.37.011-2.3,0-4.6-.005-6.9,0-.259,0-.424-.008-.419-.351.019-1.523.024-3.049,0-4.574-.005-.4.162-.408.47-.424.363-.019.408.127.4.437-.016,1.3,0,2.6-.011,3.892,0,.265.073.348.335.332a8.391,8.391,0,0,1,1.043,0c.265.016.351-.067.346-.335-.013-.721.024-1.445-.013-2.166-.022-.405.189-.373.462-.391.308-.019.44.061.4.391a6.249,6.249,0,0,0-.005.762Zm.868,1.734c.213,0,.424.011.64,0a1.066,1.066,0,0,0,1.045-.826,1.238,1.238,0,0,0-.413-1.366,1.212,1.212,0,0,0-1.393.411,3.029,3.029,0,0,0-.666,1.258c-.143.526-.143.526.386.526C529.839,6.506,529.971,6.506,530.1,6.506Z" transform="translate(-384.087 -1.521)" fill="#0ba79b"/>
        <path id="Path_14" data-name="Path 14" d="M453.885,194.243c0,.694-.008,1.388.005,2.084.005.237-.03.356-.316.346-.772-.03-1.55.008-2.323-.038a2.921,2.921,0,0,1-2.976-2.558c-.081-.378-.113-.764-.173-1.145-.027-.17.035-.222.208-.242,1.785-.235,3.567-.489,5.331-.864.194-.041.254.013.248.213C453.877,192.775,453.885,193.508,453.885,194.243Z" transform="translate(-327.361 -140.187)" fill="#2a2461"/>
        <path id="Path_15" data-name="Path 15" d="M429.53,54.016c.791-1.164,1.823-1.553,2.716-1.048.778.44.953,1.575.381,2.744h.64c.975,0,1.952-.011,2.927.008.281.005.389-.046.4-.359.054-1.464-.47-1.971-1.938-1.855-.151.011-.432.235-.459-.194-.022-.356.105-.48.437-.48a6.157,6.157,0,0,1,1.318.067,1.682,1.682,0,0,1,1.439,1.547,7.937,7.937,0,0,1-.013,1.561c-.016.287-.111.4-.435.4-2.779-.013-5.56-.008-8.339-.008-.708,0-1.415-.005-2.125,0-.224,0-.332-.027-.33-.3.013-1.564.016-3.13,0-4.694-.005-.413.27-.267.462-.281s.419-.076.413.291c-.022,1.31,0,2.619-.016,3.929,0,.3.076.4.372.37a6.015,6.015,0,0,1,.961,0c.278.022.37-.061.363-.346-.019-.721.013-1.445-.013-2.166-.013-.34.143-.363.408-.351.248.011.491-.035.44.356a6.046,6.046,0,0,0-.009.806Zm0,1.7h1.264a1.155,1.155,0,0,0,1.282-1.514.813.813,0,0,0-1.151-.683,1.393,1.393,0,0,0-.626.416,3.211,3.211,0,0,0-.766,1.781Z" transform="translate(-311.339 -37.481)" fill="#2d2961"/>
        <path id="Path_16" data-name="Path 16" d="M381.525,60.862c-1.793,0-3.583.032-5.374-.013a1.531,1.531,0,0,1-1.612-1.742,1.744,1.744,0,0,1,1.615-1.817,4.382,4.382,0,0,1,1.588.138.334.334,0,0,1,.286.391c-.013.683.011,1.364-.013,2.047-.011.3.095.346.363.343q1.5-.024,3.011,0c.273.005.367-.051.356-.343-.024-.735.011-1.471-.013-2.206-.016-.432.276-.287.485-.308.237-.027.4-.008.391.321-.024.748,0,1.5-.013,2.247,0,.224.057.291.287.289q1.5-.02,3.011,0c.227,0,.294-.061.291-.291-.013-.748.013-1.5-.013-2.247-.016-.424.259-.3.478-.321.237-.022.4-.008.389.321-.024.961-.016,1.925,0,2.89,0,.256-.054.34-.33.337-1.726-.013-3.453-.008-5.177-.008A.1.1,0,0,1,381.525,60.862Zm-4.34-1.736h0v-.8c0-.121.019-.237-.143-.289-.756-.235-1.491-.108-1.645.832a1.073,1.073,0,0,0,1.139,1.342c.645.027.645.027.648-.6,0-.159,0-.32,0-.48Z" transform="translate(-273.665 -41.976)" fill="#2d2961"/>
        <path id="Path_17" data-name="Path 17" d="M488.556,8.212a4.114,4.114,0,0,0-.242,1.207,1.421,1.421,0,0,0,1.423,1.636c1.075.138,1.08.132,1.075-.926,0-.494.016-.991-.011-1.482-.019-.351.116-.462.456-.48a7.113,7.113,0,0,1,1.356-.054,1.382,1.382,0,0,1,1.377,1.547c.011.373.013.748,0,1.123-.011.232.07.3.3.287.424-.024.98.138,1.242-.073s.07-.8.084-1.221.019-.856,0-1.282c-.019-.386.242-.3.456-.3s.424-.046.416.3c-.011.975.005,1.95.027,2.927.005.256-.061.351-.335.348-.9-.016-1.79-.016-2.687,0-.262,0-.354-.078-.343-.343.019-.521.013-1.043.005-1.564-.013-.837-.3-1.1-1.134-1.061-.265.011-.373.084-.363.373.022.735-.005,1.471.016,2.206.008.3-.081.408-.383.394a11.925,11.925,0,0,1-2.2-.121,1.955,1.955,0,0,1-1.626-2.328c.011-.092.019-.187.03-.278C487.578,8.306,487.759,8.161,488.556,8.212Z" transform="translate(-356.079 -6.076)" fill="#14a89c"/>
        <path id="Path_18" data-name="Path 18" d="M353.352,10.012c0,.454-.024.909.008,1.364.027.373-.116.448-.462.432-.6-.03-1.2,0-1.8-.008-.216,0-.3.076-.34.289a1.757,1.757,0,0,1-1.726,1.585,9.159,9.159,0,0,1-1.361-.011c-.446-.024-.308-.33-.3-.572.005-.34.237-.159.37-.143a3.283,3.283,0,0,0,1.545-.039.949.949,0,0,0,.651-.829c.032-.205-.043-.291-.259-.287a8.69,8.69,0,0,1-.88-.03,1.511,1.511,0,0,1-1.514-1.51,1.777,1.777,0,0,1,1.307-2.025,4.046,4.046,0,0,1,1.9.1.311.311,0,0,1,.27.363c-.013.708.005,1.418-.011,2.125-.005.251.07.327.316.313.386-.022.775-.027,1.161-.011.232.011.289-.065.287-.289-.013-.748.019-1.5-.013-2.241-.019-.394.2-.343.448-.354s.437,0,.424.346c-.024.48-.005.961-.005,1.442C353.355,10.012,353.355,10.012,353.352,10.012Zm-3.4.065h0V9.235c0-.1.013-.2-.105-.276a1.17,1.17,0,0,0-1.626.526,1.479,1.479,0,0,0,0,.983,1.217,1.217,0,0,0,1.558.635c.411-.1.081-.526.173-.788a.792.792,0,0,0,0-.239Z" transform="translate(-253.759 -6.124)" fill="#14a89c"/>
        <path id="Path_19" data-name="Path 19" d="M376.194,6.477a2.034,2.034,0,0,1-.33-1.223,1.746,1.746,0,0,1,1.312-1.669,2.325,2.325,0,0,1,1.345.041,1.338,1.338,0,0,1,.916,1.33c.032.654.008,1.31.016,1.966,0,.2-.092.254-.27.254h-5.055c-.2,0-.248-.1-.248-.276V2.085c0-.437.346-.2.537-.248.23-.054.33.043.327.3-.011,1.323.005,2.649-.013,3.972-.005.3.065.4.373.376C375.441,6.455,375.775,6.477,376.194,6.477Zm2.419-.818a2.975,2.975,0,0,0-.076-.869.754.754,0,0,0-.686-.572.958.958,0,0,0-1.121.915,1.072,1.072,0,0,0,.913,1.342c.932.127.964.1.967-.816Z" transform="translate(-273.185 -1.495)" fill="#14a89c"/>
        <path id="Path_20" data-name="Path 20" d="M267.843,55.7a1.892,1.892,0,0,1,2.2-2.865,1.252,1.252,0,0,1,.993,1.08,16.065,16.065,0,0,1,.067,2.279c.008.278-.211.187-.346.187q-2.143.008-4.288,0c-.894,0-.894,0-.894-.88,0-1.35.008-2.7-.005-4.048,0-.278.061-.394.351-.348.232.035.526-.121.513.359-.035,1.3,0,2.592-.013,3.888,0,.281.07.37.354.351C267.117,55.676,267.463,55.7,267.843,55.7Zm2.393-.745c0-.273.019-.489,0-.7a.787.787,0,0,0-.778-.807.914.914,0,0,0-1,.623,1.265,1.265,0,0,0,.281,1.369,1.6,1.6,0,0,0,1.417.219c.227-.051.051-.5.084-.7Z" transform="translate(-194.122 -37.465)" fill="#2d2961"/>
        <path id="Path_21" data-name="Path 21" d="M464.688,10.358c0,.454-.016.909,0,1.364a1.775,1.775,0,0,1-1.66,1.945,6.778,6.778,0,0,1-1.48,0c-.413-.022-.3-.311-.294-.551.005-.319.213-.178.367-.162a3.355,3.355,0,0,0,1.545-.032.936.936,0,0,0,.659-.824c.024-.205-.033-.3-.251-.3a8.723,8.723,0,0,1-.921-.041,1.533,1.533,0,0,1-1.477-1.628,1.757,1.757,0,0,1,1.356-1.909,4.156,4.156,0,0,1,1.9.121.29.29,0,0,1,.254.335C464.68,9.235,464.688,9.8,464.688,10.358Zm-.843-.327h-.008a5.717,5.717,0,0,1,.005-.68c.043-.348-.151-.456-.435-.478-.432-.035-.864-.061-1.151.363a1.338,1.338,0,0,0-.111,1.3,1.245,1.245,0,0,0,1.52.572c.4-.113.095-.529.176-.794a.994.994,0,0,0,0-.282Z" transform="translate(-336.905 -6.127)" fill="#14a89c"/>
        <path id="Path_22" data-name="Path 22" d="M358.786,59.516v1.361a1.676,1.676,0,0,1-1.454,1.812,4.543,4.543,0,0,1-1.75,0c-.373-.067-.138-.363-.159-.551-.024-.224.162-.148.284-.127a4.028,4.028,0,0,0,1.393.041.979.979,0,0,0,.869-.859c.032-.219-.013-.316-.262-.308a6.178,6.178,0,0,1-1-.046,1.537,1.537,0,0,1-1.385-1.588,1.757,1.757,0,0,1,1.38-1.925,4.012,4.012,0,0,1,1.823.113.3.3,0,0,1,.265.356C358.775,58.368,358.786,58.944,358.786,59.516Zm-.8-.386v-.843c0-.089.008-.176-.095-.242a1.207,1.207,0,0,0-1.653.562,1.132,1.132,0,0,0,1.1,1.6c.648.027.648.027.648-.6,0-.16,0-.324,0-.482Z" transform="translate(-259.636 -41.974)" fill="#2d2961"/>
        <path id="Path_23" data-name="Path 23" d="M232.266,57.42A3.052,3.052,0,0,0,232,58.967a1.253,1.253,0,0,0,1.107,1.272,3.174,3.174,0,0,0,.715.076c1.256,0,2.512-.011,3.77.005.3,0,.413-.054.4-.383-.027-.721.008-1.445-.016-2.166-.013-.386.227-.3.446-.311s.416-.048.408.3c-.024.975-.013,1.949-.005,2.927,0,.213-.043.313-.284.311-1.777-.027-3.553.048-5.331-.043a1.957,1.957,0,0,1-1.993-1.428,3.5,3.5,0,0,1,.022-1.628c.061-.262.178-.394.454-.4A3.844,3.844,0,0,0,232.266,57.42Z" transform="translate(-168.99 -42.084)" fill="#2d2961"/>
        <path id="Path_24" data-name="Path 24" d="M542.456,59.729c-.043.335.17.824-.084,1.067-.232.227-.713.054-1.083.061a7.335,7.335,0,0,1-.878-.032,1.53,1.53,0,0,1-1.534-1.656,1.785,1.785,0,0,1,1.345-1.878,2.536,2.536,0,0,1,1.191.024,1.284,1.284,0,0,1,.975,1.053,7.948,7.948,0,0,1,.068,1.361Zm-.824-.319c-.016-.251-.013-.508-.052-.756a.778.778,0,0,0-.724-.727.969.969,0,0,0-1.12.921,1.073,1.073,0,0,0,1.034,1.326c.835.07.835.07.862-.764Z" transform="translate(-393.624 -41.946)" fill="#2d2961"/>
        <path id="Path_25" data-name="Path 25" d="M233.971,10.507c0,.308-.013.615.005.924.013.246-.043.367-.327.351-.562-.03-1.123-.005-1.682-.046A1.548,1.548,0,0,1,230.4,9.959a1.763,1.763,0,0,1,1.607-1.825,2.824,2.824,0,0,1,.8.043A1.324,1.324,0,0,1,233.96,9.5c.019.332,0,.67,0,1A.021.021,0,0,0,233.971,10.507Zm-.813-.224a3.859,3.859,0,0,0-.054-.78c-.094-.346-.251-.613-.64-.672a.96.96,0,0,0-1.045.424,1.264,1.264,0,0,0-.022,1.333,1.038,1.038,0,0,0,.98.5c.78.015.78.017.78-.8Z" transform="translate(-168.446 -6.1)" fill="#14a89c"/>
        <path id="Path_26" data-name="Path 26" d="M354.218,177.181c-.713-.121-1.421-.246-2.128-.359-.173-.027-.254-.076-.251-.273q.012-1.645,0-3.289c0-.2.076-.237.257-.248,1.007-.051,1-.057,1.182.926a15.521,15.521,0,0,0,.826,2.838A.788.788,0,0,1,354.218,177.181Z" transform="translate(-257.096 -126.448)" fill="#2d2961"/>
        <path id="Path_27" data-name="Path 27" d="M246.35,10.471c0-.615.011-1.232-.005-1.845-.008-.324.216-.256.381-.242s.485-.151.478.227a35.863,35.863,0,0,1-.07,3.924,1.4,1.4,0,0,1-1.507,1.3c-.173.005-.348-.013-.521,0-.327.024-.451-.089-.4-.437.035-.242.07-.3.34-.251.869.173,1.258-.146,1.288-1.037.019-.545,0-1.1,0-1.645Z" transform="translate(-178.883 -6.274)" fill="#14a89c"/>
        <path id="Path_28" data-name="Path 28" d="M581.144,11.639c-.44,0-.88-.013-1.321.005-.284.011-.284-.148-.284-.354s.022-.354.294-.346c.573.016,1.148-.011,1.72.011.283.011.34-.092.308-.348a2.123,2.123,0,0,0-1.518-1.874c-.446-.148-.187-.381-.162-.586.038-.319.254-.192.416-.132,1.612.572,2.141,1.631,2.139,3.392,0,.208-.1.237-.273.235-.44-.008-.88,0-1.321-.005Z" transform="translate(-423.308 -5.966)" fill="#14a89c"/>
        <path id="Path_29" data-name="Path 29" d="M266,11.635c-.424,0-.856-.008-1.282,0-.227.008-.316-.073-.291-.3.019-.194-.043-.411.287-.4.575.016,1.151-.011,1.723.008.3.011.354-.105.319-.376a2.107,2.107,0,0,0-1.51-1.842c-.485-.159-.191-.4-.159-.61.048-.33.262-.146.419-.095,1.7.559,2.144,1.809,2.12,3.4,0,.2-.116.211-.262.211H266Z" transform="translate(-193.287 -5.956)" fill="#14a89c"/>
        <path id="Path_30" data-name="Path 30" d="M574.668,60.773c-.424,0-.856-.019-1.28.005-.3.016-.276-.159-.273-.354s-.019-.359.278-.346c.559.024,1.123-.019,1.68.016.346.022.363-.127.324-.391a2.053,2.053,0,0,0-1.491-1.8c-.416-.132-.235-.351-.187-.578.067-.33.276-.2.456-.138,1.658.6,2.114,1.717,2.074,3.386-.005.2-.121.2-.262.2C575.549,60.77,575.108,60.773,574.668,60.773Z" transform="translate(-418.617 -41.857)" fill="#2d2961"/>
        <path id="Path_31" data-name="Path 31" d="M555.805,59.606c0,.575.013,1.151,0,1.726a1.71,1.71,0,0,1-2.33,1.575c-.313-.111-.105-.33-.113-.5-.008-.192.1-.211.262-.17a1.963,1.963,0,0,0,.435.061.761.761,0,0,0,.867-.7,4.446,4.446,0,0,0,.065-.756q.008-1.405,0-2.808c0-.289-.054-.521.4-.526.476,0,.424.246.424.545C555.8,58.564,555.805,59.085,555.805,59.606Z" transform="translate(-404.154 -42.143)" fill="#2d2961"/>
        <path id="Path_32" data-name="Path 32" d="M570.25,4.466c0-.761.011-1.523-.005-2.284-.005-.267.087-.376.343-.33.213.038.532-.141.529.316-.013,1.564-.016,3.127,0,4.691.005.405-.246.316-.475.335-.27.022-.413-.032-.4-.363C570.265,6.043,570.25,5.255,570.25,4.466Z" transform="translate(-416.518 -1.515)" fill="#14a89c"/>
        <path id="Path_33" data-name="Path 33" d="M589.028,53.765c0,.775-.019,1.55.008,2.325.011.335-.157.348-.389.316-.2-.027-.491.138-.485-.3.019-1.55.022-3.1,0-4.65-.005-.386.213-.319.432-.316s.456-.092.446.3C589.009,52.212,589.028,52.989,589.028,53.765Z" transform="translate(-429.602 -37.492)" fill="#2d2961"/>
        <path id="Path_34" data-name="Path 34" d="M258.075,4.524c0-.775.019-1.55-.008-2.323-.013-.354.17-.351.419-.34.227.008.44-.048.435.324-.019,1.547-.022,3.1,0,4.644.008.465-.289.327-.529.359-.287.041-.33-.1-.327-.346.011-.775.005-1.547.005-2.323Z" transform="translate(-188.645 -1.527)" fill="#14a89c"/>
        <path id="Path_35" data-name="Path 35" d="M479.152,4.55c0,.761-.024,1.523.011,2.282.016.378-.17.363-.43.363s-.424,0-.424-.346c.019-1.534.024-3.068,0-4.6-.005-.4.194-.37.465-.383.287-.013.4.048.386.367C479.13,3,479.147,3.773,479.152,4.55Z" transform="translate(-349.414 -1.526)" fill="#08a79b"/>
        <path id="Path_36" data-name="Path 36" d="M280.573,4.559c0,.775-.011,1.55.005,2.325.005.289-.121.346-.359.311-.211-.03-.494.116-.489-.311q.024-2.346,0-4.691c-.005-.424.278-.287.489-.313.237-.03.363.024.356.313-.019.788-.005,1.575-.005,2.363Z" transform="translate(-204.459 -1.537)" fill="#0ba79b"/>
        <path id="Path_37" data-name="Path 37" d="M471.536,53.762c0-.775.019-1.55-.008-2.323-.013-.354.192-.308.4-.3s.448-.1.443.3c-.022,1.564-.019,3.125,0,4.688.005.424-.276.259-.462.276s-.394.07-.381-.276c.03-.788.011-1.575.008-2.363Z" transform="translate(-344.463 -37.495)" fill="#292360"/>
        <path id="Path_38" data-name="Path 38" d="M567.542,53.743c0,.775-.022,1.553.008,2.325.013.383-.211.319-.432.319s-.432.061-.424-.319q.036-2.325,0-4.653c-.005-.363.2-.3.405-.294s.465-.111.451.291C567.526,52.194,567.542,52.968,567.542,53.743Z" transform="translate(-413.929 -37.478)" fill="#292360"/>
        <path id="Path_39" data-name="Path 39" d="M453.6,99.843a1.013,1.013,0,0,0-.632-.165c-1.575.008-3.154.011-4.731,0-.311,0-.411.081-.411.4q.012,11.65,0,23.3c0,.289.065.424.378.391a4.883,4.883,0,0,1,.562.005,4.426,4.426,0,0,1-.821.143c-.154.041-.219-.032-.211-.191s0-.294,0-.44q0-11.638-.011-23.275c0-.37.1-.432.443-.429,1.712.016,3.424.008,5.136.005C453.485,99.587,453.68,99.557,453.6,99.843Z" transform="translate(-327.09 -72.861)" fill="#2d2961"/>
        <path id="Path_40" data-name="Path 40" d="M543.1,50.811h-.64c-.127,0-.287.038-.267-.182.013-.146-.065-.348.211-.313.094.011.113-.011.111-.127a.936.936,0,0,1,1.261-.926c.121.03.162.076.141.182-.024.121.019.287-.173.311a3.137,3.137,0,0,1-.319.005c-.162,0-.294.051-.311.237s.13.256.27.291a1.393,1.393,0,0,0,.4.024c.187-.008.292.022.292.254s-.116.254-.3.248C543.557,50.8,543.33,50.811,543.1,50.811Z" transform="translate(-396.047 -36.096)" fill="#2d2961"/>
        <path id="Path_41" data-name="Path 41" d="M413.02,50.773c-.213,0-.424.008-.64,0-.1-.005-.278.073-.265-.132.008-.138-.124-.383.2-.363.159.011.105-.108.108-.191a.969.969,0,0,1,1.3-.861c.132.046.121.127.094.216s.046.262-.141.281a1.645,1.645,0,0,1-.2,0c-.208-.008-.454-.005-.446.267.005.246.251.27.454.294s.545-.143.491.319c-.016.143-.07.182-.2.178C413.526,50.77,413.274,50.773,413.02,50.773Z" transform="translate(-301.081 -36.058)" fill="#2d2961"/>
        <path id="Path_42" data-name="Path 42" d="M398.415,73.039a.463.463,0,0,1-.005.924.424.424,0,0,1-.462-.476.437.437,0,0,1,.467-.448Z" transform="translate(-290.752 -53.485)" fill="#2d2961"/>
        <path id="Path_43" data-name="Path 43" d="M243.235,52.55a.459.459,0,0,1,0,.918.417.417,0,0,1-.451-.451.432.432,0,0,1,.451-.468Z" transform="translate(-177.491 -38.529)" fill="#2d2961"/>
        <path id="Path_44" data-name="Path 44" d="M515.4,24.46c-.019.265-.113.462-.419.478-.326.016-.459-.187-.467-.467a.414.414,0,0,1,.437-.462.42.42,0,0,1,.448.451Z" transform="translate(-375.844 -17.696)" fill="#14a89c"/>
        <path id="Path_45" data-name="Path 45" d="M364.823,3.251a.424.424,0,0,1-.473.424.406.406,0,0,1-.435-.462.431.431,0,0,1,.47-.446.439.439,0,0,1,.437.483Z" transform="translate(-265.91 -2.19)" fill="#14a89c"/>
        <path id="Path_46" data-name="Path 46" d="M296.707,24.484c-.041.259-.141.456-.448.448s-.446-.191-.44-.485a.408.408,0,0,1,.456-.437.438.438,0,0,1,.433.474Z" transform="translate(-216.203 -17.695)" fill="#14a89c"/>
        <path id="Path_47" data-name="Path 47" d="M495.312,24.625c-.027.294-.173.462-.456.459a.447.447,0,1,1,.456-.459Z" transform="translate(-361.156 -17.828)" fill="#14a89c"/>
        <path id="Path_48" data-name="Path 48" d="M519.745,24.507c-.035.242-.135.435-.443.437-.327.005-.454-.176-.454-.473a.394.394,0,0,1,.408-.443.448.448,0,0,1,.489.478Z" transform="translate(-379.005 -17.71)" fill="#14a89c"/>
        <path id="Path_49" data-name="Path 49" d="M402.713,73.069a.439.439,0,0,1,.467.446.416.416,0,0,1-.435.47.406.406,0,0,1-.459-.44.424.424,0,0,1,.427-.476Z" transform="translate(-293.919 -53.508)" fill="#2d2961"/>
        <path id="Path_50" data-name="Path 50" d="M495.3,29.035a.424.424,0,0,1-.462.424.413.413,0,0,1-.456-.44c0-.311.173-.454.478-.446C495.151,28.579,495.283,28.738,495.3,29.035Z" transform="translate(-361.146 -21.025)" fill="#14a89c"/>
        <path id="Path_51" data-name="Path 51" d="M369.123,3.231a.4.4,0,0,1-.459.429.419.419,0,0,1-.437-.424.457.457,0,0,1,.467-.485.437.437,0,0,1,.43.479Z" transform="translate(-269.057 -2.175)" fill="#14a89c"/>
        <path id="Path_52" data-name="Path 52" d="M300.549,24.995a.434.434,0,0,1-.462-.454.4.4,0,0,1,.435-.454.413.413,0,0,1,.467.465.42.42,0,0,1-.44.443Z" transform="translate(-219.318 -17.752)" fill="#14a89c"/>
        <path id="Path_53" data-name="Path 53" d="M247.1,52.977a.4.4,0,0,1,.437-.424.45.45,0,1,1,.013.9.417.417,0,0,1-.451-.475Z" transform="translate(-180.638 -38.53)" fill="#2d2961"/>
        <path id="Path_54" data-name="Path 54" d="M134.8,20.012c.005-.076-.008-.192.1-.176a.265.265,0,0,1,.213.256c.008.084-.013.173-.121.17C134.843,20.257,134.8,20.144,134.8,20.012Z" transform="translate(-98.666 -14.649)" fill="#08a79b"/>
        <path id="Path_55" data-name="Path 55" d="M136.887,19.827c-.038.081-.092.162-.191.165-.084,0-.089-.076-.087-.143a.131.131,0,0,1,.154-.132C136.833,19.718,136.892,19.737,136.887,19.827Z" transform="translate(-99.986 -14.563)" fill="#08a79b"/>
        <path id="Path_56" data-name="Path 56" d="M57.447,1.157c0-.173-.008-.348-.013-.521Q29.4.638,1.36.63C1.057.632.99.7.99,1Q1,29.038,1,57.074c.173.005.348.013.521.013q27.726,0,55.453.008c.389,0,.485-.095.485-.485Q57.443,28.889,57.447,1.157Zm-6.823,8.36c.111-.187.284-.141.448-.067.013.051.027.1.041.151a1.531,1.531,0,0,1-.005.159.1.1,0,0,0-.022.073.308.308,0,0,1-.43.013A.266.266,0,0,1,50.624,9.517ZM49.757,9.3a.051.051,0,0,0,.051-.024c.081,0,.162-.005.242-.005a.094.094,0,0,0,.07.016c.124.159.194.324.016.485a.254.254,0,0,1-.356.011c-.192-.15-.141-.314-.024-.482Zm.289,1.728a.268.268,0,0,1-.321-.07c-.116-.113-.054-.242-.043-.37a.045.045,0,0,0,.046-.027l.092-.065V10.5c.178,0,.351.013.383.242A.255.255,0,0,1,50.046,11.026Zm-.743.363a.434.434,0,0,1-.07.454h-.3c-.167-.416-.1-.5.363-.454,0,0,0,0,0,0Zm-.48-1.423a.228.228,0,0,1,.278-.1.242.242,0,0,1,.176.311.673.673,0,0,1-.121.2l-.005.005a.8.8,0,0,1-.262-.07.236.236,0,0,1-.066-.348Zm-.459.521c.194.054.187.227.2.383l-.057.141a.835.835,0,0,1-.454.022h0c-.07-.154-.157-.311-.013-.473a.313.313,0,0,1,.327-.072ZM47.8,9.267a.1.1,0,0,0,.067.022c.084.151.157.311.03.47s-.3.092-.465.051c-.151-.428-.092-.512.367-.542Zm-.248,2.819a.317.317,0,0,1-.337.316c-.211-.005-.348-.111-.335-.346a.313.313,0,0,1,.327-.327c.208,0,.327.139.345.357ZM46.9,10.971c.162-.011.2.092.216.227,0,.143-.092.205-.227.2a.19.19,0,0,1-.2-.2.2.2,0,0,1,.21-.227Zm-.319-.545v.005c.022.178.1.373-.1.5a.443.443,0,0,1-.511-.065v-.419a.5.5,0,0,1,.611-.022Zm-1.736,1.6c.061-.054.124-.108.182-.165a.734.734,0,0,1,.6.148.8.8,0,0,1-.019.624H45.6c-.2.087-.411.194-.624.038-.232-.17-.182-.408-.135-.643Zm-1.753.167c.054-.048.108-.1.162-.148a1.193,1.193,0,0,1,.276-.013.331.331,0,0,1,.267.386.3.3,0,0,1-.287.324.35.35,0,0,1-.413-.232,1.121,1.121,0,0,1-.005-.316Zm-1.037,1.293c.208,0,.324.154.363.359a.348.348,0,0,1-.363.346.307.307,0,0,1-.359-.327.328.328,0,0,1,.359-.379Zm-.4,3.659c-.27.167-.476.041-.659-.165l-.024-.154c.141-.462.262-.519.788-.363l-.005.019c.1.244.187.486-.1.664Zm.108,1.514a.564.564,0,0,1-.6.07c-.065-.246-.165-.516.2-.61.291-.078.432.125.4.538ZM40.826,12.3c.03-.038.057-.078.087-.116l.005.008c.127-.024.237-.121.378-.076.232.076.373.237.291.476-.121.351-.386.337-.672.208,0,0,0,.008-.005.008-.03-.038-.057-.078-.087-.116,0-.132,0-.262,0-.391Zm-.087,9.273a1.024,1.024,0,0,1-.1.216h0c-.067.005-.132.016-.2.016a.293.293,0,0,1-.321-.359.285.285,0,0,1,.335-.27.3.3,0,0,1,.283.4Zm-5.452.246a.359.359,0,0,1-.467-.078.35.35,0,0,1-.032-.44.353.353,0,0,1,.448-.146.973.973,0,0,1,.248.182c0,.1,0,.2.005.3a.918.918,0,0,1-.2.183Zm.308,3.975a.259.259,0,0,1,.3.254c-.013.138-.07.248-.235.256s-.291-.051-.3-.237a.242.242,0,0,1,.232-.273Zm-.662-5.517a.328.328,0,0,1-.373-.367.321.321,0,0,1,.316-.359c.327,0,.416.157.413.389A.317.317,0,0,1,34.934,20.275Zm-.67,9.26a.383.383,0,0,1,.424-.276c.148.011.232.113.337.189a.071.071,0,0,0,.016.065c-.011.157.013.321-.132.437a.4.4,0,0,1-.48.027A.35.35,0,0,1,34.264,29.535Zm-.154-4.974c.005-.187.141-.273.327-.267a.254.254,0,0,1,.267.281.279.279,0,0,1-.311.294.283.283,0,0,1-.283-.308Zm.591,3.181a.363.363,0,0,1-.4-.394.358.358,0,0,1,.376-.413.405.405,0,1,1,.024.807Zm.4-4.359H34.75a.493.493,0,0,1-.124-.367.279.279,0,0,1,.343-.251c.273.032.289.23.267.446l.008.016c-.045.054-.093.1-.142.156Zm.532,4.855a.552.552,0,0,1,.511.521.516.516,0,0,1-.508.473.5.5,0,1,1,0-.993Zm.408-3.64a.234.234,0,0,1,.256-.242c.176,0,.27.078.276.242-.008.192-.1.278-.276.276a.242.242,0,0,1-.256-.274Zm.462-5.028c.046-.011.092-.019.135-.03h.242a.1.1,0,0,0,.073.016c.162.182.27.378.078.594a.346.346,0,0,1-.5.054c-.249-.19-.138-.416-.028-.633Zm0,1.925a.34.34,0,0,1,.381-.363.348.348,0,0,1,.376.376c.005.242-.148.351-.381.367a.357.357,0,0,1-.372-.379Zm.618-4.612a.45.45,0,0,1,.467-.494.476.476,0,0,1,.485.451c-.038.33-.192.511-.5.5a.431.431,0,0,1-.451-.456Zm1.118-3.022c.008.027.013.051.022.078v.242a.383.383,0,0,1-.4.227c-.187-.135-.33-.3-.173-.526s.368-.156.554-.021Zm-.489-2.423a.271.271,0,0,1,.267-.311c.192.008.308.089.313.287a.26.26,0,0,1-.276.308.268.268,0,0,1-.3-.285Zm.424,6.516a.363.363,0,0,1,.383.413.378.378,0,0,1-.756.011.363.363,0,0,1,.376-.426Zm.016,6.516c.095.008.135.076.135.167a.139.139,0,0,1-.157.141.141.141,0,0,1-.154-.146.144.144,0,0,1,.179-.164Zm.065-4.52.011-.008c.061-.13.1-.287.3-.256a.222.222,0,0,1,.189.124c.076.173-.024.276-.148.363l-.024-.005-.019.016a1.157,1.157,0,0,1-.138-.011v.005c-.056-.078-.111-.156-.168-.231Zm.182,1.358-.013-.024.027.011a.885.885,0,0,1,.232-.03.214.214,0,0,1,.2.248.208.208,0,0,1-.2.208.211.211,0,0,1-.265-.178,1,1,0,0,1,.024-.237Zm.17-5.439-.2-.016h0a.93.93,0,0,1-.151-.178.478.478,0,0,1,.065-.621.441.441,0,0,1,.545-.089.465.465,0,0,1,.235.545.436.436,0,0,1-.489.357Zm.48-2.86a.342.342,0,0,1-.356-.262.393.393,0,0,1,.594-.437,1.228,1.228,0,0,1,.192.2.622.622,0,0,1-.151.465,1.668,1.668,0,0,1-.274.032Zm.419,3.513c.2,0,.273.135.3.316-.035.17-.127.308-.313.291a.294.294,0,0,1-.276-.332.282.282,0,0,1,.3-.276Zm.524,1.356a.44.44,0,0,1,.465.443.4.4,0,0,1-.424.465.4.4,0,0,1-.47-.424.437.437,0,0,1,.434-.483Zm.005,1.7c.084,0,.17,0,.254.005.248.3.237.554-.032.618-.141.035-.3.041-.381-.121a.363.363,0,0,1,.164-.5Zm.254-3.97a.282.282,0,0,1-.3-.3c-.008-.222.121-.313.321-.316a.291.291,0,0,1,.308.281c-.019.214-.108.346-.327.338Zm-.065-4.78a.377.377,0,0,1,.394.411.363.363,0,0,1-.386.37.348.348,0,0,1-.4-.351c0-.3.153-.433.4-.43Zm-.408,2.738a.43.43,0,0,1,.519.061.408.408,0,0,1,.1.476.4.4,0,0,1-.448.251,1.541,1.541,0,0,1-.3-.094h0c-.1-.259-.179-.526.136-.693Zm-.227-3.443a1.59,1.59,0,0,1-.078.267l.016.016-.016-.016a1.5,1.5,0,0,1-.262.089.424.424,0,0,1-.524-.4.416.416,0,0,1,.437-.462.424.424,0,0,1,.426.508Zm-.7-2.927a.382.382,0,0,1,.416.432.363.363,0,0,1-.411.389.373.373,0,0,1-.419-.386.382.382,0,0,1,.414-.436Zm-.5,1.817a.4.4,0,0,1-.451.405.383.383,0,0,1-.389-.424.42.42,0,1,1,.84.016Zm-.591-2.7a.32.32,0,0,1,.354.343.333.333,0,0,1-.356.383c-.237,0-.367-.124-.37-.248,0-.368.138-.479.373-.476Zm-.562,6.6c-.061.232-.242.256-.437.242-.024-.008-.048-.019-.073-.027a.223.223,0,0,0-.019-.035.363.363,0,0,1,.038-.505.259.259,0,0,1,.363-.027.32.32,0,0,1,.128.354Zm-.37-2.263a.248.248,0,0,1-.287-.259.271.271,0,0,1,.3-.294c.173,0,.256.113.262.284a.25.25,0,0,1-.278.272Zm-.362-2.529a.286.286,0,0,1,.376-.205,1.09,1.09,0,0,1,.216.095h.005a.871.871,0,0,1-.005.237.3.3,0,0,1-.4.219.267.267,0,0,1-.19-.345Zm.308,6.929a.394.394,0,0,1,.446.424.453.453,0,0,1-.9.024.4.4,0,0,1,.459-.448Zm-.084,3.321a.373.373,0,0,1-.389.411.42.42,0,1,1,.389-.411Zm-.591-3.983V14.4c-.043.032-.084.065-.13.095a.293.293,0,0,1-.467-.121.268.268,0,0,1,.192-.405.3.3,0,0,1,.4.27A1,1,0,0,1,36.141,14.391Zm-.027-2.614a.333.333,0,0,1-.351.359.34.34,0,0,1-.359-.354.312.312,0,0,1,.289-.348C35.987,11.434,36.122,11.561,36.114,11.777Zm-.559-2.671c.251-.005.363.132.376.376a.364.364,0,1,1-.727-.027.319.319,0,0,1,.351-.348Zm.091,7.334a.494.494,0,0,1,.5.508.512.512,0,1,1-1.023-.032C35.134,16.584,35.334,16.446,35.646,16.441Zm-.537-.7a1.362,1.362,0,0,1-.095.259l.016.024-.019-.022a2.2,2.2,0,0,1-.227.07.412.412,0,0,1-.489-.242.393.393,0,0,1,.07-.476.434.434,0,0,1,.545-.089.4.4,0,0,1,.194.475Zm-.07-2.571a.393.393,0,1,1-.786-.016.357.357,0,0,1,.381-.376.352.352,0,0,1,.4.391Zm-.591-2.682a.327.327,0,0,1,.363.363c-.011.254-.13.378-.378.363a.339.339,0,0,1-.351-.389.33.33,0,0,1,.363-.337Zm-.061,7.547c.242-.022.359.13.4.363a.355.355,0,0,1-.378.363.326.326,0,0,1-.367-.332.336.336,0,0,1,.342-.394ZM26.838,35.921c-.061.054-.124.108-.189.162-.041.008-.081.013-.121.022l-.316-.016h0a.54.54,0,0,1-.235-.659c.089-.256.311-.3.545-.3.043.011.087.019.13.03.057.051.113.1.17.151h0a1.1,1.1,0,0,1,0,.621.039.039,0,0,1,.016-.007Zm-6.579-.4h0c-.159.089-.319.143-.459-.027a.242.242,0,0,1-.005-.327c.141-.165.3-.1.467-.024a.108.108,0,0,0,.019.065c-.008.105-.016.208-.022.313Zm-3.043.087-.019-.016a1.009,1.009,0,0,1-.182.067c-.2.035-.346-.032-.37-.248a.262.262,0,0,1,.259-.327.272.272,0,0,1,.321.308,1.6,1.6,0,0,1-.027.194c0,.005.015.022.015.022ZM9.9,29.743c.038-.07.065-.143.1-.216h0c.089-.03.173-.065.265-.087a.509.509,0,0,1,.629.294.516.516,0,0,1-.162.678.522.522,0,0,1-.666,0,.5.5,0,0,1-.163-.669Zm-.143-.694a.549.549,0,0,1-.545-.567.562.562,0,0,1,.545-.537.554.554,0,0,1,.556.559.512.512,0,0,1-.556.545Zm1.412,1.688a.41.41,0,0,1,.429.47.418.418,0,0,1-.491.448c-.281-.016-.424-.2-.413-.532a.412.412,0,0,1,.475-.386Zm.681-2.017a.469.469,0,0,1,.635.313c.024.076.038.154.057.23l-.154.324a1.242,1.242,0,0,1-.294.105c-.278.035-.513-.043-.578-.348a.468.468,0,0,1,.334-.624Zm-.246,8.825.148-.022c.213,0,.4.054.467.287a.427.427,0,0,1-.562.551C11.341,38.244,11.319,37.888,11.608,37.545Zm.554-1.447a.3.3,0,0,1,.367-.321c.211.013.291.157.324.327-.046.227-.157.359-.386.34a.3.3,0,0,1-.305-.347Zm.578-5.05a.407.407,0,0,1-.416-.44.394.394,0,0,1,.454-.432.4.4,0,0,1,.419.435c0,.294-.19.407-.457.437Zm1.425-7.9a1.151,1.151,0,0,1-.124.242h-.008a.872.872,0,0,1-.27-.033.286.286,0,0,1-.146-.4.267.267,0,0,1,.321-.17.276.276,0,0,1,.227.36Zm.265,1.35a.285.285,0,0,1-.121.437c-.246.148-.429-.008-.476-.4a.053.053,0,0,0,.024-.054c.194-.163.4-.236.572.016ZM13.6,27.918a.5.5,0,0,1,.491.559.467.467,0,0,1-.476.456.508.508,0,0,1-.016-1.015Zm.373,4.259a1.045,1.045,0,0,1-.235.211l-.248-.016a1.353,1.353,0,0,1-.2-.189.414.414,0,0,1,.61-.545.4.4,0,0,1,.076.539ZM13.233,33.8a.3.3,0,0,1,.3.319c-.027.246-.146.367-.363.348a.308.308,0,0,1-.3-.346.3.3,0,0,1,.357-.321Zm-.205,4.623a.618.618,0,0,0,.022-.076h0a.707.707,0,0,0,.073-.027c.211-.1.413-.121.559.1a.36.36,0,0,1-.038.476.363.363,0,0,1-.47.076.38.38,0,0,1-.148-.549Zm.465-.856a2.3,2.3,0,0,1-.273-.046h0a1.5,1.5,0,0,1-.146-.276.453.453,0,0,1,.713-.485.428.428,0,0,1,.154.494.408.408,0,0,1-.45.31Zm.281-2.414c-.011-.182.1-.259.287-.265.143.019.267.076.267.262a.257.257,0,0,1-.294.289c-.186,0-.251-.135-.261-.287Zm.237-5.339a.315.315,0,0,1,.351-.343.332.332,0,0,1,.359.381c-.008.219-.146.33-.262.324-.343-.017-.451-.144-.451-.366Zm.637,3.079a.247.247,0,0,1,.254.242c0,.242-.105.324-.278.321a.281.281,0,1,1,.024-.562Zm.23-1.785a.357.357,0,0,1,.386-.363.408.408,0,0,1,.005.815.39.39,0,0,1-.393-.453Zm-.413,6.966c.1-.246.291-.235.545.03,0,.054.005.105.008.159a.042.042,0,0,0-.008.043H15c-.121.132-.256.246-.443.116a.273.273,0,0,1-.093-.351Zm.451-1.825a.273.273,0,0,1,.284-.278c.194-.008.289.111.3.3a.29.29,0,0,1-.308.291.271.271,0,0,1-.28-.319Zm.524-1.955a.279.279,0,0,1,.289-.267.262.262,0,0,1,.289.262,1.37,1.37,0,0,1-.046.308l.013.027-.027-.013a1.105,1.105,0,0,1-.311.019.283.283,0,0,1-.209-.336Zm2.69-2.6c-.116.138-.259.094-.378-.027l-.041-.187c.061-.061.121-.121.182-.176.054.005.108.008.165.013.124.1.184.237.07.372Zm.011-5.562a.253.253,0,0,1,.256-.291.236.236,0,0,1,.276.222c.005.219-.073.319-.254.33S18.151,26.3,18.14,26.127ZM17.691,33.3a.073.073,0,0,0,.019.065c-.011.154.019.327-.192.383a.288.288,0,0,1-.291-.073.254.254,0,0,1-.061-.291c.129-.273.326-.206.523-.084ZM17.534,28a.246.246,0,0,1,.281.1.345.345,0,0,1-.057.432c-.121,0-.235,0-.354-.005C17.291,28.317,17.2,28.1,17.534,28Zm.294-3.084c-.165,0-.287-.076-.289-.259a.26.26,0,0,1,.289-.3.247.247,0,0,1,.289.256c0,.19-.093.306-.29.3Zm-.088-1.531a.039.039,0,0,0-.043.027c-.157.013-.327.076-.465-.041a.377.377,0,0,1,.276-.666.359.359,0,0,1,.337.34A.6.6,0,0,1,17.74,23.389Zm-.969,8.944a.485.485,0,0,1-.478.521.5.5,0,0,1-.494-.519.456.456,0,0,1,.5-.459.447.447,0,0,1,.473.46Zm-.089-2.112a.219.219,0,0,1,.265-.121.23.23,0,0,1,.182.3,1.121,1.121,0,0,1-.095.211h0a.824.824,0,0,1-.265-.043.245.245,0,0,1-.087-.34Zm-.7-.924a.232.232,0,0,1-.246-.256.218.218,0,0,1,.219-.237c.162-.016.237.087.273.224-.01.165-.091.27-.245.273Zm-.359-5.222c-.151-.127-.108-.284-.022-.432.363-.13.5.024.454.381-.132.1-.278.181-.431.054Zm.367,14.747a.28.28,0,1,1,.03.559.254.254,0,0,1-.3-.281.259.259,0,0,1,.273-.274Zm.3-1.753a.224.224,0,0,1,.327,0c.182.167.067.308-.057.443v.008c-.048,0-.095.005-.143.005a.025.025,0,0,0-.035-.019c-.169-.116-.238-.267-.091-.435Zm1.467.529a.555.555,0,0,1,.575.535.554.554,0,1,1-.575-.535Zm.462-1.069a.2.2,0,0,1-.208-.232.192.192,0,0,1,.194-.2.2.2,0,0,1,.227.2c-.01.142-.07.242-.213.237Zm.192-2.12c.043-.219.211-.242.394-.23l.005-.005.162.187c0,.065,0,.127.005.191a.336.336,0,0,1-.437.157.242.242,0,0,1-.129-.3Zm.813-6.656a.223.223,0,0,1-.267-.256c0-.148.061-.246.235-.248s.27.078.276.287a.224.224,0,0,1-.244.221ZM19,32.768a.048.048,0,0,0-.022-.048c0-.081,0-.162,0-.242a.347.347,0,0,1,.3-.065c.151.315.048.427-.281.358Zm-.162-10.44c-.032-.343.211-.376.467-.37a.05.05,0,0,0,.057.019c.182.356.138.594-.127.632-.213.033-.375-.051-.4-.277Zm.214,16c.363,0,.505.187.5.478a.436.436,0,0,1-.478.476A.451.451,0,0,1,18.6,38.8a.424.424,0,0,1,.448-.465Zm.281-1.1a.256.256,0,0,1,.065-.291.262.262,0,0,1,.3-.051c.289.143.17.337.048.526v.024l-.016-.019c-.165,0-.33.008-.394-.19Zm.778-11.609H20.1c-.141-.027-.3-.016-.351-.2a.25.25,0,0,1,.067-.259c.151-.13.3-.051.437.038v.294c-.047.043-.1.086-.147.13Zm.291,2.94c.022.116.067.235-.041.332a.242.242,0,0,1-.254.061.213.213,0,0,1-.143-.216c0-.2.146-.224.294-.246a1.409,1.409,0,0,0,.142.07Zm-.556,2.131a.17.17,0,0,1-.151.2.2.2,0,1,1-.054-.394.187.187,0,0,1,.2.194Zm.435,2.7c.157-.046.335-.084.363.135s-.157.182-.3.182c-.116-.085-.079-.2-.068-.317Zm6.6-11.312a.529.529,0,0,1-.67.686l-.032-.008a.613.613,0,0,1-.108-.926h.009C26.393,21.75,26.717,21.677,26.876,22.077Zm-.789-1.353a.28.28,0,0,1,.291-.311c.2,0,.332.084.327.246.011.259-.1.356-.284.367a.282.282,0,0,1-.334-.3Zm4.45-2.452h0a1.267,1.267,0,0,1,.157.273.5.5,0,0,1-.2.6A.463.463,0,0,1,29.9,19.1a.476.476,0,0,1-.141-.58.47.47,0,0,1,.545-.3A2.311,2.311,0,0,1,30.537,18.271Zm.737,1.207a1.345,1.345,0,0,1,.227.061c.051.061.1.116.154.176v.473h0a1.615,1.615,0,0,1-.213.173.459.459,0,0,1-.556-.051.434.434,0,0,1-.121-.54.471.471,0,0,1,.511-.287ZM31.107,17.3a.191.191,0,0,1,.211-.191.206.206,0,0,1,.23.219c-.022.135-.092.222-.237.216a.206.206,0,0,1-.2-.24Zm-1.731,6-.022-.019c-.278.048-.551.061-.651-.278a.41.41,0,0,1,.182-.491.387.387,0,0,1,.513.054.4.4,0,0,1,.108.505c-.038.07-.087.135-.13.2C29.374,23.276,29.377,23.305,29.377,23.305Zm.165,2.962a1.769,1.769,0,0,1,.227-.27h.337a.5.5,0,0,1,.287.521.434.434,0,0,1-.319.367.383.383,0,0,1-.462-.138.406.406,0,0,1-.07-.48Zm.737-1.582h-.121c-.189-.108-.373-.222-.319-.485a.341.341,0,0,1,.316-.3.345.345,0,0,1,.411.227c.1.291-.058.439-.287.561Zm-.335-3.64a.438.438,0,0,1,.308.5.424.424,0,0,1-.4.424.437.437,0,0,1-.532-.356,1.375,1.375,0,0,0-.051-.148v-.024a1.388,1.388,0,0,0,.078-.138.441.441,0,0,1,.594-.254Zm-.367-.727a.485.485,0,0,1-.6.284c-.162-.024-.235-.17-.351-.251h0a.617.617,0,0,1,.416-.783c.061,0,.124.008.182.011.313.154.488.384.351.741Zm-.606-2.071c-.111.005-.222.008-.332.013a.377.377,0,0,1-.008-.454c.384-.064.468.106.338.44Zm-.038,6.365a.349.349,0,0,1,.227.448.316.316,0,0,1-.376.273,1.891,1.891,0,0,1-.3-.092.068.068,0,0,0-.041-.065c-.016-.143-.073-.3.027-.424a.382.382,0,0,1,.457-.14ZM28,26.6a.41.41,0,0,1,.5-.224,2.066,2.066,0,0,1,.256.092h0a1.554,1.554,0,0,1,.084.262.436.436,0,0,1-.262.489.424.424,0,0,1-.511-.1A.436.436,0,0,1,28,26.6Zm-.13-2.908a.076.076,0,0,0-.065.038c-.265.019-.508,0-.648-.278a.568.568,0,0,1,.167-.683.927.927,0,0,1,.615.024.594.594,0,0,1-.07.9Zm.613-2.031a.463.463,0,0,1-.454.33.469.469,0,0,1-.5-.316,1.259,1.259,0,0,1-.041-.354.076.076,0,0,0,.027-.07.555.555,0,0,1,.8-.162.477.477,0,0,1,.167.572Zm-.858-1.61c-.192.008-.3-.067-.308-.273a.274.274,0,0,1,.273-.3c.213.011.313.113.311.3a.259.259,0,0,1-.276.273Zm-.161-1.8c-.189.057-.389.165-.513-.095A.281.281,0,0,1,27,17.823a.368.368,0,0,1,.476-.019.816.816,0,0,1,0,.448Zm-.259,6.27a2.439,2.439,0,0,1,.278.032.048.048,0,0,0,.051.035,1.317,1.317,0,0,1,.116.332.414.414,0,0,1-.413.485.443.443,0,1,1-.032-.886Zm-.521,7.637c.061-.324.222-.559.578-.521a.442.442,0,0,1,.413.459.424.424,0,0,1-.324.48c-.335.1-.521-.087-.662-.354a.061.061,0,0,0,0-.065Zm-2.413-6.83h0a1.791,1.791,0,0,1-.242.011c-.141-.011-.165-.116-.167-.23a.218.218,0,0,1,.213-.242.226.226,0,0,1,.248.159c.048.116-.019.205-.054.3Zm-.157,5.779.132.024c.146.194.256.4-.051.537a.242.242,0,0,1-.348-.159c-.072-.235.079-.335.268-.4Zm.235-.98a1.3,1.3,0,0,1-.213-.105l-.061-.1c-.087-.47.024-.7.354-.737a.453.453,0,0,1,.511.227.494.494,0,0,1-.048.565.473.473,0,0,1-.542.154Zm.454-7.361a.25.25,0,0,1,.27.311.255.255,0,0,1-.313.232c-.2-.022-.259-.167-.232-.348a.755.755,0,0,1,.076-.182h0a1.656,1.656,0,0,1,.2-.013Zm.135,5.5c-.222-.005-.389-.108-.389-.363a.354.354,0,0,1,.37-.378c.242.019.381.146.37.386a.33.33,0,0,1-.351.355Zm.686,3.192a.39.39,0,0,1,.424.443c.016.273-.162.4-.416.411a.427.427,0,1,1-.005-.854Zm.4-.856c-.383-.011-.476-.276-.454-.606.019-.008.024-.019.016-.038.386-.381.586-.37.913.051h.005c-.01.324-.089.6-.481.59Zm-.494-6.316a.234.234,0,0,1,.27-.265c.127.005.23.057.242.208.016.173-.051.284-.227.3a1.393,1.393,0,0,1-.235-.016l-.022.019.019-.022a1.393,1.393,0,0,1-.047-.227Zm.751,4.539c-.061-.024-.124-.046-.187-.067l-.022.013.011-.024a1.743,1.743,0,0,1-.065-.232.385.385,0,0,1,.213-.467.4.4,0,0,1,.508.1.424.424,0,0,1-.459.678Zm.535-1.717a.386.386,0,0,1-.413-.435.363.363,0,0,1,.419-.378.348.348,0,0,1,.405.383.376.376,0,0,1-.411.429ZM25.794,19a.285.285,0,0,1-.019-.57.27.27,0,0,1,.3.3.253.253,0,0,1-.281.267Zm-.485-1.863c-.159-.005-.222-.121-.222-.27,0-.17.116-.23.256-.235s.242.081.232.356c0,.06-.1.154-.265.149Zm.011,8.509a.41.41,0,0,1,.478.33.48.48,0,0,1-.769.508.444.444,0,0,1-.124-.575c.032-.073.078-.138.116-.208a.073.073,0,0,0,.061-.041c.08,0,.161-.007.239-.013ZM24.8,20.227a.259.259,0,0,1-.284-.273.279.279,0,0,1,.311-.278.237.237,0,0,1,.254.246.26.26,0,0,1-.281.3Zm-.073,1.115h.008c0,.1,0,.194.005.291h0a.375.375,0,0,1-.462.121.031.031,0,0,0-.035.016c-.038-.084-.076-.165-.113-.248a.292.292,0,0,0,.03-.048.06.06,0,0,0-.011-.027c.145-.286.345-.3.577-.1ZM24.4,18.05c-.048.084-.157.135-.237.2a.715.715,0,0,0-.108.005c-.141-.078-.278-.157-.276-.351a.29.29,0,0,1,.187-.313.318.318,0,0,1,.367.061.311.311,0,0,1,.066.4Zm-.459,9.006a.363.363,0,1,1-.721-.013c-.008-.259.141-.351.354-.381.236.032.374.146.366.394Zm-1.488-4.786a.277.277,0,1,1,.287.308.264.264,0,0,1-.288-.31Zm.23,3.621c0,.2-.087.273-.248.265a.216.216,0,0,1-.23-.219.237.237,0,0,1,.235-.262.221.221,0,0,1,.239.213Zm.162,2.844c.148-.1.3-.176.462-.03s.076.308-.013.459v.008a.473.473,0,0,1-.451-.094c0-.116,0-.232,0-.345Zm.508-4.683a.268.268,0,0,1-.33-.019.327.327,0,0,1-.032-.462.413.413,0,0,1,.456.024c.039.165.091.337-.1.454Zm.108-4.664h0a.809.809,0,0,1-.219.084c-.182.016-.316-.061-.324-.259a.257.257,0,0,1,.276-.308c.205,0,.3.087.289.287,0,.065-.016.132-.022.2Zm-.532.964a.051.051,0,0,1,.061.024c.078.016.092.073.092.141h0a.228.228,0,0,1,0,.332h0l-.078.111a.391.391,0,0,1-.473.095.424.424,0,0,1-.165-.529c.013-.054.027-.105.043-.159a.052.052,0,0,1,.038-.03c.165-.047.327-.12.481.015Zm-.491-2.96a.3.3,0,0,1-.319-.332.322.322,0,1,1,.643.011.288.288,0,0,1-.324.321Zm-.378,10.774v.016l-.335.019v.008l-.17-.242v-.124c.121-.162.259-.289.465-.159.221.131.123.315.039.483ZM20.842,26.46a.248.248,0,0,1,.23.273c0,.176-.121.222-.267.219a.207.207,0,0,1-.227-.254.247.247,0,0,1,.263-.238Zm.019-3.718a.39.39,0,0,1,.508.043c.2.192.121.408.008.613a.678.678,0,0,1-.615,0c-.087-.238-.19-.479.1-.657Zm.037,8.644c.216.03.311.151.289.332a.273.273,0,0,1-.3.262.276.276,0,0,1-.289-.308C20.606,31.474,20.749,31.412,20.9,31.385Zm.182-1.542a.267.267,0,0,1,.294-.3c.17.008.251.127.259.321a.251.251,0,0,1-.273.254.264.264,0,0,1-.279-.273Zm.54-4.947a.3.3,0,0,1-.313-.346.279.279,0,0,1,.3-.3c.182.008.273.138.273.327a.276.276,0,0,1-.261.319ZM21.6,18.712a.279.279,0,0,1-.289-.311.262.262,0,0,1,.259-.289.256.256,0,0,1,.3.242c.009.23-.091.357-.272.36Zm-.143,1.034a.407.407,0,0,1-.1.473.375.375,0,0,1-.405.084.381.381,0,0,1-.267-.4,1.4,1.4,0,0,1,.1-.335l.151-.048a.405.405,0,0,1,.525.227Zm-.642,1.35a.385.385,0,0,1,.485.3.37.37,0,0,1-.256.478.4.4,0,0,1-.508-.2.683.683,0,0,1-.041-.351l.046-.07A1.043,1.043,0,0,1,20.811,21.1ZM20.6,37.415a.528.528,0,0,1,.718-.105,2.606,2.606,0,0,1,.219.167.061.061,0,0,0,.022.061c.051.335.038.659-.343.788a.524.524,0,0,1-.662-.219.518.518,0,0,1,.045-.691Zm.813-.969a.354.354,0,0,1-.359-.391.37.37,0,1,1,.74.03c0,.248-.144.351-.381.362Zm.246-2.144c0-.1.043-.194.159-.189s.211.051.208.192c0,.108-.043.182-.162.182-.144.021-.2-.069-.206-.185Zm.313-1.788a.237.237,0,0,1,.265-.273.251.251,0,0,1,.289.254.257.257,0,0,1-.284.3.264.264,0,0,1-.271-.284Zm.194,5.5a.267.267,0,0,1,.3-.061c.194.054.211.219.205.386a.44.44,0,0,1-.473.154c-.092-.158-.168-.314-.03-.479Zm.251-7.307c.011-.182.111-.254.291-.242a.231.231,0,0,1,.237.259A.24.24,0,0,1,22.7,31c-.205-.014-.292-.114-.281-.29Zm.485,5.7c.162-.008.237.087.251.242-.019.151-.1.246-.256.237a.227.227,0,0,1-.23-.265.218.218,0,0,1,.235-.212Zm.089-1.5c-.016-.213.13-.3.319-.332.189.03.324.124.319.332a.319.319,0,0,1-.637,0Zm.419-1.412V33.5c-.022-.022-.043-.041-.061-.061l-.043-.067a.508.508,0,0,1,.219-.58c.237-.135.394.022.57.135.008.151.013.3.022.451a.532.532,0,0,1-.706.128Zm.708,3.286a.4.4,0,0,1,.575-.061c.3.187.251.5-.113.8h-.289a.48.48,0,0,1-.173-.741Zm.724-.978a.439.439,0,0,1-.459-.443.424.424,0,0,1,.443-.467.413.413,0,0,1,.467.437.434.434,0,0,1-.45.473Zm.324-1.731a.456.456,0,0,1,.062-.91,1.782,1.782,0,0,1,.311.054h0c.067.154.205.291.151.48a.445.445,0,0,1-.527.376Zm.57,3v-.008a.533.533,0,0,1,.615.094.039.039,0,0,0,.016.051c0,.278-.065.529-.411.462s-.272-.351-.221-.6Zm.537-3.122a.542.542,0,0,1,.5-.64.531.531,0,0,1,.57.575,2.544,2.544,0,0,1-.046.316l.013.016-.019-.005c-.512.328-.961.215-1.021-.263Zm.991,3.229a.31.31,0,0,1,.467.146,1.229,1.229,0,0,1,.057.27h0a1.075,1.075,0,0,1-.178.157.311.311,0,0,1-.473-.13.3.3,0,0,1,.127-.443Zm.3-6.378a.444.444,0,1,1,.067-.886c.284.016.419.192.411.491a.406.406,0,0,1-.476.394Zm.413-1.777a.4.4,0,0,1-.411-.432A.4.4,0,0,1,28,28.177a.43.43,0,1,1-.016.859Zm.467,2.716a.476.476,0,0,1,.591-.078c.3.173.289.448.216.735-.391.321-.554.316-.937-.024A.617.617,0,0,1,28.45,31.749Zm.618-1.045a.38.38,0,0,1-.291-.337c-.046-.276.127-.408.332-.524l.192.013a.45.45,0,0,1,.27.643.394.394,0,0,1-.5.2Zm.508-1.855a.382.382,0,0,1-.4-.44.407.407,0,1,1,.813-.016c0,.3-.146.457-.413.454Zm.8,2.576a.434.434,0,0,1,.459.451.428.428,0,0,1-.491.456.4.4,0,0,1-.437-.459.446.446,0,0,1,.469-.448Zm.363-1.04a.413.413,0,0,1-.424-.429.394.394,0,0,1,.44-.448.379.379,0,0,1,.424.413c.012.3-.153.434-.437.465ZM30.723,28.2a.606.606,0,0,1-.005-.6c.235-.132.473-.2.675.041a.373.373,0,0,1-.022.537c-.2.217-.423.139-.644.023Zm.632-2.293a.248.248,0,0,1-.3-.242c-.008-.176.1-.262.278-.262a.22.22,0,0,1,.248.242c.006.153-.055.25-.223.261Zm-.019-2.476c-.394.005-.556-.135-.554-.4a.388.388,0,0,1,.383-.424.406.406,0,0,1,.456.437.343.343,0,0,1-.282.388ZM31.617,22a1.36,1.36,0,0,1-.235.005l-.019.013c-.111-.111-.222-.224-.332-.335l.008-.019-.016-.016c-.011-.281.046-.535.348-.637a.521.521,0,0,1,.68.363A.5.5,0,0,1,31.62,22Zm.213,7.117c.182-.159.381-.311.621-.127a.436.436,0,0,1,.067.629.085.085,0,0,0-.054.051.54.54,0,0,1-.64-.159h0C31.83,29.376,31.83,29.246,31.83,29.114Zm.448-1.771c-.246-.143-.165-.354-.121-.559l.016-.019c.208-.051.424-.108.562.127a.3.3,0,0,1-.061.394.32.32,0,0,1-.395.056Zm.346-2.652h0c-.054.008-.105.022-.157.027-.173.011-.335-.005-.321-.237a.242.242,0,0,1,.267-.237c.205.005.267.143.232.332-.008.038-.016.078-.022.116ZM32.7,19.9c.011-.267.173-.37.411-.381a.363.363,0,0,1,.383.424.377.377,0,0,1-.424.383.363.363,0,0,1-.37-.426Zm1.043,1.425h0c0,.105,0,.211.005.316a.03.03,0,0,0-.019.041c-.378.3-.71.259-.788-.092a.38.38,0,0,1,.178-.448C33.389,20.991,33.573,21.148,33.743,21.329Zm-.84,1.458a.037.037,0,0,0,.043-.022l.316.008h0a.382.382,0,0,1-.035.624l-.27-.016a.375.375,0,0,1-.054-.594Zm.227,5.474a.462.462,0,0,1,.656-.157.383.383,0,0,1,.105.532c-.154.324-.485.281-.78-.089.008-.1.013-.191.019-.287Zm.437-1.923a.417.417,0,1,1,.377-.2A.417.417,0,0,1,33.567,26.339Zm.4-9.116c-.124.335-.413.273-.68.232h-.005c-.057-.078-.111-.159-.167-.237,0-.076-.008-.154-.011-.23a.468.468,0,0,1,.643-.3.395.395,0,0,1,.221.537Zm-.041-2.471a.418.418,0,0,1-.424.232.616.616,0,0,1-.376-.2c-.011-.121-.019-.242-.03-.363a.569.569,0,0,1,.351-.3.4.4,0,0,1,.424.148.414.414,0,0,1,.054.479Zm-.6-2.841a.354.354,0,0,1,.383.354c-.043.242-.162.386-.4.378a.34.34,0,0,1-.348-.4.328.328,0,0,1,.365-.336Zm-.376,6.524a.565.565,0,0,1-.462.57.452.452,0,0,1-.511-.227.481.481,0,0,1,.094-.678.468.468,0,0,1,.68.013,1.632,1.632,0,0,1,.189.254.061.061,0,0,0,.009.067Zm-.1-2.657a.448.448,0,0,1-.121.513.465.465,0,0,1-.489.061.375.375,0,0,1-.262-.4c0-.078.005-.159.008-.237h0a.209.209,0,0,0,.127-.157l.108-.048c.271-.058.519-.024.629.265Zm-.27-2.174c.054.321-.154.443-.437.478h-.035c-.095-.078-.189-.159-.284-.237a.082.082,0,0,0-.013-.07A.676.676,0,0,1,32,13.307h0c.264-.035.531-.039.588.3Zm-.683-2.4c.256-.005.34.159.386.343-.035.259-.159.391-.4.389a.328.328,0,0,1-.354-.348.347.347,0,0,1,.365-.385Zm-.424,3.559c.143.624.005.8-.618.772l-.013-.019h-.024c-.187-.216-.3-.454-.1-.715.224-.289.491-.173.748-.041,0,0,.008,0,.008,0Zm-.948-2.131a.469.469,0,1,1,.1.87c-.076-.016-.151-.043-.227-.067a1.872,1.872,0,0,1-.089-.262.436.436,0,0,1,.216-.542Zm-.339,3.909a.211.211,0,0,1-.248.2.19.19,0,0,1-.2-.232c.011-.157.111-.205.242-.2a.21.21,0,0,1,.208.235Zm-.13-1.966a.455.455,0,0,1-.47.456.443.443,0,0,1-.473-.485.428.428,0,0,1,.465-.446.456.456,0,0,1,.478.477Zm-1.113-2.269a.458.458,0,0,1,.556,0,.432.432,0,0,1,.162.559c-.035.084-.084.165-.127.246l-.124.041c-.259.022-.524.024-.626-.276a.464.464,0,0,1,.16-.57Zm-.259,3.864c-.035.2-.148.278-.316.262a.229.229,0,0,1-.23-.27c.011-.189.135-.242.3-.235s.211.133.243.244Zm-.2-1.85c-.008.335-.141.535-.446.545a.44.44,0,0,1-.5-.448.424.424,0,0,1,.446-.494.434.434,0,0,1,.5.4Zm-1.307-1.753a.418.418,0,0,1,.469-.383c.132,0,.205.113.319.146h0c0,.13.1.242.057.386a.416.416,0,0,1-.476.33.4.4,0,0,1-.369-.478Zm-.1,3.756a.252.252,0,0,1-.291.242.257.257,0,0,1-.23-.311.227.227,0,0,1,.265-.224.255.255,0,0,1,.256.293Zm-.4-1.906c0,.1-.005.2-.005.3-.165.092-.337.189-.478-.027a.207.207,0,0,1,.013-.289.363.363,0,0,1,.471.016Zm-.505-1.3-.276.008c-.061-.051-.116-.105-.176-.157h0c-.011-.135-.022-.276.148-.316a.347.347,0,0,1,.335.043c.179.158-.048.28-.031.423Zm-.891-2.37a1.285,1.285,0,0,1,.227-.165c.065,0,.13-.005.194-.005.121.078.281.105.354.246a.492.492,0,0,1-.116.68.459.459,0,0,1-.68-.067.48.48,0,0,1,.022-.689Zm-.053,4.342a.3.3,0,0,1-.308.294.268.268,0,0,1-.3-.294.262.262,0,0,1,.278-.278.292.292,0,0,1,.33.278Zm-.324-1.636-.005.032c-.343.316-.48.311-.8-.032l.016-.316a.471.471,0,0,1,.57-.159A.433.433,0,0,1,24.91,13.454Zm-.761-2.447a.54.54,0,0,1,.526.58.569.569,0,0,1-.554.565.584.584,0,0,1-.57-.594.55.55,0,0,1,.6-.551Zm-.8,4.715.146-.054c.208,0,.383.057.356.311a.259.259,0,0,1-.348.232C23.228,16.135,23.3,15.92,23.349,15.722Zm-1.107-3.829a.52.52,0,0,1,.648-.146c.081.041.167.078.251.121h0c.182.556.046.9-.383.956a.516.516,0,0,1-.589-.3.539.539,0,0,1,.073-.631Zm-.061,3.114a.291.291,0,0,1-.146.335.363.363,0,0,1-.48-.124v-.3l.165-.165h0c.214-.016.4.019.463.257Zm-.8-2.233a.377.377,0,0,1,.373.4.366.366,0,0,1-.394.354c-.213-.013-.386-.121-.381-.37a.35.35,0,0,1,.4-.385Zm-.6,3.195a.288.288,0,0,1,.34.3c.008.189-.116.284-.3.311-.173-.016-.3-.084-.313-.284a.287.287,0,0,1,.274-.33ZM19.8,14.056l.1-.07a.392.392,0,0,1,.545-.022.356.356,0,0,1,.084.47.34.34,0,0,1-.4.182.379.379,0,0,1-.311-.476.273.273,0,0,0-.011-.078ZM19.77,17.5c.148-.2.321-.124.489-.019v.3c-.141.113-.289.219-.448.046a.247.247,0,0,1-.039-.33Zm-.32,6.616a.252.252,0,0,1-.28-.262.257.257,0,0,1,.246-.262.251.251,0,0,1,.291.208C19.7,24.008,19.62,24.116,19.45,24.116Zm.24-5.089a1.169,1.169,0,0,1,.005.276c-.024.03-.048.061-.076.092a1.2,1.2,0,0,1-.278-.008.231.231,0,0,1-.182-.27.279.279,0,0,1,.256-.265A.23.23,0,0,1,19.69,19.027Zm-.5-3.9c.242,0,.363.127.367.429-.005.187-.151.3-.378.3a.325.325,0,0,1-.348-.348.337.337,0,0,1,.359-.383Zm-.03,5.236c.205-.008.316.108.33.363a.285.285,0,0,1-.308.289.3.3,0,0,1-.354-.287.317.317,0,0,1,.332-.368Zm-.524,9.454h-.194c-.111-.116-.246-.232-.121-.413.138-.2.3-.1.459-.022a.347.347,0,0,1-.144.433Zm-.2-13.283a.32.32,0,0,1,.313.351.287.287,0,0,1-.332.308.308.308,0,0,1-.313-.34c0-.218.158-.288.332-.321Zm-.64,1.536c.2.013.3.084.3.273a.252.252,0,0,1-.259.287.257.257,0,0,1-.3-.287.275.275,0,0,1,.256-.274Zm-.391,1.5h.113c.176.111.311.237.216.473-.105.262-.316.159-.5.146h0c-.1-.253-.114-.477.17-.621Zm-.343,2.071v-.311h0a.161.161,0,0,0,.105-.146l.019.013c.446.03.508.124.359.537a.579.579,0,0,1-.33.057h-.03c-.043-.051-.084-.1-.124-.154Zm-.467,5.007c.167-.035.343-.094.459.095a.276.276,0,0,1-.024.332c-.135.165-.3.132-.459.035a.412.412,0,0,1,.024-.464Zm-.148-1.072c-.135.23-.321.1-.491.061l-.022.019.022-.022c-.013-.176-.105-.373.135-.48a.254.254,0,0,1,.324.051.3.3,0,0,1,.03.369Zm-.208-8.266c.194,0,.232.135.248.278-.024.176-.111.278-.284.27a.252.252,0,0,1-.27-.273c0-.2.118-.28.3-.278Zm-.769,1.68c.132-.276.363-.276.606-.138.019.032.041.065.061.095a.409.409,0,0,1-.124.47.363.363,0,0,1-.545-.424Zm.165,1.445c.2.008.23.165.211.316-.032.242-.256.278-.551.089h0c-.042-.265.06-.416.339-.408ZM15.451,22a.329.329,0,0,1,.485.291c-.011.065-.022.13-.032.2-.213.146-.443.242-.594-.054A.29.29,0,0,1,15.45,22Zm.251,5.687a.461.461,0,0,1-.47.467.453.453,0,0,1-.519-.472.439.439,0,0,1,.48-.5c.327-.013.48.168.508.505Zm-.565-1.5c0,.092-.008.187-.013.278a.03.03,0,0,0-.022.038c-.211.2-.44.363-.745.216a.545.545,0,0,1-.327-.689.532.532,0,0,1,.606-.405.51.51,0,0,1,.5.56Zm-.953-7.9c.1,0,.192,0,.289-.005.084.143.159.294.005.432a.226.226,0,0,1-.3,0C14.025,18.58,14.1,18.428,14.184,18.285ZM13.9,19.63c.194.008.281.132.267.324s-.13.248-.316.248a.254.254,0,0,1-.254-.281.262.262,0,0,1,.3-.291Zm-.111,1.564c.189-.005.276.127.3.3-.022.2-.116.313-.311.3s-.276-.141-.27-.324a.27.27,0,0,1,.284-.276Zm-.262,5.795a.511.511,0,0,1-.556.529.545.545,0,0,1-.54-.567.562.562,0,0,1,.575-.537.531.531,0,0,1,.52.575Zm-.505-1.517a.485.485,0,0,1-.521.47.473.473,0,0,1-.489-.516.479.479,0,0,1,.513-.485.517.517,0,0,1,.5.53Zm-1.1-6.546c.154-.087.316-.167.473-.019.141.132.095.289.024.44-.454.1-.516.044-.5-.422Zm-.148,1.613A.957.957,0,0,1,12,20.454a.242.242,0,0,1,.3.192.248.248,0,0,1-.173.313.272.272,0,0,1-.348-.182.7.7,0,0,1,0-.237Zm.287,1.426c.216.005.291.141.327.324-.032.187-.105.327-.324.332s-.359-.094-.354-.324a.3.3,0,0,1,.35-.333Zm-.321,1.612a.519.519,0,0,1,.632-.205c.138.035.219.143.33.213h0c.043.3.084.6-.242.769a.522.522,0,0,1-.662-.108.539.539,0,0,1-.059-.669Zm.182,4.161a.545.545,0,0,1-.545.559.585.585,0,0,1-.562-.559.561.561,0,0,1,.565-.545.518.518,0,0,1,.543.545Zm-.575-1.514a.444.444,0,0,1-.5.489.475.475,0,0,1-.508-.5.489.489,0,0,1,.54-.491.459.459,0,0,1,.47.507Zm-.267-1.561a.536.536,0,0,1-.551.565.545.545,0,0,1-.551-.559.528.528,0,0,1,.524-.54.537.537,0,0,1,.577.535ZM9.766,23.086a.545.545,0,0,1,.565-.545.537.537,0,0,1,.537.572.545.545,0,0,1-.58.532.57.57,0,0,1-.522-.564Zm.419-4.939c.051-.051.1-.1.151-.157.208-.046.405-.046.508.182a.343.343,0,0,1-.057.408.358.358,0,0,1-.408.073c-.236-.1-.208-.311-.194-.51Zm.008,1.261a.5.5,0,0,1,.535.182.528.528,0,0,1,.011.6.49.49,0,0,1-.516.224,2.312,2.312,0,0,1-.232-.057h0c-.3-.454-.206-.881.2-.957ZM10.236,21a.485.485,0,0,1,.545.5c-.024.3-.182.5-.589.5a.505.505,0,0,1,.046-1ZM9.8,26.843a.505.505,0,0,1-.208.6.511.511,0,0,1-.666-.008c-.073-.057-.135-.127-.2-.189,0-.148-.005-.3-.008-.448.141-.182.273-.359.545-.346a.534.534,0,0,1,.54.386Zm-.848-.926a.419.419,0,0,1-.443-.459.436.436,0,0,1,.451-.473c.327.024.491.178.485.489a.42.42,0,0,1-.492.438Zm-.872-2.328a.193.193,0,0,0,.121-.159l.027-.011a2.59,2.59,0,0,1,.267-.078.562.562,0,0,1,.694.48.578.578,0,0,1-.567.635.545.545,0,0,1-.565-.583c0-.092.016-.187.024-.278Zm.643-5.914a.512.512,0,0,1,.629-.046l.024.019a.48.48,0,0,1-.138.618H8.883L8.707,18.1a.073.073,0,0,0-.019-.065v-.242c.012-.041.019-.082.03-.122Zm.076,1.264c.222-.005.33.143.356.376,0,.216-.141.319-.351.327a.3.3,0,0,1-.348-.3.333.333,0,0,1,.344-.4Zm-.48,1.639c.076-.256.278-.3.516-.219A1.23,1.23,0,0,1,9,20.453a.086.086,0,0,0,.027.07v.159a.345.345,0,0,1-.443.378.34.34,0,0,1-.276-.488Zm.162,1.08a.642.642,0,0,1,.643.629.631.631,0,1,1-1.261-.019.641.641,0,0,1,.619-.615ZM50.851,51.066q-9.049,0-18.1,0-12.7,0-25.406.008c-.294,0-.424-.046-.413-.386.03-.721.013-1.445.008-2.166a.317.317,0,0,1,.219-.363q3.677-1.528,7.341-3.083l3.211-1.356a.666.666,0,0,1,.505-.008q3.617,1.244,7.234,2.476c.986.335,1.974.662,2.96,1a.307.307,0,0,0,.424-.143c.485-.732,1-1.447,1.5-2.171,1.723-2.5,3.449-4.993,5.152-7.5a.569.569,0,0,1,.727-.256c2,.54,4,1.058,5.992,1.607a.48.48,0,0,0,.626-.222q3.722-5.476,7.461-10.945l.9-1.312c.03.008.061.019.087.027v.955q0,11.739.011,23.48C51.293,51.084,51.109,51.068,50.851,51.066Z" transform="translate(-0.99 -0.63)" fill="#08a79b"/>
      </g>
      <text id="___" data-name="   " transform="translate(175.015 24.447)" font-size="8" font-family="SegoeUI-Bold, Segoe UI" font-weight="700"><tspan x="0" y="0">   </tspan></text>
      <text id="____" data-name="    " transform="translate(174.653 9.303)" font-size="8" font-family="SegoeUI-Bold, Segoe UI" font-weight="700"><tspan x="0" y="0">    </tspan></text>
      <text id="___" data-name="   " transform="translate(175.017 54.736)" font-size="8" font-family="SegoeUI-Bold, Segoe UI" font-weight="700"><tspan x="0" y="0">   </tspan></text>
      <text id="___" data-name="   " transform="translate(175.017 39.592)" font-size="8" font-family="SegoeUI-Bold, Segoe UI" font-weight="700"><tspan x="0" y="0">   </tspan></text>
    </g>
    <text id="___" data-name="   " transform="translate(122.518 136.65)" font-size="8" font-family="SegoeUI-Bold, Segoe UI" font-weight="700"><tspan x="0" y="0">   </tspan></text>
  </g>
</svg>
