<svg xmlns="http://www.w3.org/2000/svg" width="304" height="87.41" viewBox="0 0 304 87.41">
  <g id="Group_2" data-name="Group 2" transform="translate(-19.5 -59.5)">
    <g id="Group_1" data-name="Group 1" transform="translate(19.5 59.5)">
      <g id="nsia-logo">
        <path id="Path_1" data-name="Path 1" d="M516.743,168.695a12.06,12.06,0,0,1-5.853-.211c-3.128-.8-4.943-2.959-6.11-5.816-.833-2.039-1.7-4.063-2.554-6.092-.044-.105-.1-.2-.159-.316a58.764,58.764,0,0,1-6.737,3.474c-1.7.736-3.424,1.428-5.186,2.005a1.045,1.045,0,0,0-.686.636c-.889,2.014-1.806,4.016-2.7,6.031a.473.473,0,0,1-.516.343c-.71-.024-1.419-.009-2.2-.009.132-.329.249-.636.381-.929.911-2.039,1.835-4.066,2.735-6.11a.944.944,0,0,1,.668-.583,64.487,64.487,0,0,0,12.5-5.072,41,41,0,0,0,6.4-4.189c.305-.249.384-.17.516.147q2.252,5.418,4.533,10.826a12.2,12.2,0,0,0,.947,1.809,5.636,5.636,0,0,0,4.02,2.835Z" transform="translate(-342.432 -105.993)" fill="#2a2561"/>
        <path id="Path_2" data-name="Path 2" d="M360.154,198.4c-.677-.114-1.36-.214-2.031-.349a12.137,12.137,0,0,1-5.676-2.471,4.046,4.046,0,0,1-1.522-2.741c-.024-.246-.038-.39.326-.32.994.2,2,.334,3,.484a.754.754,0,0,1,.5.293,7.779,7.779,0,0,0,5.122,2.747,11.049,11.049,0,0,0,4.617-.161,4.986,4.986,0,0,0,2.729-1.68c.147-.187.314-.17.5-.173q2.608-.053,5.227-.109c.05.135-.076.22-.147.32a9.515,9.515,0,0,1-5.227,3.471,16.052,16.052,0,0,1-3.242.607c-.07.006-.147-.009-.176.082Z" transform="translate(-248.329 -134.825)" fill="#2a2561"/>
        <path id="Path_3" data-name="Path 3" d="M256.626,121.956v-.475q0-10.72-.009-21.44c0-.387.094-.5.478-.475a12.865,12.865,0,0,0,1.613,0c.349-.02.416.111.4.419-.02.537-.006,1.076-.006,1.613q0,10.917.006,21.829c0,.395-.044.519-.493.4a74.387,74.387,0,0,1-12.354-4.383,1.667,1.667,0,0,1-.563-.466q-4.669-5.488-9.339-10.97c-.062-.073-.132-.143-.267-.29v.933q0,11.372.012,22.744c0,.41-.12.519-.51.493a13.334,13.334,0,0,0-1.569,0c-.32.018-.422-.062-.416-.4.024-1.176.009-2.351.009-3.53v-22.48a4.882,4.882,0,0,0-.9-3.117,3.708,3.708,0,0,0-2.888-1.278c-.855-.066-.859-.041-.859-.883,0-.132.009-.263,0-.395-.012-.164.044-.235.22-.231,2.228.062,4.472-.193,6.675.366a7.266,7.266,0,0,1,3.835,2.41c2.624,3.084,5.271,6.148,7.91,9.217q4.327,5.035,8.66,10.067A.789.789,0,0,0,256.626,121.956Z" transform="translate(-162.132 -69.137)" fill="#2b2662"/>
        <path id="Path_4" data-name="Path 4" d="M373.069,105.169c0,.885-.009,1.77.006,2.659,0,.263-.036.378-.349.378-1.058-.006-1.044.006-1.273-1.094a13.69,13.69,0,0,0-1.894-4.917,7.457,7.457,0,0,0-5.611-3.313,8.657,8.657,0,0,0-4.324.431,4.6,4.6,0,0,0-1.53,7.443,22.65,22.65,0,0,0,3.808,2.735c2.762,1.68,5.629,3.192,8.286,5.04a9.536,9.536,0,0,1,3.486,3.753,8.556,8.556,0,0,1,.3,5.913.289.289,0,0,1-.308.237c-1.782.1-3.568.143-5.353.153-.205,0-.223-.066-.2-.255a5.13,5.13,0,0,0-1.856-4.684,33.61,33.61,0,0,0-4.907-3.369c-2.126-1.3-4.34-2.471-6.361-3.94a8.736,8.736,0,0,1-3.547-4.6c-.835-2.932-.592-5.711,1.578-8.048A9.536,9.536,0,0,1,358.51,96.9a18.983,18.983,0,0,1,10.194.867,8.3,8.3,0,0,1,3.447,2.281,3.858,3.858,0,0,1,.921,2.65q0,1.227,0,2.474Z" transform="translate(-248.385 -67.017)" fill="#2a2461"/>
        <path id="Path_5" data-name="Path 5" d="M454.356,100.118c0,.1.012.2.012.305V124.9c0,.205.062.395-.281.454-1.571.267-3.14.543-4.723.742a2.526,2.526,0,0,1-.258.006,4.708,4.708,0,0,0-.61-.006c-.337.035-.41-.111-.41-.425q.009-12.647,0-25.295c0-.352.105-.44.446-.437q2.565.022,5.136,0a1.1,1.1,0,0,1,.688.178Z" transform="translate(-317.01 -69.4)" fill="#292360"/>
        <path id="Path_6" data-name="Path 6" d="M506.843,108.07c-.483,1.082-.921,2.067-1.363,3.052q-2.383,5.312-4.764,10.624c-.059.132-.082.284-.246.337-.933.3-1.862.6-2.92.95.349-.8.642-1.486.944-2.166l7.22-16.145q1.064-2.379,2.116-4.767a.518.518,0,0,1,.577-.39,11.884,11.884,0,0,0,1.48,0,.479.479,0,0,1,.522.346q2.854,6.84,5.722,13.671a.352.352,0,0,1-.132.5,47.705,47.705,0,0,1-4.849,3.213c-.305.179-.37.062-.478-.2q-1.768-4.226-3.556-8.446C507.043,108.491,506.96,108.327,506.843,108.07Z" transform="translate(-351.975 -69.49)" fill="#0ba79b"/>
        <path id="Path_7" data-name="Path 7" d="M294.02,174.918c.1-.066.176-.006.252.03a69.186,69.186,0,0,0,10.44,3.636.422.422,0,0,1,.376.5q-.018,2.894,0,5.787c0,.334-.1.419-.419.4-.522-.026-1.044-.018-1.565,0a.549.549,0,0,1-.484-.214q-4.252-5-8.511-10A1.644,1.644,0,0,1,294.02,174.918Z" transform="translate(-208.113 -122.376)" fill="#2b2662"/>
        <path id="Path_8" data-name="Path 8" d="M300.731,55.839c.712.472,1.472.205,2.24.305a2.161,2.161,0,0,1-.132-2.228A2.116,2.116,0,0,1,305.3,53a1.6,1.6,0,0,1,1.167,1.768c0,.592-.012,1.19.006,1.786.006.249-.076.32-.322.32-1.539-.009-3.078,0-4.617-.006a2.439,2.439,0,0,1-1.319-.384.536.536,0,0,0-.563-.05,6.763,6.763,0,0,1-2.771.446c-1.337-.009-2.671-.009-4.008-.009-.155,0-.326-.032-.334.22-.026,1.064-.847,1.73-2.16,1.812-.346.02-.7-.026-1.04-.03-.446-.006-.526-.2-.478-.581.026-.229.109-.246.308-.205a4.279,4.279,0,0,0,1.557.047,1.052,1.052,0,0,0,.927-.953c.026-.223-.03-.314-.27-.311a7.226,7.226,0,0,1-1.129-.053,1.64,1.64,0,0,1-1.466-1.8A1.885,1.885,0,0,1,290.275,53a4.684,4.684,0,0,1,1.944.109.383.383,0,0,1,.337.452c-.02.712.006,1.424-.014,2.134-.009.322.047.46.416.443.68-.035,1.366-.026,2.047,0,.32.012.416-.062.41-.4-.02-1.392.018-2.788-.024-4.183-.014-.493.255-.384.533-.414.329-.035.416.079.41.408-.018,1.407,0,2.817-.014,4.227,0,.29.079.36.36.36a7.917,7.917,0,0,0,2.246-.193c.117-.035.29-.026.326-.161.03-.117-.12-.182-.205-.255a6.736,6.736,0,0,0-1.229-.9.526.526,0,0,1-.105-.844,3.52,3.52,0,0,1,2.624-.821,1.315,1.315,0,0,1,1.09,2,2.9,2.9,0,0,1-.7.873Zm4.852-.554c-.018-.258-.018-.522-.056-.777a.869.869,0,0,0-.7-.832,1.029,1.029,0,0,0-1.149.5,1.237,1.237,0,0,0,1.079,1.932c.983,0,.818.219.824-.825Zm-13.925-.329v-.915c0-.111.006-.214-.137-.284a1.447,1.447,0,0,0-1.565.276,1.513,1.513,0,0,0,.014,1.706c.263.305,1.279.592,1.578.364.273-.208.056-.592.109-.891a1.468,1.468,0,0,0,0-.255Zm6.84-.821a13.564,13.564,0,0,1,1.419,1.084c.076.062.132.147.263.088a1.37,1.37,0,0,0,.521-1.1.746.746,0,0,0-.821-.619,2.485,2.485,0,0,0-1.386.544Z" transform="translate(-204.411 -35.938)" fill="#2d2961"/>
        <path id="Path_9" data-name="Path 9" d="M410.748,6.9a2.19,2.19,0,0,1,.082-2.512,2.3,2.3,0,0,1,2.433-.587,1.521,1.521,0,0,1,1.014,1.478c.026.694,0,1.392.014,2.09,0,.2-.066.29-.273.287-1.624-.012-3.251-.018-4.875-.03a1.945,1.945,0,0,1-1.067-.329.7.7,0,0,0-.723-.047,6.5,6.5,0,0,1-2.518.408c-1.017-.006-2.031,0-3.049-.018-.273,0-.4.056-.446.366a1.879,1.879,0,0,1-1.662,1.651,7.5,7.5,0,0,1-1.738.012c-.44-.03-.284-.349-.29-.581-.006-.314.2-.231.39-.2a3.53,3.53,0,0,0,1.595,0,1.177,1.177,0,0,0,.639-.422.755.755,0,0,0,.143-.7c-.082-.22-.329-.094-.5-.111a5.538,5.538,0,0,1-1.118-.132,1.611,1.611,0,0,1-1.231-1.683,1.907,1.907,0,0,1,1.129-1.973,3.89,3.89,0,0,1,2.433.032c.255.066.243.255.243.443,0,.712.024,1.424-.012,2.134-.02.384.111.475.46.44a5.693,5.693,0,0,1,1-.012c.281.02.337-.085.334-.343-.012-1.436,0-2.873-.012-4.312,0-.287.05-.44.378-.4.263.032.583-.111.572.39-.026,1.407.006,2.817-.02,4.225-.006.384.117.451.46.443a8.162,8.162,0,0,0,2.031-.17c.153-.044.376-.032.419-.173.062-.187-.176-.267-.3-.376a6.429,6.429,0,0,0-1.126-.812.539.539,0,0,1-.082-.855,3.885,3.885,0,0,1,2.281-.85,1.5,1.5,0,0,1,1.48.716,1.609,1.609,0,0,1-.3,1.78c-.114.161-.419.281-.34.449.1.214.414.255.658.263C409.745,6.913,410.22,6.9,410.748,6.9Zm2.647-.777a4.263,4.263,0,0,0-.053-.906.848.848,0,0,0-.583-.736,1.044,1.044,0,0,0-1.118.267,1.416,1.416,0,0,0-.231,1.466,1.083,1.083,0,0,0,1.1.689C413.395,6.954,413.395,6.944,413.395,6.122Zm-12.937-.346c0-.305-.012-.607,0-.912a.307.307,0,0,0-.29-.358c-.487-.073-.991-.173-1.372.27a1.39,1.39,0,0,0-.191,1.507,1.381,1.381,0,0,0,1.653.616c.434-.132.1-.575.193-.865a.946.946,0,0,0,.006-.258Zm5.828-.855A13.547,13.547,0,0,1,407.678,6c.073.066.141.132.267.091a1.294,1.294,0,0,0,.526-1.073.652.652,0,0,0-.651-.63,2.131,2.131,0,0,0-1.534.535Z" transform="translate(-281.297 -1.492)" fill="#14a89c"/>
        <path id="Path_10" data-name="Path 10" d="M282.485,39.845q-26.425,0-52.849-.009c-.193,0-.563.176-.566-.17-.006-.384.378-.2.577-.2q52.893-.013,105.783-.009h.305c.1,0,.2.044.2.173.006.149-.079.205-.214.205H282.486Z" transform="translate(-162.204 -28.05)" fill="#199f93"/>
        <path id="Path_11" data-name="Path 11" d="M301.295,6.879a2.206,2.206,0,0,1,.123-2.577,2.384,2.384,0,0,1,2.5-.489,1.461,1.461,0,0,1,.879,1.25,19.4,19.4,0,0,1,.056,2.26c0,.223-.076.311-.3.311q-3.984-.009-7.971,0c-.232,0-.3-.1-.3-.316.012-.592.018-1.19.006-1.786-.02-1.138-.551-1.155-1.428-1.1-.255.018-.191.214-.191.358-.006.812-.014,1.627,0,2.439.006.3-.079.416-.39.4-.581-.026-1.161,0-1.741-.038-1.926-.141-2.747-1.263-2.333-3.172.053-.243.038-.519.4-.587.671-.123.654-.143.522.51a3.383,3.383,0,0,0-.02,1.381,1.528,1.528,0,0,0,1.559,1.14c.263.02.526-.009.783.014s.314-.094.311-.329c-.014-.723.018-1.454-.018-2.178-.024-.451.1-.645.583-.662a8.851,8.851,0,0,1,1.474-.03,1.455,1.455,0,0,1,1.394,1.54c.014.449.009.9,0,1.349-.006.22.066.314.3.3a6.974,6.974,0,0,1,.959,0c.287.024.329-.1.329-.349-.009-1.436.014-2.876-.014-4.312-.009-.4.176-.4.466-.4s.513-.014.5.416c-.03,1.422,0,2.844-.014,4.268,0,.278.059.395.358.37C300.468,6.859,300.858,6.879,301.295,6.879Zm2.621-.867c0-.223.014-.428,0-.627-.053-.583-.337-.909-.818-.959a1.027,1.027,0,0,0-1.17.742,1.3,1.3,0,0,0,.466,1.539,1.826,1.826,0,0,0,1.434.126C304.062,6.759,303.872,6.278,303.916,6.011Z" transform="translate(-205.344 -1.47)" fill="#14a89c"/>
        <path id="Path_12" data-name="Path 12" d="M493.161,56.1a2.068,2.068,0,0,1,3.272-2.518,1.9,1.9,0,0,1,.273,1.079c.006.592-.018,1.19.009,1.786.014.34-.111.41-.422.408-1.653-.014-3.31-.009-4.963-.009-1.058,0-2.12-.006-3.178.006-.27,0-.387-.053-.376-.36.026-.592.009-1.19,0-1.786a1.029,1.029,0,0,0-1.44-1.038c-.211.066-.147.226-.147.354-.006.827,0,1.657-.006,2.483,0,.147.066.346-.2.343a14.976,14.976,0,0,1-2.433-.082c-1.674-.3-2.055-1.392-1.856-2.984.085-.686.241-.762,1.132-.777a6.483,6.483,0,0,0-.255,1.046A1.621,1.621,0,0,0,484.23,56.1c1.052.079,1.052.079,1.052-.959,0-.592.009-1.19,0-1.786,0-.211.05-.308.276-.34a6.306,6.306,0,0,1,1.949-.035,1.337,1.337,0,0,1,1.14,1.25,15.465,15.465,0,0,1,.038,1.565c0,.249.085.326.329.314a12.967,12.967,0,0,1,1.307,0c.3.02.322-.105.32-.352-.009-1.422.018-2.846-.014-4.269-.012-.481.281-.34.526-.372.3-.038.4.062.395.372-.018,1.407,0,2.817-.018,4.225,0,.287.05.419.376.395C492.317,56.073,492.731,56.1,493.161,56.1Zm2.621-.871a5,5,0,0,0-.006-.694.892.892,0,0,0-.592-.835,1.025,1.025,0,0,0-1.058.2,1.351,1.351,0,0,0-.305,1.451,1.065,1.065,0,0,0,1.023.744c.971.1.971.1.938-.865Z" transform="translate(-340.738 -35.934)" fill="#2d2961"/>
        <path id="Path_13" data-name="Path 13" d="M529.53,5.023c.812-1.2,1.967-1.639,2.873-1.155s1.118,1.578.543,2.97c.05.1.149.066.229.066,1.132,0,2.266-.009,3.4.006.281,0,.37-.07.384-.358.088-1.624-.519-2.216-2.134-2.067-.187.018-.475.22-.492-.229-.015-.36.105-.5.46-.487.334.014.668-.012,1,0a1.989,1.989,0,0,1,2.087,2.039,11.1,11.1,0,0,1-.073,1.563c-.02.281-.2.273-.395.276-1.219,0-2.439.012-3.659.012-2.5,0-4.993-.006-7.491,0-.281,0-.46-.009-.454-.381.02-1.653.026-3.31,0-4.966-.006-.431.176-.443.51-.46.395-.02.443.138.437.475-.018,1.407,0,2.817-.012,4.225,0,.287.079.378.364.36a9.109,9.109,0,0,1,1.132,0c.287.018.381-.073.375-.364-.014-.783.026-1.569-.014-2.351-.024-.44.205-.4.5-.425.334-.02.478.066.434.425a6.754,6.754,0,0,0-.006.827Zm.942,1.882c.232,0,.46.012.7,0a1.158,1.158,0,0,0,1.134-.9,1.344,1.344,0,0,0-.449-1.483,1.315,1.315,0,0,0-1.513.446,3.29,3.29,0,0,0-.723,1.366c-.155.571-.155.571.42.571C530.184,6.9,530.327,6.9,530.472,6.9Z" transform="translate(-371.95 -1.493)" fill="#0ba79b"/>
        <path id="Path_14" data-name="Path 14" d="M454.381,194.451c0,.754-.009,1.507.006,2.263.006.258-.032.387-.343.376-.839-.032-1.683.009-2.521-.041a3.171,3.171,0,0,1-3.23-2.777c-.088-.41-.123-.83-.187-1.243-.03-.185.038-.241.226-.263,1.938-.255,3.873-.531,5.787-.938.211-.044.276.014.27.232C454.372,192.857,454.381,193.654,454.381,194.451Z" transform="translate(-317.021 -134.341)" fill="#2a2461"/>
        <path id="Path_15" data-name="Path 15" d="M429.82,54.265c.859-1.263,1.979-1.686,2.949-1.138.844.478,1.035,1.71.414,2.979h.694c1.058,0,2.12-.012,3.178.009.305.006.422-.05.434-.39.059-1.589-.51-2.14-2.1-2.014-.164.012-.469.255-.5-.211-.024-.387.114-.522.475-.522a6.684,6.684,0,0,1,1.43.073,1.826,1.826,0,0,1,1.563,1.68,8.614,8.614,0,0,1-.014,1.695c-.018.311-.12.437-.472.437-3.017-.014-6.037-.009-9.053-.009-.768,0-1.536-.006-2.307,0-.243,0-.36-.03-.358-.326.014-1.7.018-3.4,0-5.1-.006-.449.293-.29.5-.305s.454-.082.449.316c-.024,1.422,0,2.844-.018,4.266,0,.326.082.431.4.4a6.529,6.529,0,0,1,1.044,0c.3.024.4-.066.395-.376-.02-.783.014-1.569-.014-2.351-.014-.37.155-.395.443-.381.27.012.533-.038.478.387a6.552,6.552,0,0,0-.01.875Zm0,1.841h1.372a1.253,1.253,0,0,0,1.392-1.644.883.883,0,0,0-1.25-.742,1.513,1.513,0,0,0-.68.452,3.485,3.485,0,0,0-.832,1.934Z" transform="translate(-301.507 -35.94)" fill="#2d2961"/>
        <path id="Path_16" data-name="Path 16" d="M382.123,61.17c-1.947,0-3.89.035-5.834-.014a1.662,1.662,0,0,1-1.75-1.891,1.893,1.893,0,0,1,1.753-1.973,4.757,4.757,0,0,1,1.724.149.363.363,0,0,1,.31.425c-.014.742.012,1.48-.014,2.222-.012.322.1.376.395.372q1.632-.026,3.269,0c.3.006.4-.056.387-.372-.026-.8.012-1.6-.014-2.4-.018-.469.3-.311.526-.334.258-.03.437-.009.425.349-.026.812,0,1.627-.014,2.439,0,.243.062.316.311.314q1.632-.022,3.269,0c.246,0,.32-.066.316-.316-.014-.812.014-1.627-.014-2.439-.018-.46.281-.329.519-.349.258-.024.431-.009.422.349-.026,1.044-.018,2.09,0,3.137,0,.278-.059.37-.358.366-1.874-.014-3.749-.009-5.62-.009A.109.109,0,0,1,382.123,61.17Zm-4.711-1.885h0v-.871c0-.132.02-.258-.155-.314-.821-.255-1.618-.117-1.786.9a1.165,1.165,0,0,0,1.237,1.457c.7.03.7.03.7-.654v-.522Z" transform="translate(-265.026 -40.26)" fill="#2d2961"/>
        <path id="Path_17" data-name="Path 17" d="M488.652,8.221a4.469,4.469,0,0,0-.263,1.311,1.543,1.543,0,0,0,1.545,1.776c1.167.149,1.173.143,1.167-1.006,0-.537.018-1.076-.012-1.609-.02-.381.126-.5.5-.522a7.722,7.722,0,0,1,1.472-.059,1.5,1.5,0,0,1,1.495,1.68c.012.4.014.812,0,1.219-.012.252.076.326.322.311.46-.026,1.064.149,1.349-.079.3-.243.076-.867.091-1.325s.02-.929,0-1.392c-.02-.419.263-.322.5-.329s.46-.05.451.329c-.012,1.058.006,2.117.03,3.178.006.278-.066.381-.364.378-.973-.018-1.943-.018-2.917,0-.284,0-.384-.085-.372-.372.02-.566.014-1.132.006-1.7-.014-.909-.329-1.19-1.231-1.152-.287.012-.4.091-.395.4.024.8-.006,1.6.018,2.4.009.322-.088.443-.416.428a12.947,12.947,0,0,1-2.383-.132,2.123,2.123,0,0,1-1.765-2.527c.012-.1.02-.2.032-.3C487.591,8.324,487.788,8.166,488.652,8.221Z" transform="translate(-344.831 -5.902)" fill="#14a89c"/>
        <path id="Path_18" data-name="Path 18" d="M353.875,10.171c0,.493-.026.986.009,1.48.03.4-.126.487-.5.469-.651-.032-1.3,0-1.958-.009-.235,0-.329.082-.37.314a1.907,1.907,0,0,1-1.874,1.721,9.944,9.944,0,0,1-1.478-.012c-.484-.026-.334-.358-.329-.621.006-.37.258-.173.4-.155a3.565,3.565,0,0,0,1.677-.043,1.031,1.031,0,0,0,.706-.9c.035-.223-.047-.316-.281-.311a9.435,9.435,0,0,1-.956-.032,1.64,1.64,0,0,1-1.644-1.639,1.93,1.93,0,0,1,1.419-2.2,4.393,4.393,0,0,1,2.064.105.338.338,0,0,1,.293.395c-.014.768.006,1.539-.012,2.307-.006.273.076.354.343.34.419-.024.841-.03,1.261-.012.252.012.314-.07.311-.314-.014-.812.02-1.627-.014-2.433-.02-.428.22-.372.487-.384s.475,0,.46.376c-.026.522-.006,1.044-.006,1.565C353.878,10.171,353.878,10.171,353.875,10.171Zm-3.694.07h0V9.327c0-.111.014-.22-.114-.3A1.271,1.271,0,0,0,348.3,9.6a1.606,1.606,0,0,0,0,1.067,1.321,1.321,0,0,0,1.691.689c.446-.111.088-.571.187-.855a.86.86,0,0,0,0-.259Z" transform="translate(-245.752 -5.95)" fill="#14a89c"/>
        <path id="Path_19" data-name="Path 19" d="M376.392,6.877a2.208,2.208,0,0,1-.358-1.328,1.9,1.9,0,0,1,1.424-1.812,2.524,2.524,0,0,1,1.46.044,1.453,1.453,0,0,1,.994,1.444c.035.71.009,1.422.018,2.134,0,.217-.1.276-.293.276H374.15c-.214,0-.27-.105-.27-.3V2.108c0-.475.376-.22.583-.27.249-.059.358.047.354.329-.012,1.436.006,2.876-.014,4.312-.006.326.07.437.4.408C375.575,6.853,375.938,6.877,376.392,6.877Zm2.627-.888a3.229,3.229,0,0,0-.082-.944.818.818,0,0,0-.745-.621,1.04,1.04,0,0,0-1.217.994,1.163,1.163,0,0,0,.991,1.457C378.978,7.011,379.014,6.985,379.019,5.988Z" transform="translate(-264.561 -1.467)" fill="#14a89c"/>
        <path id="Path_20" data-name="Path 20" d="M268.038,56.09a2.055,2.055,0,0,1,2.387-3.111,1.359,1.359,0,0,1,1.079,1.173,17.436,17.436,0,0,1,.073,2.474c.009.3-.229.2-.376.2q-2.326.009-4.656,0c-.97,0-.97,0-.97-.956,0-1.466.009-2.929-.006-4.394,0-.3.066-.428.381-.378.252.038.572-.132.557.39-.038,1.407,0,2.814-.014,4.221,0,.305.076.4.384.381C267.249,56.069,267.628,56.09,268.038,56.09Zm2.6-.809c0-.3.02-.531,0-.762a.855.855,0,0,0-.844-.877.992.992,0,0,0-1.09.677,1.374,1.374,0,0,0,.305,1.486,1.733,1.733,0,0,0,1.539.237c.246-.055.055-.54.091-.762Z" transform="translate(-188.003 -35.924)" fill="#2d2961"/>
        <path id="Path_21" data-name="Path 21" d="M464.989,10.546c0,.493-.018.986,0,1.48a1.927,1.927,0,0,1-1.8,2.111,7.358,7.358,0,0,1-1.607,0c-.449-.024-.322-.337-.32-.6.006-.346.232-.193.4-.176a3.643,3.643,0,0,0,1.677-.035,1.016,1.016,0,0,0,.716-.894c.026-.223-.036-.322-.273-.322a9.469,9.469,0,0,1-1-.044,1.664,1.664,0,0,1-1.6-1.768,1.907,1.907,0,0,1,1.472-2.073,4.512,4.512,0,0,1,2.064.132.315.315,0,0,1,.276.364C464.981,9.326,464.989,9.937,464.989,10.546Zm-.915-.354h-.009a6.218,6.218,0,0,1,.006-.739c.047-.378-.164-.5-.472-.519-.469-.038-.938-.066-1.25.395a1.453,1.453,0,0,0-.12,1.41,1.351,1.351,0,0,0,1.651.621c.437-.123.1-.575.191-.862a1.08,1.08,0,0,0,0-.306Z" transform="translate(-326.263 -5.953)" fill="#14a89c"/>
        <path id="Path_22" data-name="Path 22" d="M359.084,59.709v1.478a1.819,1.819,0,0,1-1.578,1.967,4.932,4.932,0,0,1-1.9,0c-.4-.073-.149-.395-.173-.6-.026-.243.176-.161.308-.138a4.373,4.373,0,0,0,1.513.044,1.063,1.063,0,0,0,.944-.933c.035-.237-.014-.343-.284-.334a6.709,6.709,0,0,1-1.084-.05,1.669,1.669,0,0,1-1.5-1.724,1.907,1.907,0,0,1,1.5-2.09,4.356,4.356,0,0,1,1.979.123.329.329,0,0,1,.287.387C359.072,58.462,359.084,59.087,359.084,59.709Zm-.873-.419v-.915c0-.1.009-.191-.1-.263a1.31,1.31,0,0,0-1.794.61,1.229,1.229,0,0,0,1.2,1.741c.7.03.7.03.7-.651,0-.174,0-.352,0-.523Z" transform="translate(-251.442 -40.243)" fill="#2d2961"/>
        <path id="Path_23" data-name="Path 23" d="M232.362,57.42a3.314,3.314,0,0,0-.284,1.68,1.36,1.36,0,0,0,1.2,1.381,3.446,3.446,0,0,0,.777.082c1.363,0,2.727-.012,4.093.006.326,0,.449-.059.437-.416-.03-.783.009-1.569-.018-2.351-.014-.419.246-.329.484-.337s.452-.053.443.329c-.026,1.058-.014,2.116-.006,3.178,0,.231-.047.34-.308.337-1.929-.03-3.858.053-5.787-.047a2.124,2.124,0,0,1-2.164-1.551,3.8,3.8,0,0,1,.024-1.768c.066-.284.193-.428.493-.434A4.172,4.172,0,0,0,232.362,57.42Z" transform="translate(-163.668 -40.364)" fill="#2d2961"/>
        <path id="Path_24" data-name="Path 24" d="M542.763,59.943c-.047.364.185.894-.091,1.158-.252.246-.774.059-1.176.066a7.963,7.963,0,0,1-.953-.035,1.661,1.661,0,0,1-1.665-1.8,1.938,1.938,0,0,1,1.46-2.039,2.753,2.753,0,0,1,1.293.026,1.394,1.394,0,0,1,1.058,1.144,8.611,8.611,0,0,1,.074,1.477Zm-.894-.346c-.018-.273-.014-.551-.056-.821a.844.844,0,0,0-.789-.789,1.052,1.052,0,0,0-1.213,1,1.165,1.165,0,0,0,1.123,1.44c.906.076.906.076.936-.829Z" transform="translate(-381.185 -40.231)" fill="#2d2961"/>
        <path id="Path_25" data-name="Path 25" d="M234.279,10.711c0,.334-.014.668.006,1,.014.267-.047.4-.354.381-.61-.032-1.219-.006-1.826-.05a1.681,1.681,0,0,1-1.7-1.929,1.914,1.914,0,0,1,1.744-1.982,3.066,3.066,0,0,1,.865.047,1.437,1.437,0,0,1,1.257,1.44c.02.36,0,.727,0,1.088A.022.022,0,0,0,234.279,10.711Zm-.883-.243a4.186,4.186,0,0,0-.059-.847c-.1-.376-.273-.666-.694-.73a1.042,1.042,0,0,0-1.134.46,1.373,1.373,0,0,0-.024,1.447,1.127,1.127,0,0,0,1.064.543C233.4,11.356,233.4,11.359,233.4,10.468Z" transform="translate(-163.142 -5.926)" fill="#14a89c"/>
        <path id="Path_26" data-name="Path 26" d="M354.422,177.54c-.774-.132-1.542-.267-2.31-.39-.187-.03-.276-.082-.273-.3q.013-1.786,0-3.571c0-.217.082-.258.279-.27,1.094-.056,1.084-.062,1.284,1.006a16.85,16.85,0,0,0,.9,3.081A.855.855,0,0,1,354.422,177.54Z" transform="translate(-248.982 -121.038)" fill="#2d2961"/>
        <path id="Path_27" data-name="Path 27" d="M246.492,10.651c0-.668.012-1.337-.006-2-.009-.352.235-.278.414-.263s.526-.164.519.246a38.922,38.922,0,0,1-.076,4.26,1.524,1.524,0,0,1-1.636,1.416c-.187.006-.378-.014-.566,0-.354.026-.489-.1-.437-.475.038-.263.076-.329.37-.273.944.187,1.366-.158,1.4-1.126.02-.592,0-1.19,0-1.786Z" transform="translate(-173.247 -6.095)" fill="#14a89c"/>
        <path id="Path_28" data-name="Path 28" d="M581.281,11.956c-.478,0-.956-.014-1.434.006-.308.012-.308-.161-.308-.384s.024-.384.32-.376c.621.018,1.25-.012,1.868.012.308.012.37-.1.334-.378A2.305,2.305,0,0,0,580.414,8.8c-.484-.161-.2-.414-.176-.636.041-.346.276-.208.452-.143,1.75.621,2.325,1.77,2.322,3.683,0,.226-.108.258-.3.255-.478-.009-.956,0-1.434-.006Z" transform="translate(-409.928 -5.797)" fill="#14a89c"/>
        <path id="Path_29" data-name="Path 29" d="M266.139,11.953c-.46,0-.929-.009-1.392,0-.246.009-.343-.079-.316-.326.02-.211-.047-.446.311-.434.624.018,1.25-.012,1.87.009.329.012.384-.114.346-.408a2.287,2.287,0,0,0-1.639-2c-.526-.173-.208-.437-.173-.662.053-.358.284-.158.454-.1,1.847.607,2.327,1.964,2.3,3.688,0,.214-.126.229-.284.229h-1.48Z" transform="translate(-187.195 -5.788)" fill="#14a89c"/>
        <path id="Path_30" data-name="Path 30" d="M574.8,61.087c-.46,0-.929-.02-1.39.006-.329.018-.3-.173-.3-.384s-.02-.39.3-.376c.607.026,1.219-.02,1.824.018.375.024.395-.138.352-.425a2.229,2.229,0,0,0-1.618-1.955c-.452-.143-.255-.381-.2-.627.073-.358.3-.22.5-.149,1.8.654,2.3,1.864,2.252,3.676-.006.217-.132.22-.284.217C575.757,61.084,575.279,61.087,574.8,61.087Z" transform="translate(-405.386 -40.145)" fill="#2d2961"/>
        <path id="Path_31" data-name="Path 31" d="M556.02,59.785c0,.625.014,1.25,0,1.874a1.857,1.857,0,0,1-2.53,1.71c-.34-.12-.114-.358-.123-.545-.009-.208.108-.229.284-.185a2.132,2.132,0,0,0,.472.066.827.827,0,0,0,.941-.765,4.824,4.824,0,0,0,.07-.824q.009-1.526,0-3.049c0-.314-.059-.566.437-.572.516,0,.46.267.46.592C556.014,58.653,556.02,59.219,556.02,59.785Z" transform="translate(-391.381 -40.403)" fill="#2d2961"/>
        <path id="Path_32" data-name="Path 32" d="M570.251,4.691c0-.827.012-1.653-.006-2.48-.006-.29.094-.408.372-.358.231.041.577-.153.575.343-.014,1.7-.018,3.395,0,5.092.006.44-.267.343-.516.364-.293.024-.448-.035-.437-.395C570.268,6.4,570.251,5.547,570.251,4.691Z" transform="translate(-403.354 -1.487)" fill="#14a89c"/>
        <path id="Path_33" data-name="Path 33" d="M589.1,53.991c0,.841-.02,1.683.009,2.524.012.364-.17.378-.422.343-.22-.03-.533.149-.526-.329.02-1.683.024-3.366,0-5.048-.006-.419.232-.346.469-.343s.5-.1.484.329C589.081,52.305,589.1,53.148,589.1,53.991Z" transform="translate(-416.022 -35.95)" fill="#2d2961"/>
        <path id="Path_34" data-name="Path 34" d="M258.076,4.752c0-.841.02-1.683-.009-2.521-.014-.384.185-.381.454-.37.246.009.478-.053.472.352-.02,1.68-.024,3.363,0,5.042.009.5-.314.354-.575.39-.311.044-.358-.109-.354-.376.012-.841.006-1.68.006-2.521Z" transform="translate(-182.7 -1.498)" fill="#14a89c"/>
        <path id="Path_35" data-name="Path 35" d="M479.224,4.78c0,.827-.026,1.653.012,2.477.018.41-.185.395-.466.395s-.46,0-.46-.376c.02-1.665.026-3.33,0-5-.006-.437.211-.4.5-.416.311-.014.431.053.419.4C479.2,3.1,479.218,3.936,479.224,4.78Z" transform="translate(-338.375 -1.497)" fill="#08a79b"/>
        <path id="Path_36" data-name="Path 36" d="M280.645,4.789c0,.841-.012,1.683.006,2.524.006.314-.132.376-.39.337-.229-.032-.537.126-.531-.337q.026-2.546,0-5.092c-.006-.46.3-.311.531-.34.258-.032.395.026.387.34-.02.855-.006,1.71-.006,2.565Z" transform="translate(-198.012 -1.509)" fill="#0ba79b"/>
        <path id="Path_37" data-name="Path 37" d="M471.537,53.987c0-.841.02-1.683-.009-2.521-.014-.384.208-.334.437-.326s.487-.111.481.322c-.024,1.7-.02,3.392,0,5.09.006.46-.3.281-.5.3s-.428.076-.414-.3c.032-.855.012-1.71.009-2.565Z" transform="translate(-333.582 -35.954)" fill="#292360"/>
        <path id="Path_38" data-name="Path 38" d="M567.615,53.968c0,.841-.024,1.686.009,2.524.014.416-.229.346-.469.346s-.469.066-.46-.346q.039-2.525,0-5.051c-.006-.395.22-.326.44-.32s.5-.12.489.316C567.6,52.287,567.615,53.127,567.615,53.968Z" transform="translate(-400.846 -35.937)" fill="#292360"/>
        <path id="Path_39" data-name="Path 39" d="M454.1,99.865a1.1,1.1,0,0,0-.686-.179c-1.71.009-3.424.012-5.136,0-.337,0-.446.088-.446.437q.013,12.647,0,25.295c0,.314.07.46.41.425a5.3,5.3,0,0,1,.61.006,4.806,4.806,0,0,1-.891.155c-.167.044-.237-.035-.229-.208s0-.32,0-.478q0-12.634-.012-25.268c0-.4.111-.469.481-.466,1.859.018,3.717.009,5.576.006C453.979,99.587,454.19,99.555,454.1,99.865Z" transform="translate(-316.759 -69.148)" fill="#2d2961"/>
        <path id="Path_40" data-name="Path 40" d="M543.186,50.949h-.7c-.138,0-.311.041-.29-.2.014-.158-.07-.378.229-.34.1.012.123-.012.12-.138a1.017,1.017,0,0,1,1.366-1.006c.132.032.176.082.153.2-.026.132.02.311-.187.337a3.407,3.407,0,0,1-.346.006c-.176,0-.32.056-.337.258s.141.278.293.316a1.513,1.513,0,0,0,.431.026c.2-.009.317.024.317.276s-.126.276-.322.27C543.675,50.94,543.429,50.949,543.186,50.949Z" transform="translate(-383.533 -34.638)" fill="#2d2961"/>
        <path id="Path_41" data-name="Path 41" d="M413.1,50.911c-.231,0-.46.009-.694,0-.109-.006-.3.079-.287-.143.009-.149-.132-.416.217-.395.173.012.114-.117.117-.208a1.052,1.052,0,0,1,1.416-.935c.143.05.132.138.1.235s.05.284-.153.305a1.787,1.787,0,0,1-.217,0c-.226-.009-.493-.006-.484.29.006.267.273.293.493.32s.592-.155.533.346c-.018.155-.076.2-.214.193C413.649,50.908,413.376,50.911,413.1,50.911Z" transform="translate(-291.574 -34.6)" fill="#2d2961"/>
        <path id="Path_42" data-name="Path 42" d="M398.455,73.039a.5.5,0,0,1-.006,1,.46.46,0,0,1-.5-.516.475.475,0,0,1,.507-.487Z" transform="translate(-281.572 -51.317)" fill="#2d2961"/>
        <path id="Path_43" data-name="Path 43" d="M243.273,52.55a.5.5,0,0,1,0,1,.453.453,0,0,1-.489-.489.47.47,0,0,1,.489-.508Z" transform="translate(-171.9 -36.974)" fill="#2d2961"/>
        <path id="Path_44" data-name="Path 44" d="M515.479,24.5c-.02.287-.123.5-.454.519-.354.018-.5-.2-.507-.507a.449.449,0,0,1,.475-.5.456.456,0,0,1,.487.489Z" transform="translate(-363.968 -17.155)" fill="#14a89c"/>
        <path id="Path_45" data-name="Path 45" d="M364.9,3.293a.46.46,0,0,1-.513.46.441.441,0,0,1-.472-.5.468.468,0,0,1,.51-.484.476.476,0,0,1,.475.526Z" transform="translate(-257.517 -2.141)" fill="#14a89c"/>
        <path id="Path_46" data-name="Path 46" d="M296.783,24.525c-.044.281-.153.5-.487.487-.349-.006-.484-.208-.478-.526a.443.443,0,0,1,.5-.475.475.475,0,0,1,.47.514Z" transform="translate(-209.385 -17.154)" fill="#14a89c"/>
        <path id="Path_47" data-name="Path 47" d="M495.389,24.662c-.03.32-.187.5-.5.5a.485.485,0,1,1,.5-.5Z" transform="translate(-349.744 -17.283)" fill="#14a89c"/>
        <path id="Path_48" data-name="Path 48" d="M519.822,24.548c-.038.263-.147.472-.481.475-.354.006-.493-.191-.493-.513a.428.428,0,0,1,.443-.481.486.486,0,0,1,.531.519Z" transform="translate(-367.029 -17.169)" fill="#14a89c"/>
        <path id="Path_49" data-name="Path 49" d="M402.75,73.069a.476.476,0,0,1,.507.484.451.451,0,0,1-.472.51.441.441,0,0,1-.5-.478.46.46,0,0,1,.464-.516Z" transform="translate(-284.639 -51.338)" fill="#2d2961"/>
        <path id="Path_50" data-name="Path 50" d="M495.381,29.075a.46.46,0,0,1-.5.46.449.449,0,0,1-.5-.478c0-.337.187-.493.519-.484C495.216,28.579,495.36,28.752,495.381,29.075Z" transform="translate(-349.736 -20.379)" fill="#14a89c"/>
        <path id="Path_51" data-name="Path 51" d="M369.2,3.272a.433.433,0,0,1-.5.466.454.454,0,0,1-.475-.46.5.5,0,0,1,.507-.526.475.475,0,0,1,.466.52Z" transform="translate(-260.565 -2.126)" fill="#14a89c"/>
        <path id="Path_52" data-name="Path 52" d="M300.589,25.073a.472.472,0,0,1-.5-.493.437.437,0,0,1,.472-.493.448.448,0,0,1,.507.5.456.456,0,0,1-.478.481Z" transform="translate(-212.402 -17.21)" fill="#14a89c"/>
        <path id="Path_53" data-name="Path 53" d="M247.1,53.013a.437.437,0,0,1,.475-.46.488.488,0,1,1,.014.976.453.453,0,0,1-.489-.516Z" transform="translate(-174.946 -36.975)" fill="#2d2961"/>
        <path id="Path_54" data-name="Path 54" d="M134.8,20.027c.006-.082-.009-.208.109-.191a.287.287,0,0,1,.232.278c.009.091-.014.187-.132.185C134.847,20.293,134.8,20.17,134.8,20.027Z" transform="translate(-95.572 -14.205)" fill="#08a79b"/>
        <path id="Path_55" data-name="Path 55" d="M136.911,19.837c-.041.088-.1.176-.208.179-.091,0-.1-.082-.094-.155a.142.142,0,0,1,.167-.143C136.852,19.718,136.917,19.739,136.911,19.837Z" transform="translate(-96.85 -14.122)" fill="#08a79b"/>
        <path id="Path_56" data-name="Path 56" d="M62.282,1.215c0-.192-.009-.387-.014-.579Q31.828.639,1.391.63c-.329,0-.4.078-.4.411Q1,32.188,1,63.331c.187.006.378.015.566.015q30.1,0,60.2.009c.422,0,.526-.1.526-.538Q62.278,32.022,62.282,1.215ZM54.874,10.5c.12-.207.308-.156.487-.075.014.057.03.114.044.168a1.745,1.745,0,0,1-.006.177.115.115,0,0,0-.024.081.329.329,0,0,1-.466.015A.3.3,0,0,1,54.874,10.5Zm-.941-.243a.055.055,0,0,0,.056-.027c.088,0,.176-.006.263-.006a.1.1,0,0,0,.076.018c.135.177.211.36.018.538a.272.272,0,0,1-.387.012c-.208-.166-.153-.349-.026-.538Zm.314,1.92A.287.287,0,0,1,53.9,12.1c-.126-.126-.059-.269-.047-.411a.049.049,0,0,0,.05-.03c.032-.024.066-.048.1-.072v.006c.193,0,.381.015.416.269A.285.285,0,0,1,54.247,12.179Zm-.806.4a.491.491,0,0,1-.076.5h-.322c-.182-.462-.105-.558.395-.5C53.431,12.588,53.441,12.583,53.441,12.583ZM52.919,11a.245.245,0,0,1,.3-.108.264.264,0,0,1,.169.13.275.275,0,0,1,.021.215.751.751,0,0,1-.132.222l-.006.006a.849.849,0,0,1-.284-.078.262.262,0,0,1-.121-.177.267.267,0,0,1,.049-.21Zm-.5.579c.211.06.2.252.214.426l-.062.156a.887.887,0,0,1-.493.024h0c-.076-.171-.17-.345-.014-.525a.334.334,0,0,1,.354-.08Zm-.61-1.356a.108.108,0,0,0,.073.024c.091.168.17.345.032.522s-.329.1-.5.057c-.164-.476-.1-.569.4-.6Zm-.27,3.132a.356.356,0,0,1-.109.257.34.34,0,0,1-.257.095.331.331,0,0,1-.364-.384.352.352,0,0,1,.1-.261.336.336,0,0,1,.255-.1c.226,0,.354.154.375.4Zm-.713-1.24c.176-.012.217.1.235.252a.208.208,0,0,1-.246.222.2.2,0,0,1-.157-.062.214.214,0,0,1-.06-.16.223.223,0,0,1,.055-.182A.212.212,0,0,1,50.828,12.117Zm-.346-.606v.006c.024.2.105.414-.109.555A.473.473,0,0,1,49.82,12v-.465a.528.528,0,0,1,.663-.024ZM48.6,13.289c.066-.06.135-.12.2-.183a.783.783,0,0,1,.654.165.9.9,0,0,1-.02.693h-.006c-.22.1-.446.216-.677.042-.252-.189-.2-.453-.147-.714Zm-1.9.186c.059-.054.117-.111.176-.165a1.267,1.267,0,0,1,.3-.015.358.358,0,0,1,.232.153.374.374,0,0,1,.058.276.341.341,0,0,1-.082.247.326.326,0,0,1-.229.113.378.378,0,0,1-.449-.258,1.274,1.274,0,0,1-.006-.351Zm-1.126,1.437c.226,0,.352.171.395.4a.391.391,0,0,1-.117.278.373.373,0,0,1-.277.106.328.328,0,0,1-.282-.084.345.345,0,0,1-.108-.279.37.37,0,0,1,.093-.309A.352.352,0,0,1,45.569,14.912Zm-.437,4.065c-.293.186-.516.045-.716-.183l-.026-.171c.153-.513.284-.576.855-.4l-.006.021c.109.269.2.538-.108.74Zm.117,1.682a.6.6,0,0,1-.648.078c-.07-.273-.179-.573.214-.678.316-.086.469.139.434.6Zm-1.011-7.066c.032-.042.062-.087.094-.129l.006.009c.138-.027.258-.135.41-.084.252.084.4.264.316.528-.132.39-.419.375-.73.231,0,0,0,.009-.006.009-.032-.042-.062-.087-.094-.129v-.435Zm-.094,10.3a1.15,1.15,0,0,1-.105.24h0c-.073.006-.143.018-.217.018a.314.314,0,0,1-.277-.106.33.33,0,0,1-.072-.293.32.32,0,0,1,.115-.235.3.3,0,0,1,.249-.065.327.327,0,0,1,.262.141A.343.343,0,0,1,44.144,23.893Zm-5.919.273a.383.383,0,0,1-.507-.087.4.4,0,0,1-.035-.489.379.379,0,0,1,.487-.162,1.058,1.058,0,0,1,.27.2c0,.111,0,.222.006.333a1,1,0,0,1-.22.2Zm.334,4.416a.277.277,0,0,1,.228.063.291.291,0,0,1,.1.219c-.014.153-.076.276-.255.285s-.316-.057-.326-.264a.273.273,0,0,1,.06-.209.261.261,0,0,1,.192-.095Zm-.718-6.129a.351.351,0,0,1-.3-.1.369.369,0,0,1-.1-.307.362.362,0,0,1,.084-.278.345.345,0,0,1,.259-.121c.354,0,.451.174.449.432a.357.357,0,0,1-.107.281.34.34,0,0,1-.28.094ZM37.114,32.74a.416.416,0,0,1,.46-.306c.161.012.252.126.366.21a.08.08,0,0,0,.018.072c-.012.174.014.357-.143.486a.421.421,0,0,1-.522.03.392.392,0,0,1-.18-.492Zm-.167-5.525c.006-.207.153-.3.354-.3a.273.273,0,0,1,.216.087.287.287,0,0,1,.074.225.313.313,0,0,1-.094.244.3.3,0,0,1-.244.083.3.3,0,0,1-.228-.1.319.319,0,0,1-.08-.241Zm.642,3.534a.389.389,0,0,1-.318-.114.409.409,0,0,1-.116-.324.4.4,0,0,1,.1-.33.384.384,0,0,1,.311-.129.436.436,0,0,1,.417.2.459.459,0,0,1,.014.471.438.438,0,0,1-.4.226Zm.437-4.842h-.384a.556.556,0,0,1-.135-.408.312.312,0,0,1,.123-.228.3.3,0,0,1,.249-.052c.3.036.314.255.29.5l.009.018c-.049.06-.1.116-.155.174ZM38.6,31.3a.607.607,0,0,1,.554.579.566.566,0,0,1-.551.525.552.552,0,0,1,0-1.1Zm.443-4.044a.263.263,0,0,1,.079-.2.25.25,0,0,1,.2-.07c.191,0,.293.087.3.269-.009.213-.105.309-.3.306a.26.26,0,0,1-.209-.085.273.273,0,0,1-.068-.219Zm.5-5.585c.05-.012.1-.021.147-.033h.263a.1.1,0,0,0,.079.018c.176.2.293.42.085.66a.374.374,0,0,1-.259.15.37.37,0,0,1-.284-.09c-.27-.211-.15-.462-.03-.7Zm0,2.139a.382.382,0,0,1,.113-.3.364.364,0,0,1,.3-.1.373.373,0,0,1,.3.112.391.391,0,0,1,.109.305c.006.269-.161.39-.414.408a.383.383,0,0,1-.294-.118.4.4,0,0,1-.11-.3Zm.671-5.124a.507.507,0,0,1,.131-.393.483.483,0,0,1,.376-.156.521.521,0,0,1,.526.5c-.041.366-.208.567-.539.555a.462.462,0,0,1-.356-.141.485.485,0,0,1-.134-.365Zm1.214-3.357c.009.03.014.057.024.087v.268a.414.414,0,0,1-.434.252c-.2-.15-.358-.336-.187-.585s.4-.173.6-.023ZM40.9,12.637a.306.306,0,0,1,.068-.241.291.291,0,0,1,.222-.1c.208.009.334.1.34.318a.294.294,0,0,1-.067.246.28.28,0,0,1-.232.1.287.287,0,0,1-.238-.079.3.3,0,0,1-.091-.238Zm.46,7.239a.39.39,0,0,1,.315.128.41.41,0,0,1,.1.331.411.411,0,1,1-.821.012.41.41,0,0,1,.094-.335.39.39,0,0,1,.314-.136Zm.015,7.239c.1.009.147.084.147.186a.156.156,0,0,1-.05.118.149.149,0,0,1-.12.038.151.151,0,0,1-.119-.042.159.159,0,0,1-.048-.12.162.162,0,0,1,.048-.146.153.153,0,0,1,.146-.037Zm.07-5.021.012-.009c.066-.144.109-.318.326-.285a.241.241,0,0,1,.205.138c.082.192-.026.306-.161.4l-.026-.006-.02.018a1.229,1.229,0,0,1-.149-.012v0c-.061-.086-.12-.173-.182-.257Zm.2,1.509-.014-.027.03.012a.94.94,0,0,1,.252-.033.231.231,0,0,1,.169.088.242.242,0,0,1,.048.187.229.229,0,0,1-.217.231.225.225,0,0,1-.188-.032.236.236,0,0,1-.1-.166,1.133,1.133,0,0,1,.026-.264Zm.185-6.042-.217-.018h0a1.027,1.027,0,0,1-.164-.2.54.54,0,0,1,.07-.69.471.471,0,0,1,.592-.1.521.521,0,0,1,.255.606.474.474,0,0,1-.531.4Zm.522-3.177a.372.372,0,0,1-.387-.291.442.442,0,0,1,.157-.473.419.419,0,0,1,.488-.013,1.351,1.351,0,0,1,.208.222.7.7,0,0,1-.164.516,1.771,1.771,0,0,1-.3.036Zm.454,3.9c.214,0,.3.15.322.351-.038.189-.138.342-.34.324a.317.317,0,0,1-.228-.118.332.332,0,0,1-.071-.251.317.317,0,0,1,.1-.223.3.3,0,0,1,.224-.083Zm.569,1.506a.471.471,0,0,1,.356.134.494.494,0,0,1,.148.358.449.449,0,0,1-.107.373.427.427,0,0,1-.354.143.432.432,0,0,1-.366-.109.454.454,0,0,1-.144-.362.493.493,0,0,1,.118-.377.469.469,0,0,1,.353-.161Zm.006,1.884c.091,0,.185,0,.276.006.27.336.258.615-.035.687-.153.039-.329.045-.414-.135a.412.412,0,0,1-.029-.319.4.4,0,0,1,.207-.24Zm.276-4.41a.3.3,0,0,1-.236-.093.317.317,0,0,1-.086-.243c-.009-.246.132-.348.349-.351a.311.311,0,0,1,.231.084.326.326,0,0,1,.1.228c-.021.238-.118.384-.355.375Zm-.07-5.309a.4.4,0,0,1,.316.128.425.425,0,0,1,.113.328.409.409,0,0,1-.121.3.389.389,0,0,1-.3.112.372.372,0,0,1-.306-.092.39.39,0,0,1-.128-.3c0-.336.166-.48.43-.478ZM43.142,15a.473.473,0,0,1,.671.6.432.432,0,0,1-.487.279,1.645,1.645,0,0,1-.329-.1h0c-.106-.287-.194-.584.148-.77ZM42.9,11.175a1.8,1.8,0,0,1-.085.3l.018.018-.018-.018a1.6,1.6,0,0,1-.284.1.452.452,0,0,1-.389-.084.475.475,0,0,1-.18-.363.468.468,0,0,1,.121-.369.446.446,0,0,1,.354-.143.456.456,0,0,1,.362.169.479.479,0,0,1,.1.395Zm-.76-3.252a.409.409,0,0,1,.339.128.43.43,0,0,1,.112.352.409.409,0,0,1-.122.325.389.389,0,0,1-.324.107.4.4,0,0,1-.325-.106.419.419,0,0,1-.13-.322.43.43,0,0,1,.11-.354.409.409,0,0,1,.34-.13ZM41.6,9.942a.452.452,0,0,1-.145.339.43.43,0,0,1-.345.111.411.411,0,0,1-.315-.138.432.432,0,0,1-.107-.333.469.469,0,0,1,.229-.419.448.448,0,0,1,.469.009.47.47,0,0,1,.213.428Zm-.642-3a.342.342,0,0,1,.28.1.36.36,0,0,1,.1.283.376.376,0,0,1-.092.309.357.357,0,0,1-.294.117c-.258,0-.4-.135-.4-.276,0-.408.149-.532.4-.528Zm-.61,7.335c-.066.258-.263.285-.475.269-.026-.009-.053-.021-.079-.03a.25.25,0,0,0-.02-.039.41.41,0,0,1,.041-.561.277.277,0,0,1,.395-.03.36.36,0,0,1,.139.394Zm-.4-2.514a.265.265,0,0,1-.223-.068.278.278,0,0,1-.088-.22.3.3,0,0,1,.088-.244.29.29,0,0,1,.241-.083c.187,0,.278.126.284.315a.281.281,0,0,1-.08.225.267.267,0,0,1-.222.077ZM39.55,8.954a.317.317,0,0,1,.154-.208.3.3,0,0,1,.254-.02,1.17,1.17,0,0,1,.235.1H40.2a.99.99,0,0,1-.006.264.33.33,0,0,1-.163.226.316.316,0,0,1-.274.017.291.291,0,0,1-.185-.145A.3.3,0,0,1,39.55,8.954Zm.334,7.7a.421.421,0,0,1,.353.116.443.443,0,0,1,.131.355.491.491,0,0,1-.982.027.454.454,0,0,1,.129-.375A.432.432,0,0,1,39.884,16.652Zm-.091,3.69a.42.42,0,0,1-.109.327.4.4,0,0,1-.313.129.455.455,0,0,1-.446-.265.475.475,0,0,1,.081-.522.449.449,0,0,1,.5-.111.467.467,0,0,1,.283.442Zm-.642-4.425v.006c-.047.036-.091.072-.141.1a.312.312,0,0,1-.288.069.32.32,0,0,1-.219-.2.3.3,0,0,1-.015-.283.291.291,0,0,1,.223-.167.317.317,0,0,1,.294.035.332.332,0,0,1,.143.265,1.136,1.136,0,0,1,0,.174Zm-.03-2.9a.374.374,0,0,1-.1.289.357.357,0,0,1-.28.11.365.365,0,0,1-.28-.108.383.383,0,0,1-.11-.285.352.352,0,0,1,.076-.262.336.336,0,0,1,.238-.125C38.985,12.632,39.131,12.773,39.122,13.013Zm-.607-2.967c.273-.006.395.147.408.417a.395.395,0,1,1-.789-.03.359.359,0,0,1,.1-.286A.342.342,0,0,1,38.515,10.046Zm.1,8.147a.53.53,0,0,1,.39.163.556.556,0,0,1,.155.4.572.572,0,0,1-.285.508.546.546,0,0,1-.572-.018.574.574,0,0,1-.253-.525C38.058,18.352,38.275,18.2,38.614,18.194Zm-.583-.774a1.536,1.536,0,0,1-.1.288l.018.027-.02-.024a2.35,2.35,0,0,1-.246.078.484.484,0,0,1-.454-.8.464.464,0,0,1,.592-.1.448.448,0,0,1,.211.528Zm-.074-2.856a.428.428,0,1,1-.855-.017.4.4,0,0,1,.115-.3.383.383,0,0,1,.3-.113.377.377,0,0,1,.324.106.4.4,0,0,1,.113.328Zm-.642-2.979a.35.35,0,0,1,.293.1.368.368,0,0,1,.1.3c-.012.282-.141.42-.41.4a.364.364,0,0,1-.291-.124.382.382,0,0,1-.091-.308.371.371,0,0,1,.114-.279.353.353,0,0,1,.28-.1Zm-.066,8.384c.263-.024.39.144.434.4a.4.4,0,0,1-.118.295.38.38,0,0,1-.292.109.349.349,0,0,1-.282-.091.366.366,0,0,1-.116-.278.38.38,0,0,1,.084-.309.361.361,0,0,1,.287-.129Zm-8.2,19.865c-.066.06-.135.12-.205.18-.044.009-.088.015-.132.024l-.343-.018h0a.607.607,0,0,1-.255-.732c.1-.285.337-.336.592-.336.047.012.094.021.141.033.062.057.123.114.185.168h0a1.254,1.254,0,0,1,0,.69A.041.041,0,0,1,29.052,39.834Zm-7.142-.441h0c-.173.1-.346.159-.5-.03A.274.274,0,0,1,21.406,39c.153-.183.329-.114.507-.027a.122.122,0,0,0,.02.072c-.009.117-.018.231-.024.348Zm-3.3.1-.02-.018a1.08,1.08,0,0,1-.2.075c-.217.039-.376-.036-.4-.276a.3.3,0,0,1,.053-.253.282.282,0,0,1,.228-.11.291.291,0,0,1,.261.078.306.306,0,0,1,.088.263,1.819,1.819,0,0,1-.03.216c0,.006.016.024.016.024Zm-7.942-6.519c.041-.078.07-.159.105-.24h0c.1-.033.187-.072.287-.1a.55.55,0,0,1,.683.327.581.581,0,0,1-.176.753.556.556,0,0,1-.723,0,.563.563,0,0,1-.177-.74Zm-.155-.771a.59.59,0,0,1-.426-.187.618.618,0,0,1,.426-1.039.6.6,0,0,1,.429.182.623.623,0,0,1,.175.44.576.576,0,0,1-.165.445.548.548,0,0,1-.438.16Zm1.536,1.875a.44.44,0,0,1,.355.147.462.462,0,0,1,.111.375.47.47,0,0,1-.146.384.447.447,0,0,1-.387.114c-.305-.018-.46-.225-.449-.591a.461.461,0,0,1,.164-.332.44.44,0,0,1,.351-.1Zm.739-2.241a.5.5,0,0,1,.422.014.519.519,0,0,1,.267.334c.026.084.041.171.062.255l-.167.36a1.328,1.328,0,0,1-.32.117c-.3.039-.557-.048-.627-.387a.53.53,0,0,1,.026-.432.509.509,0,0,1,.337-.262Zm-.267,9.8c.053-.009.105-.015.161-.024.231,0,.437.06.507.318a.482.482,0,0,1-.107.512.456.456,0,0,1-.5.1C12.227,42.414,12.2,42.018,12.517,41.637Zm.6-1.608a.34.34,0,0,1,.111-.281.323.323,0,0,1,.287-.075c.229.015.316.174.352.363-.05.252-.17.4-.419.378A.326.326,0,0,1,13.2,40.3a.342.342,0,0,1-.078-.27Zm.627-5.61a.437.437,0,0,1-.332-.142.459.459,0,0,1-.119-.347.444.444,0,0,1,.13-.364.422.422,0,0,1,.362-.115.432.432,0,0,1,.334.137.454.454,0,0,1,.121.346c0,.326-.206.452-.5.485Zm1.547-8.777a1.29,1.29,0,0,1-.132.269h-.009a.927.927,0,0,1-.293-.036.314.314,0,0,1-.176-.186.324.324,0,0,1,.018-.258.288.288,0,0,1,.349-.189.3.3,0,0,1,.216.141.313.313,0,0,1,.031.26Zm.287,1.5a.323.323,0,0,1,.052.276.315.315,0,0,1-.183.21c-.267.165-.466-.009-.516-.444a.059.059,0,0,0,.026-.06c.211-.181.434-.262.621.017Zm-.9,3.8a.541.541,0,0,1,.4.19.567.567,0,0,1,.132.431.512.512,0,0,1-.516.507.564.564,0,0,1-.018-1.128Zm.4,4.731a1.145,1.145,0,0,1-.255.234l-.27-.018a1.483,1.483,0,0,1-.22-.21.468.468,0,0,1,.079-.591.442.442,0,0,1,.583-.014.453.453,0,0,1,.082.6Zm-.807,1.8a.325.325,0,0,1,.239.1.341.341,0,0,1,.09.249c-.03.273-.158.408-.395.387a.331.331,0,0,1-.244-.119.347.347,0,0,1-.078-.265A.341.341,0,0,1,14,37.557.324.324,0,0,1,14.281,37.477Zm-.223,5.136a.7.7,0,0,0,.024-.084h0a.76.76,0,0,0,.079-.03c.229-.114.449-.135.607.111a.407.407,0,0,1-.041.528.388.388,0,0,1-.51.084A.421.421,0,0,1,14,42.953a.431.431,0,0,1,.053-.342Zm.5-.951a2.447,2.447,0,0,1-.3-.051h0a1.681,1.681,0,0,1-.158-.306.509.509,0,0,1,.2-.557.495.495,0,0,1,.745.568.443.443,0,0,1-.489.344Zm.305-2.682c-.012-.2.109-.288.311-.294.155.021.29.084.29.291a.289.289,0,0,1-.081.243.275.275,0,0,1-.239.078c-.2,0-.272-.15-.283-.318Zm.258-5.931a.355.355,0,0,1,.1-.284.337.337,0,0,1,.28-.1.356.356,0,0,1,.3.114.374.374,0,0,1,.094.309c-.009.243-.158.366-.284.36-.372-.019-.489-.16-.489-.4Zm.692,3.42a.264.264,0,0,1,.193.076.277.277,0,0,1,.083.194c0,.269-.114.36-.3.357a.312.312,0,0,1,.026-.624Zm.249-1.983a.4.4,0,0,1,.122-.3.383.383,0,0,1,.3-.107.453.453,0,0,1,.006.906.419.419,0,0,1-.329-.149.44.44,0,0,1-.1-.354Zm-.449,7.739c.105-.273.316-.261.592.033,0,.06.006.117.009.177a.048.048,0,0,0-.009.048H16.2c-.132.147-.278.273-.481.129a.308.308,0,0,1-.1-.39Zm.489-2.028a.306.306,0,0,1,.089-.222.292.292,0,0,1,.219-.086c.211-.009.314.123.329.336a.325.325,0,0,1-.1.236.31.31,0,0,1-.236.087.291.291,0,0,1-.236-.1.306.306,0,0,1-.069-.253Zm.569-2.172a.306.306,0,0,1,.314-.3.281.281,0,0,1,.22.074.294.294,0,0,1,.094.217,1.555,1.555,0,0,1-.05.342l.014.03-.03-.015a1.174,1.174,0,0,1-.337.021.315.315,0,0,1-.227-.373Zm2.92-2.894c-.126.153-.281.1-.41-.03l-.044-.207c.066-.067.132-.135.2-.2.059.006.117.009.179.015a.278.278,0,0,1,.076.413Zm.012-6.178a.285.285,0,0,1,.065-.228.271.271,0,0,1,.213-.1.252.252,0,0,1,.2.054.265.265,0,0,1,.1.192c.006.243-.079.354-.276.366S19.621,29.142,19.608,28.954Zm-.487,7.968a.082.082,0,0,0,.02.072c-.012.171.02.363-.208.426a.308.308,0,0,1-.316-.081.287.287,0,0,1-.066-.324c.14-.3.354-.229.568-.094Zm-.171-5.883a.264.264,0,0,1,.305.114.39.39,0,0,1-.062.48c-.132,0-.255,0-.384-.006C18.687,31.386,18.591,31.15,18.951,31.039Zm.32-3.426a.275.275,0,0,1-.314-.288.294.294,0,0,1,.076-.247.279.279,0,0,1,.238-.086.263.263,0,0,1,.224.065.277.277,0,0,1,.09.22c0,.211-.1.336-.315.336Zm-.1-1.7a.042.042,0,0,0-.047.03c-.17.015-.354.084-.5-.045a.426.426,0,0,1-.117-.483.409.409,0,0,1,.416-.257.4.4,0,0,1,.366.378A.672.672,0,0,1,19.175,25.912Zm-1.052,9.935a.546.546,0,0,1-.137.4.521.521,0,0,1-.382.174.536.536,0,0,1-.388-.172.561.561,0,0,1-.149-.4.512.512,0,0,1,.16-.379.488.488,0,0,1,.382-.131.479.479,0,0,1,.366.14.5.5,0,0,1,.147.371Zm-.1-2.346a.236.236,0,0,1,.287-.135.249.249,0,0,1,.173.119.26.26,0,0,1,.025.211,1.259,1.259,0,0,1-.1.234h0a.876.876,0,0,1-.287-.048A.272.272,0,0,1,18,33.714a.278.278,0,0,1,.031-.21Zm-.76-1.026a.249.249,0,0,1-.2-.079A.261.261,0,0,1,17,32.191a.246.246,0,0,1,.062-.186.234.234,0,0,1,.176-.078c.176-.018.258.1.3.249-.011.183-.1.3-.266.3Zm-.39-5.8c-.164-.141-.117-.315-.024-.48.395-.144.539.027.493.423-.143.11-.3.2-.468.06Zm.4,16.382a.3.3,0,0,1,.28.137.317.317,0,0,1,.017.317.3.3,0,0,1-.264.167.271.271,0,0,1-.243-.069.286.286,0,0,1-.086-.243.291.291,0,0,1,.081-.221.277.277,0,0,1,.215-.084Zm.322-1.947a.239.239,0,0,1,.354,0c.2.186.073.342-.062.492v.009c-.053,0-.1.006-.155.006a.028.028,0,0,0-.014-.02.027.027,0,0,0-.024,0c-.183-.129-.258-.3-.1-.483Zm1.592.588a.616.616,0,1,1-.578.638.609.609,0,0,1,.578-.638Zm.5-1.188a.215.215,0,0,1-.173-.074.226.226,0,0,1-.053-.184.216.216,0,0,1,.058-.159.206.206,0,0,1,.153-.065.209.209,0,0,1,.175.052.22.22,0,0,1,.071.172c-.011.158-.076.269-.231.263Zm.208-2.355c.047-.243.229-.269.428-.255l0-.009.176.207c0,.072,0,.141.006.213a.361.361,0,0,1-.475.174.271.271,0,0,1-.14-.328Zm.883-7.4a.238.238,0,0,1-.219-.063.251.251,0,0,1-.071-.221c0-.165.066-.273.255-.276s.293.087.3.318a.251.251,0,0,1-.079.181.239.239,0,0,1-.184.064Zm-.243,5.571a.054.054,0,0,0-.024-.054c0-.09,0-.18,0-.269a.37.37,0,0,1,.329-.072c.164.35.053.474-.305.4Zm-.176-11.6c-.035-.381.229-.417.507-.411a.053.053,0,0,0,.062.021c.2.4.149.66-.138.7a.33.33,0,0,1-.431-.308Zm.232,17.78a.474.474,0,0,1,.545.531.49.49,0,0,1-.137.39.467.467,0,0,1-.382.138.483.483,0,0,1-.377-.152.508.508,0,0,1-.136-.391.478.478,0,0,1,.127-.373.455.455,0,0,1,.36-.143Zm.305-1.221a.289.289,0,0,1,.07-.324.279.279,0,0,1,.322-.057c.314.159.185.375.053.585v.027l-.018-.021c-.179,0-.358.009-.428-.211Zm.844-12.9h-.009c-.153-.03-.329-.018-.381-.225a.282.282,0,0,1,.073-.288c.164-.144.322-.057.475.042v.327c-.051.048-.1.1-.159.144Zm.316,3.266c.024.129.073.261-.044.369a.259.259,0,0,1-.276.067.237.237,0,0,1-.155-.24c0-.222.158-.249.32-.273a1.516,1.516,0,0,0,.155.077Zm-.6,2.367a.192.192,0,0,1-.035.148.184.184,0,0,1-.13.074.214.214,0,0,1-.209-.079.226.226,0,0,1-.03-.226.217.217,0,0,1,.181-.133.2.2,0,0,1,.159.056.21.21,0,0,1,.063.16Zm.472,2.994c.17-.051.364-.093.395.15s-.17.2-.322.2c-.126-.094-.085-.226-.074-.352Zm7.164-12.566a.6.6,0,0,1-.127.617.566.566,0,0,1-.6.144l-.035-.009a.683.683,0,0,1-.29-.487.691.691,0,0,1,.173-.542h.01C28.568,24.091,28.92,24.01,29.093,24.455Zm-.856-1.5a.315.315,0,0,1,.08-.247.3.3,0,0,1,.236-.1c.217,0,.36.093.354.273.012.288-.105.4-.308.408a.3.3,0,0,1-.264-.075.317.317,0,0,1-.1-.261Zm4.831-2.724h0a1.416,1.416,0,0,1,.17.3.556.556,0,0,1-.22.666.5.5,0,0,1-.642-.051.536.536,0,0,1-.153-.645.509.509,0,0,1,.592-.336,2.462,2.462,0,0,1,.252.063Zm.8,1.341a1.434,1.434,0,0,1,.246.067c.056.067.111.129.167.2v.525h0a1.761,1.761,0,0,1-.231.192.518.518,0,0,1-.735-.657.51.51,0,0,1,.554-.318Zm-.182-2.418a.214.214,0,0,1,.068-.159.2.2,0,0,1,.161-.054A.22.22,0,0,1,34.1,19a.232.232,0,0,1,.069.181c-.024.15-.1.246-.258.24a.222.222,0,0,1-.172-.082.233.233,0,0,1-.049-.187Zm-1.879,6.669-.024-.021c-.3.054-.6.067-.706-.309a.461.461,0,0,1,.2-.546.413.413,0,0,1,.557.06.447.447,0,0,1,.117.561c-.041.078-.094.15-.141.225,0,0,0,.03,0,.03Zm.179,3.291a1.955,1.955,0,0,1,.246-.3H32.6a.559.559,0,0,1,.311.579.479.479,0,0,1-.346.408.411.411,0,0,1-.5-.153.459.459,0,0,1-.076-.534Zm.8-1.758h-.132c-.205-.12-.4-.246-.346-.538a.413.413,0,0,1,.789-.085C33.212,27.052,33.036,27.217,32.787,27.352Zm-.364-4.044a.487.487,0,0,1,.334.552.529.529,0,0,1-.8.4.487.487,0,0,1-.2-.326,1.552,1.552,0,0,0-.056-.165v-.027a1.552,1.552,0,0,0,.085-.153.485.485,0,0,1,.262-.285A.469.469,0,0,1,32.423,23.309Zm-.4-.808a.523.523,0,0,1-.648.315c-.176-.027-.255-.189-.381-.279h0A.7.7,0,0,1,31.041,22a.673.673,0,0,1,.406-.337c.066,0,.135.009.2.012a.61.61,0,0,1,.381.823Zm-.658-2.3c-.12.006-.241.009-.36.015a.426.426,0,0,1-.009-.5c.417-.071.508.118.367.489Zm-.041,7.071a.381.381,0,0,1,.226.2.4.4,0,0,1,.02.3.353.353,0,0,1-.139.243.337.337,0,0,1-.269.06,2.019,2.019,0,0,1-.322-.1A.076.076,0,0,0,30.8,27.9c-.018-.159-.079-.33.03-.471a.409.409,0,0,1,.5-.155Zm-1.008,2.208a.442.442,0,0,1,.545-.249,2.21,2.21,0,0,1,.278.1h0a1.755,1.755,0,0,1,.091.291.486.486,0,0,1-.284.543.453.453,0,0,1-.554-.114A.493.493,0,0,1,30.318,29.479Zm-.141-3.23a.082.082,0,0,0-.07.042c-.287.021-.551,0-.7-.309a.64.64,0,0,1,.182-.759.985.985,0,0,1,.668.027.67.67,0,0,1-.076,1Zm.666-2.256a.554.554,0,0,1-1.038.015,1.429,1.429,0,0,1-.044-.393.085.085,0,0,0,.03-.078.6.6,0,0,1,.4-.286.592.592,0,0,1,.474.106.537.537,0,0,1,.182.635ZM29.911,22.2c-.208.009-.329-.075-.334-.3a.309.309,0,0,1,.075-.236.3.3,0,0,1,.221-.1c.231.012.34.126.337.336a.291.291,0,0,1-.083.22A.277.277,0,0,1,29.911,22.2Zm-.175-2c-.205.063-.422.183-.557-.1a.318.318,0,0,1,.044-.372.392.392,0,0,1,.516-.021.927.927,0,0,1,0,.5Zm-.281,6.966a2.589,2.589,0,0,1,.3.036.052.052,0,0,0,.056.039,1.485,1.485,0,0,1,.126.369.468.468,0,0,1-.1.377.446.446,0,0,1-.348.162.478.478,0,0,1-.44-.224.5.5,0,0,1-.018-.5.48.48,0,0,1,.423-.256Zm-.566,8.484c.066-.36.241-.621.627-.579a.487.487,0,0,1,.449.51.471.471,0,0,1-.352.534c-.364.108-.566-.1-.718-.393a.069.069,0,0,0,0-.072Zm-2.619-7.59h0a1.9,1.9,0,0,1-.263.012c-.153-.012-.179-.129-.182-.255a.246.246,0,0,1,.058-.187.235.235,0,0,1,.174-.082.245.245,0,0,1,.27.177c.053.129-.02.228-.059.336Zm-.17,6.42.143.027c.158.216.278.444-.056.6a.258.258,0,0,1-.231.006.268.268,0,0,1-.147-.183c-.078-.261.086-.372.291-.447Zm.255-1.089a1.4,1.4,0,0,1-.231-.117l-.066-.114c-.094-.522.026-.777.384-.819A.487.487,0,0,1,27,32.6a.559.559,0,0,1-.053.627.507.507,0,0,1-.588.171Zm.493-8.178a.268.268,0,0,1,.235.094.354.354,0,0,1-.053.461.272.272,0,0,1-.229.048c-.214-.024-.281-.186-.252-.387a.849.849,0,0,1,.082-.2h0a1.757,1.757,0,0,1,.216-.014Zm.147,6.1a.379.379,0,0,1-.422-.4.4.4,0,0,1,.109-.3.409.409,0,0,1,.695.311.371.371,0,0,1-.1.287.353.353,0,0,1-.279.108Zm.744,3.546a.418.418,0,0,1,.347.131.439.439,0,0,1,.113.361c.018.3-.176.447-.451.456a.474.474,0,0,1-.006-.948Zm.434-.951c-.416-.012-.516-.306-.493-.673A.028.028,0,0,0,27.7,33.2c.419-.423.636-.411.991.057h.006c-.011.36-.1.669-.522.655ZM27.636,26.9a.264.264,0,0,1,.074-.223.251.251,0,0,1,.22-.071.239.239,0,0,1,.263.231c.018.192-.056.315-.246.336a1.479,1.479,0,0,1-.255-.018l-.024.021.02-.024a1.58,1.58,0,0,1-.051-.252Zm.815,5.042c-.066-.027-.135-.051-.2-.075l-.024.015.012-.027a1.971,1.971,0,0,1-.07-.258.431.431,0,0,1,.231-.519.424.424,0,0,1,.551.111.48.48,0,0,1,.033.572.455.455,0,0,1-.531.181Zm.581-1.908a.414.414,0,0,1-.337-.132.436.436,0,0,1-.112-.351.408.408,0,0,1,.13-.321.389.389,0,0,1,.325-.1.373.373,0,0,1,.324.1.392.392,0,0,1,.116.326.423.423,0,0,1-.109.351.4.4,0,0,1-.337.127Zm-1.113-9a.317.317,0,0,1-.02-.633.289.289,0,0,1,.243.087.3.3,0,0,1,.082.25.284.284,0,0,1-.085.221.27.27,0,0,1-.22.075Zm-.526-2.07c-.173-.006-.241-.135-.241-.3,0-.189.126-.255.278-.261.167-.006.263.09.252.4,0,.067-.107.172-.288.166ZM27.4,28.42a.437.437,0,0,1,.334.073.457.457,0,0,1,.185.293.539.539,0,0,1-.21.6.512.512,0,0,1-.625-.039.5.5,0,0,1-.135-.639c.035-.081.085-.153.126-.231a.079.079,0,0,0,.066-.045c.087-.005.175-.008.26-.014Zm-.561-6.02a.278.278,0,0,1-.222-.079.292.292,0,0,1-.086-.224.313.313,0,0,1,.1-.232.3.3,0,0,1,.236-.077.254.254,0,0,1,.2.073.266.266,0,0,1,.078.2.293.293,0,0,1-.071.245.279.279,0,0,1-.234.091Zm-.079,1.239h.009c0,.108,0,.216.006.324h0a.4.4,0,0,1-.5.135.033.033,0,0,0-.038.018c-.041-.093-.082-.183-.123-.276a.326.326,0,0,0,.032-.054.068.068,0,0,0-.012-.03c.157-.318.374-.332.626-.116Zm-.354-3.657c-.053.093-.17.15-.258.222a.759.759,0,0,0-.117.006c-.153-.087-.3-.174-.3-.39a.323.323,0,0,1,.2-.348.339.339,0,0,1,.4.067.351.351,0,0,1,.072.443Zm-.5,10a.407.407,0,0,1-.187.389.387.387,0,0,1-.423-.008.408.408,0,0,1-.173-.4c-.009-.288.153-.39.384-.423.256.036.406.162.395.438ZM24.3,24.67a.3.3,0,1,1,.311.342.283.283,0,0,1-.241-.092.3.3,0,0,1-.072-.253Zm.249,4.023c0,.222-.094.3-.27.294a.231.231,0,0,1-.177-.066.242.242,0,0,1-.073-.177.267.267,0,0,1,.064-.2.255.255,0,0,1,.191-.087.237.237,0,0,1,.182.06.248.248,0,0,1,.081.177Zm.176,3.159c.161-.108.329-.2.5-.033s.082.342-.014.51v.009a.5.5,0,0,1-.489-.1c0-.129,0-.258,0-.384Zm.551-5.2a.286.286,0,0,1-.358-.021.369.369,0,0,1-.035-.513.44.44,0,0,1,.5.027c.043.183.1.375-.1.5Zm.117-5.182h0a.866.866,0,0,1-.237.093.283.283,0,0,1-.352-.288.291.291,0,0,1,.066-.248.276.276,0,0,1,.234-.094c.223-.005.322.1.314.318,0,.072-.018.147-.024.219Zm-.577,1.071a.055.055,0,0,1,.066.027c.085.018.1.081.1.156h0a.257.257,0,0,1,0,.369h0l-.085.123a.418.418,0,0,1-.513.1.477.477,0,0,1-.179-.588c.014-.06.03-.117.047-.177a.057.057,0,0,1,.041-.033c.18-.052.355-.135.522.017Zm-.533-3.289a.316.316,0,0,1-.259-.1.333.333,0,0,1-.087-.269.359.359,0,0,1,.176-.318.342.342,0,0,1,.357.006.36.36,0,0,1,.165.324.324.324,0,0,1-.09.267A.308.308,0,0,1,24.278,19.25Zm-.41,11.969v.018l-.364.021v.009L23.319,31V30.86c.132-.18.281-.321.5-.177.239.146.132.35.043.538Zm-1.325-1.9a.267.267,0,0,1,.187.1.28.28,0,0,1,.062.206c0,.2-.132.246-.29.243a.222.222,0,0,1-.2-.075.234.234,0,0,1-.051-.207.277.277,0,0,1,.088-.194.264.264,0,0,1,.2-.07Zm.02-4.13a.416.416,0,0,1,.551.048c.214.213.132.453.009.681a.721.721,0,0,1-.668,0c-.095-.264-.207-.532.107-.729Zm.04,9.6c.235.033.337.168.314.369a.306.306,0,0,1-.1.216.292.292,0,0,1-.222.074.3.3,0,0,1-.234-.1.311.311,0,0,1-.079-.245C22.286,34.894,22.441,34.825,22.6,34.795Zm.2-1.713a.3.3,0,0,1,.08-.246.286.286,0,0,1,.239-.087c.185.009.273.141.281.357a.282.282,0,0,1-.087.208.268.268,0,0,1-.209.074.282.282,0,0,1-.217-.083.3.3,0,0,1-.086-.221Zm.587-5.5a.325.325,0,0,1-.258-.11.342.342,0,0,1-.082-.274.314.314,0,0,1,.09-.243.3.3,0,0,1,.239-.087c.2.009.3.153.3.363a.312.312,0,0,1-.064.242.3.3,0,0,1-.219.112Zm-.03-6.869a.3.3,0,0,1-.235-.1.314.314,0,0,1-.079-.247.3.3,0,0,1,.071-.224.282.282,0,0,1,.21-.1.273.273,0,0,1,.225.057.286.286,0,0,1,.1.212c.01.256-.1.4-.3.4ZM23.2,21.866a.459.459,0,0,1-.111.525.4.4,0,0,1-.44.093.423.423,0,0,1-.29-.441,1.58,1.58,0,0,1,.109-.372l.164-.054a.437.437,0,0,1,.57.252Zm-.693,1.5a.409.409,0,0,1,.336.048.428.428,0,0,1,.19.288.42.42,0,0,1-.026.328.4.4,0,0,1-.252.2.425.425,0,0,1-.551-.225.775.775,0,0,1-.044-.39l.05-.078A1.126,1.126,0,0,1,22.508,23.365Zm-.226,18.128a.565.565,0,0,1,.78-.117,2.836,2.836,0,0,1,.237.186.068.068,0,0,0,.024.067c.056.372.041.732-.372.875a.562.562,0,0,1-.718-.243.585.585,0,0,1,.049-.767Zm.883-1.077a.381.381,0,0,1-.291-.127.4.4,0,0,1-.1-.307.4.4,0,1,1,.8.033c0,.276-.156.39-.414.4Zm.267-2.382c0-.108.047-.216.173-.21s.229.057.226.213c0,.12-.047.2-.176.2-.156.023-.22-.077-.224-.205Zm.34-1.986a.267.267,0,0,1,.069-.225.254.254,0,0,1,.218-.078.269.269,0,0,1,.221.066.282.282,0,0,1,.093.216.29.29,0,0,1-.071.248.276.276,0,0,1-.237.089.283.283,0,0,1-.216-.091.3.3,0,0,1-.078-.225Zm.211,6.114a.285.285,0,0,1,.322-.067c.211.06.229.243.223.429a.472.472,0,0,1-.513.171c-.1-.176-.182-.349-.033-.532Zm.273-8.118c.012-.2.12-.282.316-.269a.248.248,0,0,1,.194.083.26.26,0,0,1,.064.2.273.273,0,0,1-.067.215.26.26,0,0,1-.2.088c-.223-.015-.317-.127-.305-.322Zm.526,6.332c.176-.009.258.1.273.269-.02.168-.109.273-.278.264a.244.244,0,0,1-.192-.087.256.256,0,0,1-.057-.207.245.245,0,0,1,.078-.174.233.233,0,0,1,.177-.062Zm.1-1.662c-.018-.237.141-.33.346-.369.205.033.352.138.346.369a.346.346,0,0,1-.692,0Zm.454-1.569V37.14c-.024-.024-.047-.045-.066-.067L25.221,37a.571.571,0,0,1,.237-.645c.258-.15.428.024.619.15.009.168.014.333.024.5a.569.569,0,0,1-.767.142ZM26.1,40.8a.433.433,0,0,1,.625-.067c.322.207.273.552-.123.891H26.29A.531.531,0,0,1,26,41.256a.543.543,0,0,1,.1-.459Zm.786-1.089a.47.47,0,0,1-.353-.136.493.493,0,0,1-.146-.356.478.478,0,0,1,.124-.372.455.455,0,0,1,.357-.146.442.442,0,0,1,.366.12.465.465,0,0,1,.141.366.489.489,0,0,1-.128.376.466.466,0,0,1-.361.15Zm.352-1.923a.507.507,0,0,1,.066-1.009,1.894,1.894,0,0,1,.337.06h0c.073.171.223.324.164.534a.5.5,0,0,1-.2.335.475.475,0,0,1-.374.083Zm.619,3.333v-.009a.569.569,0,0,1,.668.1.044.044,0,0,0,.018.057c0,.309-.07.588-.446.513s-.3-.39-.24-.667Zm.583-3.468a.612.612,0,0,1,.116-.481.584.584,0,0,1,.43-.229.569.569,0,0,1,.454.173.6.6,0,0,1,.165.466,2.888,2.888,0,0,1-.05.351l.014.018-.02-.006c-.556.365-1.043.239-1.108-.292Zm1.076,3.587a.33.33,0,0,1,.292-.046.339.339,0,0,1,.215.208,1.392,1.392,0,0,1,.062.3h0a1.176,1.176,0,0,1-.193.174.331.331,0,0,1-.291.056.432.432,0,0,1-.265-.479.334.334,0,0,1,.18-.214Zm.329-7.085a.493.493,0,0,1,.073-.984c.308.018.454.213.446.546a.456.456,0,0,1-.16.341.434.434,0,0,1-.357.1Zm.449-1.974a.434.434,0,0,1-.326-.139.455.455,0,0,1-.12-.34.445.445,0,0,1,.125-.344.424.424,0,0,1,.336-.127.477.477,0,0,1-.018.954ZM30.8,35.2a.508.508,0,0,1,.642-.087c.329.192.314.5.235.816-.425.357-.6.351-1.017-.027a.7.7,0,0,1,.141-.7Zm.671-1.161a.42.42,0,0,1-.316-.375c-.05-.306.138-.453.36-.582.07.006.138.009.208.015a.493.493,0,0,1,.312.286.51.51,0,0,1-.019.428.424.424,0,0,1-.546.226Zm.551-2.061a.41.41,0,0,1-.331-.138.431.431,0,0,1-.1-.351.441.441,0,1,1,.883-.018c0,.336-.159.508-.449.5Zm.868,2.862a.466.466,0,0,1,.358.137.488.488,0,0,1,.141.363.482.482,0,0,1-.147.385.458.458,0,0,1-.386.122.434.434,0,0,1-.358-.138.456.456,0,0,1-.117-.372.5.5,0,0,1,.15-.361.478.478,0,0,1,.36-.136Zm.395-1.155a.443.443,0,0,1-.331-.136.465.465,0,0,1-.129-.341.444.444,0,0,1,.118-.371.422.422,0,0,1,.36-.127.406.406,0,0,1,.338.116.427.427,0,0,1,.122.343c.012.336-.166.482-.474.516Zm-.018-2.423a.687.687,0,0,1-.006-.669c.255-.147.513-.222.733.045a.421.421,0,0,1-.024.6c-.216.242-.46.155-.7.026Zm.686-2.547a.264.264,0,0,1-.226-.055.278.278,0,0,1-.1-.214c-.009-.2.111-.291.3-.291a.235.235,0,0,1,.2.067.248.248,0,0,1,.071.2c.007.17-.059.278-.242.29Zm-.02-2.751c-.428.006-.6-.15-.6-.447a.437.437,0,0,1,.107-.329.417.417,0,0,1,.309-.142.435.435,0,0,1,.361.122.457.457,0,0,1,.134.364.381.381,0,0,1-.306.431Zm.305-1.6a1.443,1.443,0,0,1-.255.006l-.02.015c-.12-.123-.241-.249-.36-.372l.009-.021-.018-.018c-.012-.312.05-.594.378-.708a.554.554,0,0,1,.457.035.577.577,0,0,1,.282.369.568.568,0,0,1-.079.456.543.543,0,0,1-.389.237Zm.231,7.906c.2-.177.414-.345.674-.141a.492.492,0,0,1,.073.7.093.093,0,0,0-.059.057.577.577,0,0,1-.694-.177h0C34.471,32.563,34.471,32.419,34.471,32.271Zm.487-1.968c-.267-.159-.179-.393-.132-.621l.018-.021c.226-.057.46-.12.61.141a.336.336,0,0,1-.066.438.342.342,0,0,1-.429.063Zm.376-2.946h0c-.059.009-.114.024-.17.03-.187.012-.364-.006-.349-.264a.272.272,0,0,1,.088-.2.259.259,0,0,1,.2-.067c.223.006.29.159.252.369-.009.042-.018.087-.024.129Zm.082-5.316a.405.405,0,0,1,.446-.423.39.39,0,0,1,.32.132.41.41,0,0,1,.1.339.423.423,0,0,1-.135.321.4.4,0,0,1-.326.1.391.391,0,0,1-.31-.138.41.41,0,0,1-.092-.333Zm1.132,1.583h0c0,.117,0,.234.006.351a.033.033,0,0,0-.02.018.034.034,0,0,0,0,.027c-.41.33-.771.288-.855-.1a.427.427,0,0,1,.193-.5C36.164,23.248,36.363,23.422,36.548,23.624Zm-.912,1.62a.04.04,0,0,0,.047-.024l.343.009h0a.43.43,0,0,1-.038.693L35.7,25.9a.422.422,0,0,1-.059-.66Zm.246,6.081a.5.5,0,0,1,.319-.245.492.492,0,0,1,.393.071.432.432,0,0,1,.114.591c-.167.36-.526.312-.847-.1.009-.106.014-.212.02-.318Zm.475-2.136a.456.456,0,0,1-.42-.363.467.467,0,0,1,.23-.51.446.446,0,0,1,.542.092.472.472,0,0,1,.057.559.45.45,0,0,1-.409.221Zm.434-10.127c-.135.372-.449.3-.739.258h0c-.062-.087-.12-.177-.182-.264,0-.084-.009-.171-.012-.255a.517.517,0,0,1,.273-.332.5.5,0,0,1,.424,0,.433.433,0,0,1,.248.244.448.448,0,0,1-.008.352Zm-.044-2.745a.452.452,0,0,1-.46.258.664.664,0,0,1-.408-.219c-.012-.135-.02-.269-.032-.4a.623.623,0,0,1,.381-.336.426.426,0,0,1,.46.165.469.469,0,0,1,.059.532ZM36.1,13.161a.379.379,0,0,1,.292.1.4.4,0,0,1,.124.29c-.047.269-.176.429-.434.42a.365.365,0,0,1-.292-.128.384.384,0,0,1-.086-.313.368.368,0,0,1,.114-.278.351.351,0,0,1,.28-.094Zm-.408,7.248a.624.624,0,0,1-.5.633.487.487,0,0,1-.554-.252.544.544,0,0,1-.1-.4.537.537,0,0,1,.205-.355.5.5,0,0,1,.739.015,1.811,1.811,0,0,1,.205.282.069.069,0,0,0,.01.074Zm-.105-2.951a.506.506,0,0,1-.132.57.5.5,0,0,1-.531.067.417.417,0,0,1-.284-.441c0-.087.006-.177.009-.264h0a.231.231,0,0,0,.138-.174l.117-.054c.294-.067.563-.026.683.295Zm-.293-2.414c.059.357-.167.492-.475.531h-.038c-.1-.087-.205-.177-.308-.264a.093.093,0,0,0-.014-.078.761.761,0,0,1,.2-.519h0c.287-.038.577-.044.639.328Zm-.742-2.663c.278-.006.37.177.419.381-.038.288-.173.435-.431.432a.351.351,0,0,1-.279-.1.369.369,0,0,1-.105-.284.391.391,0,0,1,.1-.307.372.372,0,0,1,.294-.12Zm-.46,3.953c.155.693.006.888-.671.858l-.014-.021h-.026c-.2-.24-.329-.5-.109-.795.243-.321.533-.192.812-.045h.009Zm-1.029-2.367a.5.5,0,0,1,.6.1.53.53,0,0,1,.07.623.5.5,0,0,1-.566.241c-.082-.018-.164-.048-.246-.075a2.113,2.113,0,0,1-.1-.291.488.488,0,0,1,.235-.606Zm-.368,4.342a.237.237,0,0,1-.087.172.226.226,0,0,1-.183.047.2.2,0,0,1-.174-.072.215.215,0,0,1-.046-.186.219.219,0,0,1,.263-.222.225.225,0,0,1,.171.078A.236.236,0,0,1,32.69,18.308Zm-.141-2.184a.511.511,0,0,1-.15.364.488.488,0,0,1-.36.142.475.475,0,0,1-.378-.147.5.5,0,0,1-.135-.391.481.481,0,0,1,.142-.365.458.458,0,0,1,.362-.13.488.488,0,0,1,.374.147.513.513,0,0,1,.145.382ZM31.341,13.6a.518.518,0,0,1,.779.621c-.038.093-.091.183-.138.273l-.135.045c-.281.024-.569.027-.68-.306a.523.523,0,0,1,.174-.633ZM31.06,17.9c-.038.225-.161.309-.343.291a.246.246,0,0,1-.194-.09.259.259,0,0,1-.055-.211c.012-.21.147-.269.329-.261s.229.147.263.269Zm-.217-2.055c-.009.372-.153.594-.484.606a.471.471,0,0,1-.386-.119.5.5,0,0,1-.16-.379.479.479,0,0,1,.112-.395A.455.455,0,0,1,30.3,15.4a.463.463,0,0,1,.368.1.485.485,0,0,1,.177.344Zm-1.419-1.947a.468.468,0,0,1,.165-.325.447.447,0,0,1,.344-.1c.143,0,.223.126.346.162h0c0,.144.105.269.062.429a.452.452,0,0,1-.516.366.435.435,0,0,1-.317-.173.455.455,0,0,1-.083-.358Zm-.105,4.172a.282.282,0,0,1-.1.208.269.269,0,0,1-.218.061.278.278,0,0,1-.2-.115.291.291,0,0,1-.048-.23.255.255,0,0,1,.087-.193.243.243,0,0,1,.2-.056.274.274,0,0,1,.213.1.288.288,0,0,1,.065.229Zm-.437-2.114c0,.111-.006.222-.006.336-.179.1-.366.21-.519-.03a.234.234,0,0,1,.014-.321.388.388,0,0,1,.511.018Zm-.548-1.446-.3.009c-.066-.057-.126-.117-.191-.174h0c-.012-.15-.024-.306.161-.351a.37.37,0,0,1,.364.048c.2.176-.052.311-.034.471Zm-.964-2.637a1.4,1.4,0,0,1,.246-.183c.07,0,.141-.006.211-.006.132.087.305.117.384.273a.555.555,0,0,1-.126.756.491.491,0,0,1-.739-.075.542.542,0,0,1,.024-.765Zm-.058,4.823a.335.335,0,0,1-.1.235.319.319,0,0,1-.234.092.287.287,0,0,1-.24-.083.3.3,0,0,1-.085-.244.3.3,0,0,1,.083-.224.281.281,0,0,1,.219-.085.312.312,0,0,1,.245.074.327.327,0,0,1,.112.235Zm-.352-1.817-.006.036c-.372.351-.522.345-.865-.036l.018-.351a.5.5,0,0,1,.619-.177.485.485,0,0,1,.234.528Zm-.827-2.718a.581.581,0,0,1,.421.2.609.609,0,0,1,.151.448.626.626,0,0,1-.6.627.642.642,0,0,1-.619-.66.618.618,0,0,1,.192-.452.589.589,0,0,1,.456-.16ZM25.264,17.4l.158-.06c.226,0,.416.063.387.345a.289.289,0,0,1-.125.227.275.275,0,0,1-.253.03C25.133,17.854,25.209,17.615,25.264,17.4Zm-1.2-4.254a.556.556,0,0,1,.7-.162c.088.045.182.087.273.135h0c.2.618.05,1-.416,1.062a.557.557,0,0,1-.639-.336.609.609,0,0,1,.08-.7ZM24,16.6a.327.327,0,0,1-.158.372.389.389,0,0,1-.522-.138V16.5l.179-.183h0c.233-.017.435.022.5.285Zm-.865-2.481a.406.406,0,0,1,.3.134.425.425,0,0,1,.108.312.408.408,0,0,1-.131.291.432.432,0,0,1-.711-.309.394.394,0,0,1,.115-.326.375.375,0,0,1,.323-.1Zm-.648,3.549a.308.308,0,0,1,.265.076.324.324,0,0,1,.1.261c.009.21-.126.315-.329.345-.187-.018-.329-.093-.34-.315a.324.324,0,0,1,.068-.252.309.309,0,0,1,.229-.115Zm-1.067-2.124c.035-.027.07-.051.105-.078a.419.419,0,0,1,.592-.024.4.4,0,0,1,.091.522.367.367,0,0,1-.437.2.411.411,0,0,1-.285-.186.43.43,0,0,1-.052-.342.31.31,0,0,0-.012-.087Zm-.038,3.825c.161-.222.349-.135.531-.021v.336c-.153.126-.314.243-.487.051a.278.278,0,0,1-.042-.367Zm-.347,7.35a.27.27,0,0,1-.218-.074.3.3,0,0,1,.181-.508.267.267,0,0,1,.205.048.28.28,0,0,1,.111.183C21.306,26.6,21.216,26.72,21.031,26.72Zm.263-5.653a1.329,1.329,0,0,1,.006.306c-.026.033-.053.067-.082.1a1.268,1.268,0,0,1-.3-.009.257.257,0,0,1-.2-.3A.307.307,0,0,1,21,20.873a.25.25,0,0,1,.3.194Zm-.543-4.329c.263,0,.395.141.4.477-.006.207-.164.336-.41.336a.348.348,0,0,1-.276-.1.365.365,0,0,1-.1-.282.38.38,0,0,1,.1-.308.361.361,0,0,1,.295-.117Zm-.032,5.817c.223-.009.343.12.358.4a.321.321,0,0,1-.1.236.306.306,0,0,1-.236.085.317.317,0,0,1-.264-.068.333.333,0,0,1-.12-.251.358.358,0,0,1,.084-.293.341.341,0,0,1,.276-.116Zm-.569,10.5h-.213c-.12-.129-.267-.258-.132-.459.149-.219.329-.111.5-.024a.389.389,0,0,1-.156.48ZM19.928,18.3a.345.345,0,0,1,.253.119.361.361,0,0,1,.087.271.322.322,0,0,1-.1.261.306.306,0,0,1-.262.081.33.33,0,0,1-.254-.11.347.347,0,0,1-.086-.268c0-.242.172-.32.36-.357Zm-.694,1.707c.217.015.329.093.329.3a.284.284,0,0,1-.068.226.271.271,0,0,1-.213.092.275.275,0,0,1-.244-.073.29.29,0,0,1-.085-.245.3.3,0,0,1,.278-.3Zm-.425,1.662h.123c.191.123.337.264.235.525-.114.291-.343.177-.543.162h0c-.1-.281-.124-.53.184-.69Zm-.372,2.3v-.347h0a.178.178,0,0,0,.114-.162l.02.015c.484.033.551.138.39.6a.616.616,0,0,1-.358.063h-.032c-.047-.057-.091-.114-.132-.171Zm-.507,5.562c.182-.039.372-.1.5.1a.312.312,0,0,1-.026.369c-.147.183-.322.147-.5.039a.466.466,0,0,1,.026-.515Zm-.163-1.191c-.147.255-.349.111-.533.067l-.024.021.024-.024c-.014-.2-.114-.414.147-.534a.272.272,0,0,1,.352.057.343.343,0,0,1,.033.41Zm-.224-9.182c.211,0,.252.15.27.309-.026.2-.12.309-.308.3a.27.27,0,0,1-.215-.082.284.284,0,0,1-.078-.221c0-.222.132-.312.329-.309Zm-.835,1.866c.143-.306.395-.306.658-.153.02.036.044.072.066.1a.461.461,0,0,1-.135.522.387.387,0,0,1-.463-.016.409.409,0,0,1-.129-.455Zm.179,1.6c.22.009.249.183.229.351-.035.269-.278.309-.6.1h0c-.046-.294.066-.462.368-.453Zm-.2,1.737a.35.35,0,0,1,.353.009.367.367,0,0,1,.173.315c-.012.072-.024.144-.035.219-.231.162-.481.269-.645-.06a.328.328,0,0,1-.04-.281.318.318,0,0,1,.193-.2Zm.273,6.318a.518.518,0,0,1-.148.37.5.5,0,0,1-.363.149.485.485,0,0,1-.4-.126.509.509,0,0,1-.16-.4.5.5,0,0,1,.127-.41.47.47,0,0,1,.395-.148c.354-.015.522.186.551.561ZM16.35,29.02c0,.1-.009.207-.014.309a.032.032,0,0,0-.021.016.034.034,0,0,0,0,.026c-.229.225-.478.4-.809.24a.61.61,0,0,1-.354-.765.579.579,0,0,1,.658-.45.548.548,0,0,1,.4.189.575.575,0,0,1,.138.433Zm-1.035-8.777c.105,0,.208,0,.314-.006.091.159.173.327.006.48a.241.241,0,0,1-.322,0C15.141,20.57,15.22,20.4,15.314,20.243Zm-.308,1.494c.211.009.305.147.29.36s-.141.276-.343.276a.273.273,0,0,1-.206-.093.287.287,0,0,1-.07-.219.3.3,0,0,1,.086-.243A.281.281,0,0,1,15,21.74Zm-.12,1.737c.205-.006.3.141.322.33-.024.219-.126.348-.337.336s-.3-.156-.293-.36a.3.3,0,0,1,.089-.222.29.29,0,0,1,.219-.084ZM14.6,29.911a.574.574,0,0,1-.172.434A.547.547,0,0,1,14,30.5a.586.586,0,0,1-.424-.188.62.62,0,0,1,.462-1.039.571.571,0,0,1,.418.194.6.6,0,0,1,.147.445Zm-.548-1.686a.544.544,0,0,1-.173.385.519.519,0,0,1-.392.137.507.507,0,0,1-.392-.163.532.532,0,0,1-.139-.409.538.538,0,0,1,.163-.394.513.513,0,0,1,.394-.144.569.569,0,0,1,.539.589Zm-1.19-7.272c.167-.1.343-.186.513-.021.153.147.1.321.026.489-.493.111-.56.049-.539-.471Zm-.16,1.791a1.024,1.024,0,0,1,.241-.093.258.258,0,0,1,.208.034.27.27,0,0,1,.117.18.281.281,0,0,1-.021.215.27.27,0,0,1-.166.133.289.289,0,0,1-.231-.018.3.3,0,0,1-.147-.184.8.8,0,0,1,0-.264Zm.311,1.584c.235.006.316.156.354.36-.035.207-.114.363-.352.369s-.39-.1-.384-.36a.341.341,0,0,1,.1-.281.324.324,0,0,1,.28-.088Zm-.349,1.791a.556.556,0,0,1,.686-.228c.149.039.237.159.358.237h0c.047.33.091.669-.263.855a.557.557,0,0,1-.718-.12.609.609,0,0,1-.066-.74Zm.2,4.622a.613.613,0,0,1-.168.438.585.585,0,0,1-.424.183.642.642,0,0,1-.61-.621.616.616,0,0,1,.613-.606.555.555,0,0,1,.428.168.583.583,0,0,1,.164.438Zm-.625-1.682a.5.5,0,0,1-.143.408.475.475,0,0,1-.4.135.509.509,0,0,1-.4-.151.534.534,0,0,1-.152-.407.549.549,0,0,1,.174-.408.523.523,0,0,1,.413-.138.493.493,0,0,1,.38.163.518.518,0,0,1,.13.4Zm-.289-1.734a.6.6,0,0,1-.164.448.575.575,0,0,1-.434.179.585.585,0,0,1-.428-.181.613.613,0,0,1-.17-.44.594.594,0,0,1,.162-.422.567.567,0,0,1,.407-.178.575.575,0,0,1,.44.157.6.6,0,0,1,.187.437Zm-1.43-1.75a.613.613,0,0,1,.181-.436.584.584,0,0,1,.432-.17.577.577,0,0,1,.427.188.605.605,0,0,1,.157.448.612.612,0,0,1-.192.433.584.584,0,0,1-.438.158.628.628,0,0,1-.566-.627Zm.454-5.486c.056-.057.109-.114.164-.174.226-.051.44-.051.551.2a.388.388,0,0,1-.062.453.382.382,0,0,1-.443.081c-.256-.111-.226-.345-.211-.567Zm.009,1.4a.536.536,0,0,1,.581.2.6.6,0,0,1,.012.669.527.527,0,0,1-.56.249,2.461,2.461,0,0,1-.252-.063h0c-.32-.5-.224-.978.219-1.063Zm.047,1.764a.518.518,0,0,1,.423.138.545.545,0,0,1,.169.42c-.026.333-.2.552-.639.558a.563.563,0,0,1,.05-1.116Zm-.478,6.494a.568.568,0,0,1-.226.666.546.546,0,0,1-.723-.009c-.079-.063-.147-.141-.22-.21,0-.165-.006-.333-.009-.5.153-.2.3-.4.592-.384a.581.581,0,0,1,.586.429Zm-.921-1.029a.449.449,0,0,1-.356-.141.472.472,0,0,1-.125-.369.491.491,0,0,1,.129-.375.467.467,0,0,1,.36-.15c.354.027.533.2.526.543a.472.472,0,0,1-.152.376.449.449,0,0,1-.382.111Zm-.947-2.586a.213.213,0,0,0,.132-.177l.03-.012a2.763,2.763,0,0,1,.29-.087.6.6,0,0,1,.495.092.627.627,0,0,1,.259.441.652.652,0,0,1-.156.491.621.621,0,0,1-.459.214.585.585,0,0,1-.447-.183.614.614,0,0,1-.166-.462c0-.1.018-.207.026-.309Zm.7-6.569a.546.546,0,0,1,.683-.051l.026.021a.542.542,0,0,1-.149.687H9.559l-.191-.186a.082.082,0,0,0-.02-.072v-.269c.012-.046.021-.091.033-.135Zm.082,1.4c.241-.006.358.159.387.417,0,.24-.153.354-.381.363a.324.324,0,0,1-.265-.079.34.34,0,0,1-.113-.258.376.376,0,0,1,.078-.32.357.357,0,0,1,.3-.129ZM8.94,22.788c.082-.285.3-.333.56-.243a1.325,1.325,0,0,1,.191.1.1.1,0,0,0,.03.078v.177a.388.388,0,0,1-.128.345.458.458,0,0,1-.642-.116.386.386,0,0,1-.01-.352Zm.176,1.2a.715.715,0,0,1,.355,1.325.672.672,0,0,1-.7-.011.719.719,0,0,1,.347-1.32ZM55.122,56.657q-9.824,0-19.651,0-13.79,0-27.581.009c-.32,0-.46-.051-.449-.429.032-.8.014-1.6.009-2.406a.353.353,0,0,1,.237-.4q3.992-1.7,7.97-3.425L19.143,48.5a.708.708,0,0,1,.548-.009q3.929,1.38,7.854,2.751c1.07.372,2.143.735,3.213,1.107a.327.327,0,0,0,.264.022.336.336,0,0,0,.2-.181c.526-.813,1.088-1.608,1.63-2.412,1.87-2.775,3.744-5.546,5.593-8.334a.611.611,0,0,1,.789-.285c2.166.6,4.341,1.176,6.506,1.785a.516.516,0,0,0,.68-.246q4.041-6.083,8.1-12.158l.976-1.458c.032.009.066.021.094.03v1.061q0,13.04.012,26.083C55.6,56.678,55.4,56.66,55.122,56.657Z" transform="translate(-0.99 -0.63)" fill="#08a79b"/>
      </g>
      <text id="___" data-name="   " transform="translate(194.997 26.237)" font-size="8" font-family="SegoeUI-Bold, Segoe UI" font-weight="700"><tspan x="0" y="0">   </tspan></text>
      <text id="____" data-name="    " transform="translate(194.605 8.329)" font-size="7" font-family="SegoeUI-Bold, Segoe UI" font-weight="700"><tspan x="0" y="0">     </tspan></text>
      <text id="___" data-name="   " transform="translate(195 59.077)" font-size="7" font-family="SegoeUI-Bold, Segoe UI" font-weight="700"><tspan x="0" y="0">    </tspan></text>
      <text id="___" data-name="   " transform="translate(195 43.136)" font-size="8" font-family="SegoeUI-Bold, Segoe UI" font-weight="700"><tspan x="0" y="0">   </tspan></text>
    </g>
    <text id="___" data-name="   " transform="translate(134.013 143.91)" font-size="8" font-family="SegoeUI-Bold, Segoe UI" font-weight="700"><tspan x="0" y="0">     </tspan></text>
  </g>
</svg>
